<?xml version="1.0" encoding="UTF-8"?>
<svg xmlns="http://www.w3.org/2000/svg" xmlns:xlink="http://www.w3.org/1999/xlink" width="320" height="320" viewBox="0 0 320 320" role="img" aria-labelledby="qwc-about-05-title qwc-about-05-desc">
  <title id="qwc-about-05-title">Service Nodes</title>
  <desc id="qwc-about-05-desc">Three peer servers exchange network data. Service infrastructure is shown without staking, block-production or consensus-voting symbols.</desc>

  <g stroke-linecap="round" stroke-linejoin="round">

    <path d="M162,52 L264,208 L65,236 Z" fill="#c4acff"/>
    <path d="M158,94 L252,207 L73,228 Z" fill="none" stroke="#171714" stroke-width="4"/>
    <path d="M80,205 C103,278 226,284 248,216" fill="none" stroke="#171714" stroke-width="3.5" stroke-dasharray="6 10"/>
    <g transform="translate(122 43)"><rect x="5" y="6" width="72" height="100" rx="6" fill="#171714"/><rect width="72" height="100" rx="6" fill="#ffb000" stroke="#171714" stroke-width="4"/>
<circle cx="15" cy="21.33" r="3.3" fill="#171714"/><path d="M46,21.33 H59" stroke="#171714" stroke-width="3.5" stroke-linecap="round"/>
<path d="M1,35.67 H71" stroke="#171714" stroke-width="3"/>
<circle cx="15" cy="50.00" r="3.3" fill="#171714"/><path d="M46,50.00 H59" stroke="#171714" stroke-width="3.5" stroke-linecap="round"/>
<path d="M1,64.33 H71" stroke="#171714" stroke-width="3"/>
<circle cx="15" cy="78.67" r="3.3" fill="#171714"/><path d="M46,78.67 H59" stroke="#171714" stroke-width="3.5" stroke-linecap="round"/>
</g>
    <g transform="translate(42 158)"><rect x="5" y="6" width="72" height="100" rx="6" fill="#171714"/><rect width="72" height="100" rx="6" fill="#f7f2e8" stroke="#171714" stroke-width="4"/>
<circle cx="15" cy="21.33" r="3.3" fill="#171714"/><path d="M46,21.33 H59" stroke="#171714" stroke-width="3.5" stroke-linecap="round"/>
<path d="M1,35.67 H71" stroke="#171714" stroke-width="3"/>
<circle cx="15" cy="50.00" r="3.3" fill="#171714"/><path d="M46,50.00 H59" stroke="#171714" stroke-width="3.5" stroke-linecap="round"/>
<path d="M1,64.33 H71" stroke="#171714" stroke-width="3"/>
<circle cx="15" cy="78.67" r="3.3" fill="#171714"/><path d="M46,78.67 H59" stroke="#171714" stroke-width="3.5" stroke-linecap="round"/>
</g>
    <g transform="translate(210 146)"><rect x="5" y="6" width="72" height="100" rx="6" fill="#171714"/><rect width="72" height="100" rx="6" fill="#ffb000" stroke="#171714" stroke-width="4"/>
<circle cx="15" cy="21.33" r="3.3" fill="#171714"/><path d="M46,21.33 H59" stroke="#171714" stroke-width="3.5" stroke-linecap="round"/>
<path d="M1,35.67 H71" stroke="#171714" stroke-width="3"/>
<circle cx="15" cy="50.00" r="3.3" fill="#171714"/><path d="M46,50.00 H59" stroke="#171714" stroke-width="3.5" stroke-linecap="round"/>
<path d="M1,64.33 H71" stroke="#171714" stroke-width="3"/>
<circle cx="15" cy="78.67" r="3.3" fill="#171714"/><path d="M46,78.67 H59" stroke="#171714" stroke-width="3.5" stroke-linecap="round"/>
</g>
    <path d="M125,207 H192 M181,196 L192,207 L181,218 M137,229 H197 M148,218 L137,229 L148,240" fill="none" stroke="#171714" stroke-width="4"/>
    <circle cx="164" cy="177" r="20" fill="#8354f6" stroke="#171714" stroke-width="4"/>
    <path d="M156,177 H172 M164,169 V185" stroke="#f7f2e8" stroke-width="4"/>
    <path d="M48,78 H68 M58,68 V88" fill="none" stroke="#8354f6" stroke-width="4" stroke-linecap="round"/>
    <path d="M255,70 L261,58 M273,85 L286,81" fill="none" stroke="#171714" stroke-width="4"/>

  </g>
</svg>
