<svg width="118" height="118" viewBox="0 0 118 118" fill="none" xmlns="http://www.w3.org/2000/svg">
<path fill-rule="evenodd" clip-rule="evenodd" d="M59 109C86.6142 109 109 86.6142 109 59C109 31.3858 86.6142 9 59 9C31.3858 9 9 31.3858 9 59C9 86.6142 31.3858 109 59 109Z" fill="#DCFAEB"/>
<path d="M59 117.5C58.503 117.5 58.0074 117.494 57.5133 117.481L57.5009 117.981C56.4993 117.956 55.504 117.906 54.5154 117.832L54.5529 117.334C53.5627 117.259 52.5794 117.16 51.6037 117.037L51.5411 117.533C50.5481 117.408 49.5628 117.258 48.5858 117.084L48.6735 116.592C47.6969 116.418 46.7288 116.219 45.7697 115.998L45.6571 116.485C44.6828 116.26 43.7178 116.01 42.7627 115.737L42.9 115.257C41.9472 114.985 41.0042 114.689 40.0719 114.37L39.9102 114.843C38.9648 114.52 38.0302 114.174 37.1071 113.805L37.2927 113.34C36.3733 112.973 35.4653 112.583 34.5696 112.17L34.3606 112.624C33.4536 112.207 32.5591 111.767 31.6777 111.306L31.9095 110.863C31.0328 110.404 30.1691 109.924 29.3192 109.422L29.0652 109.853C28.2058 109.346 27.3604 108.818 26.5297 108.269L26.8052 107.852C25.9799 107.307 25.1691 106.742 24.3738 106.156L24.0775 106.559C23.2742 105.968 22.4863 105.358 21.7147 104.728L22.0309 104.34C21.2651 103.715 20.5154 103.071 19.7825 102.408L19.4472 102.779C18.7078 102.111 17.9854 101.424 17.2807 100.719L17.6342 100.366C16.9355 99.667 16.2543 98.9507 15.5915 98.2174L15.2206 98.5527C14.5525 97.8137 13.9028 97.0576 13.2723 96.2853L13.6596 95.9691C13.035 95.204 12.4294 94.4228 11.8435 93.6262L11.4407 93.9225C10.8507 93.1203 10.2805 92.3027 9.73083 91.4703L10.1481 91.1948C9.60413 90.3711 9.08047 89.5328 8.5778 88.6808L8.14716 88.9348C7.64149 88.0776 7.15688 87.2066 6.69404 86.3223L7.13703 86.0905C6.67958 85.2165 6.24358 84.3296 5.82973 83.4304L5.37553 83.6394C4.95973 82.736 4.56609 81.8202 4.19531 80.8929L4.65957 80.7073C4.29364 79.792 3.95016 78.8654 3.62981 77.9281L3.15668 78.0898C2.83531 77.1494 2.53702 76.1984 2.2625 75.2373L2.74327 75.0999C2.47277 74.153 2.22554 73.1962 2.00224 72.2303L1.51508 72.3429C1.29145 71.3755 1.09161 70.3991 0.916201 69.4142L1.40846 69.3265C1.23594 68.3578 1.08726 67.3809 0.963051 66.3963L0.466983 66.4588C0.342841 65.4748 0.242936 64.4831 0.167888 63.4846L0.666481 63.4471C0.592808 62.4669 0.543288 61.4798 0.518518 60.4866L0.0186737 60.4991C0.00624911 60.0009 0 59.5012 0 59H0.5C0.5 58.503 0.506197 58.0074 0.518519 57.5133L0.0186741 57.5009C0.0436527 56.4993 0.0935906 55.504 0.167889 54.5154L0.666483 54.5529C0.740901 53.5627 0.839962 52.5794 0.963054 51.6037L0.466986 51.5411C0.592257 50.5481 0.742208 49.5628 0.916207 48.5858L1.40846 48.6735C1.58238 47.6969 1.78052 46.7288 2.00224 45.7697L1.51509 45.6571C1.74032 44.6828 1.98968 43.7178 2.2625 42.7627L2.74327 42.9C3.01546 41.9472 3.3112 41.0042 3.62982 40.0719L3.15669 39.9102C3.47979 38.9648 3.82623 38.0302 4.19531 37.1071L4.65958 37.2927C5.0272 36.3733 5.41748 35.4653 5.82974 34.5696L5.37553 34.3606C5.79294 33.4536 6.23268 32.5591 6.69405 31.6777L7.13703 31.9095C7.59594 31.0328 8.07644 30.1691 8.57781 29.3192L8.14716 29.0652C8.65413 28.2058 9.18227 27.3604 9.73084 26.5297L10.1481 26.8052C10.6931 25.9799 11.2585 25.1691 11.8435 24.3738L11.4408 24.0775C12.0316 23.2742 12.6424 22.4863 13.2723 21.7147L13.6596 22.0309C14.2848 21.2651 14.929 20.5154 15.5915 19.7825L15.2206 19.4472C15.8891 18.7078 16.576 17.9854 17.2807 17.2807L17.6343 17.6342C18.333 16.9355 19.0493 16.2543 19.7826 15.5915L19.4472 15.2206C20.1863 14.5525 20.9424 13.9028 21.7147 13.2723L22.0309 13.6596C22.796 13.035 23.5772 12.4294 24.3738 11.8435L24.0775 11.4407C24.8797 10.8507 25.6973 10.2805 26.5297 9.73083L26.8052 10.1481C27.6289 9.60413 28.4672 9.08047 29.3192 8.5778L29.0652 8.14715C29.9224 7.64149 30.7934 7.15688 31.6777 6.69404L31.9095 7.13703C32.7835 6.67958 33.6704 6.24358 34.5696 5.82973L34.3606 5.37553C35.264 4.95973 36.1798 4.56609 37.1071 4.19531L37.2927 4.65957C38.208 4.29364 39.1346 3.95016 40.0719 3.62981L39.9102 3.15668C40.8506 2.83531 41.8016 2.53702 42.7627 2.2625L42.9001 2.74327C43.847 2.47277 44.8038 2.22554 45.7697 2.00224L45.6571 1.51508C46.6245 1.29145 47.6009 1.09161 48.5858 0.916202L48.6735 1.40846C49.6422 1.23594 50.6191 1.08726 51.6037 0.963051L51.5412 0.466983C52.5252 0.34284 53.5168 0.242936 54.5154 0.167888L54.5529 0.666481C55.5331 0.592808 56.5202 0.543288 57.5134 0.518518L57.5009 0.0186737C57.9991 0.00624911 58.4988 0 59 0V0.5C59.497 0.5 59.9926 0.506197 60.4867 0.518519L60.4991 0.0186741C61.5007 0.0436527 62.496 0.0935906 63.4846 0.167889L63.4471 0.666483C64.4373 0.740901 65.4205 0.839962 66.3963 0.963054L66.4589 0.466985C67.4519 0.592256 68.4372 0.742208 69.4142 0.916206L69.3265 1.40846C70.3031 1.58238 71.2712 1.78052 72.2303 2.00224L72.3429 1.51509C73.3172 1.74032 74.2822 1.98968 75.2373 2.2625L75.1 2.74327C76.0528 3.01546 76.9958 3.3112 77.9281 3.62982L78.0898 3.15669C79.0352 3.47979 79.9698 3.82623 80.8929 4.19531L80.7073 4.65958C81.6267 5.0272 82.5347 5.41748 83.4304 5.82974L83.6394 5.37553C84.5464 5.79294 85.4409 6.23268 86.3223 6.69405L86.0905 7.13703C86.9672 7.59594 87.8309 8.07644 88.6808 8.57781L88.9348 8.14716C89.7942 8.65413 90.6396 9.18227 91.4703 9.73084L91.1948 10.1481C92.0201 10.6931 92.8308 11.2585 93.6262 11.8435L93.9225 11.4408C94.7258 12.0316 95.5137 12.6424 96.2853 13.2723L95.9691 13.6596C96.7349 14.2848 97.4846 14.929 98.2175 15.5915L98.5528 15.2206C99.2922 15.8891 100.015 16.576 100.719 17.2807L100.366 17.6343C101.064 18.333 101.746 19.0493 102.408 19.7826L102.779 19.4472C103.448 20.1863 104.097 20.9424 104.728 21.7147L104.34 22.0309C104.965 22.796 105.571 23.5772 106.156 24.3738L106.559 24.0775C107.149 24.8797 107.719 25.6973 108.269 26.5297L107.852 26.8052C108.396 27.6289 108.92 28.4672 109.422 29.3192L109.853 29.0652C110.359 29.9224 110.843 30.7934 111.306 31.6777L110.863 31.9095C111.32 32.7835 111.756 33.6704 112.17 34.5696L112.624 34.3606C113.04 35.264 113.434 36.1798 113.805 37.1071L113.34 37.2927C113.706 38.208 114.05 39.1346 114.37 40.0719L114.843 39.9102C115.165 40.8506 115.463 41.8016 115.738 42.7627L115.257 42.9001C115.527 43.847 115.774 44.8038 115.998 45.7697L116.485 45.6571C116.709 46.6245 116.908 47.6009 117.084 48.5858L116.592 48.6735C116.764 49.6422 116.913 50.6191 117.037 51.6037L117.533 51.5412C117.657 52.5252 117.757 53.5168 117.832 54.5154L117.334 54.5529C117.407 55.5331 117.457 56.5202 117.481 57.5134L117.981 57.5009C117.994 57.9991 118 58.4988 118 59H117.5C117.5 59.497 117.494 59.9926 117.481 60.4867L117.981 60.4991C117.956 61.5007 117.906 62.496 117.832 63.4846L117.334 63.4471C117.259 64.4373 117.16 65.4205 117.037 66.3963L117.533 66.4589C117.408 67.4519 117.258 68.4372 117.084 69.4142L116.592 69.3265C116.418 70.3031 116.219 71.2712 115.998 72.2303L116.485 72.3429C116.26 73.3172 116.01 74.2822 115.737 75.2373L115.257 75.1C114.985 76.0528 114.689 76.9958 114.37 77.9281L114.843 78.0898C114.52 79.0352 114.174 79.9698 113.805 80.8929L113.34 80.7073C112.973 81.6267 112.583 82.5347 112.17 83.4304L112.624 83.6394C112.207 84.5464 111.767 85.4409 111.306 86.3223L110.863 86.0905C110.404 86.9672 109.924 87.8309 109.422 88.6808L109.853 88.9348C109.346 89.7942 108.818 90.6396 108.269 91.4703L107.852 91.1948C107.307 92.0201 106.742 92.8308 106.156 93.6262L106.559 93.9225C105.968 94.7258 105.358 95.5137 104.728 96.2853L104.34 95.9691C103.715 96.7349 103.071 97.4846 102.408 98.2175L102.779 98.5528C102.111 99.2922 101.424 100.015 100.719 100.719L100.366 100.366C99.667 101.064 98.9507 101.746 98.2174 102.408L98.5527 102.779C97.8137 103.448 97.0576 104.097 96.2853 104.728L95.9691 104.34C95.204 104.965 94.4228 105.571 93.6262 106.156L93.9225 106.559C93.1203 107.149 92.3027 107.719 91.4703 108.269L91.1948 107.852C90.3711 108.396 89.5328 108.92 88.6808 109.422L88.9348 109.853C88.0776 110.359 87.2066 110.843 86.3223 111.306L86.0905 110.863C85.2165 111.32 84.3296 111.756 83.4304 112.17L83.6394 112.624C82.736 113.04 81.8202 113.434 80.8929 113.805L80.7073 113.34C79.792 113.706 78.8654 114.05 77.9281 114.37L78.0898 114.843C77.1494 115.165 76.1984 115.463 75.2373 115.738L75.0999 115.257C74.153 115.527 73.1962 115.774 72.2303 115.998L72.3429 116.485C71.3755 116.709 70.3991 116.908 69.4142 117.084L69.3265 116.592C68.3578 116.764 67.3809 116.913 66.3963 117.037L66.4589 117.533C65.4748 117.657 64.4832 117.757 63.4846 117.832L63.4471 117.334C62.4669 117.407 61.4798 117.457 60.4866 117.481L60.4991 117.981C60.0009 117.994 59.5012 118 59 118V117.5Z" stroke="#D5D5D5" stroke-dasharray="3"/>
<path fill-rule="evenodd" clip-rule="evenodd" d="M70.7665 50.8492C70.1603 50.7765 69.554 50.7492 68.9281 50.7492C59.8925 50.7492 52.7539 57.036 52.7637 64.7603C52.7637 66.0522 52.9788 67.2987 53.37 68.4723C52.7637 68.5178 52.1867 68.5451 51.5804 68.5451C49.574 68.5451 47.9134 68.2299 46.017 67.8699L46.0169 67.8699L46.0168 67.8699L46.0165 67.8698L46.016 67.8697L46.015 67.8695C45.6568 67.8015 45.2902 67.7319 44.9113 67.6626L38.2617 70.765L40.149 65.4335C35.3965 62.3311 32.5312 58.3188 32.5312 53.4604C32.5312 45.0355 41.0877 38.4121 51.5707 38.4121C60.9192 38.4121 69.1433 43.7163 70.7665 50.8492ZM61.943 47.2477C61.943 45.4685 60.8765 44.2945 59.2822 44.2945C57.6659 44.2945 56.0717 45.4685 56.0607 47.2477C56.0607 49.0028 57.6549 50.1768 59.2822 50.1768C60.8765 50.1768 61.943 49.0028 61.943 47.2477ZM44.5643 50.1768C42.976 50.1768 41.3548 49.0028 41.3548 47.2477C41.3548 45.4564 42.976 44.2945 44.5643 44.2945C46.1855 44.2945 47.2371 45.4685 47.2371 47.2477C47.2371 49.0149 46.1855 50.1768 44.5643 50.1768ZM69.296 53.118C77.8536 53.118 85.4724 58.6751 85.4724 65.5031C85.4724 69.3422 82.6362 72.7518 78.8023 75.3287L80.2498 79.5886L75.0272 77.0204L74.6768 77.0971C72.8681 77.4937 71.0691 77.8881 69.296 77.8881C60.2395 77.8881 53.1195 72.3311 53.1195 65.5031C53.1195 58.6751 60.2297 53.118 69.296 53.118ZM63.242 61.9415C62.5891 61.9415 61.943 61.2081 61.943 60.4596C61.943 59.7262 62.5959 59.0003 63.242 59.0003C64.2381 59.0003 64.8842 59.7337 64.8842 60.4596C64.8842 61.2157 64.2313 61.9415 63.242 61.9415ZM73.7077 60.4596C73.7077 61.2081 74.3538 61.9415 75.0067 61.9415C75.9826 61.9415 76.6556 61.2157 76.6488 60.4596C76.6488 59.7337 75.9826 59.0003 75.0067 59.0003C74.3606 59.0003 73.7077 59.7262 73.7077 60.4596Z" fill="#45CE86"/>
</svg>
