<svg width="80" height="80" viewBox="0 0 80 80" fill="none" xmlns="http://www.w3.org/2000/svg">
<path fill-rule="evenodd" clip-rule="evenodd" d="M40 80C62.0914 80 80 62.0914 80 40C80 17.9086 62.0914 0 40 0C17.9086 0 0 17.9086 0 40C0 62.0914 17.9086 80 40 80Z" fill="#F3F3F3"/>
<path d="M27.7123 31.3832C27.756 30.9781 27.5882 30.5729 27.2672 30.2983L23.9763 26.563V26.0068H34.2063L42.1159 42.3281L49.0697 26.0068H58.8254V26.563L56.0088 29.1035C55.7681 29.2752 55.644 29.5636 55.6951 29.8451V48.5215C55.644 48.803 55.7681 49.0914 56.0088 49.2631L58.7597 51.8036V52.3598H44.9179V51.8036L47.7709 49.2013C48.0481 48.9403 48.0481 48.858 48.0481 48.4597V33.3675L40.1166 52.3117H39.044L29.821 33.3675V46.0634C29.7407 46.5989 29.9305 47.1345 30.3318 47.519L34.0385 51.7487V52.3048H23.5312V51.7555L27.238 47.519C27.632 47.1345 27.8144 46.5921 27.7123 46.0634V31.3832Z" fill="#424242"/>
</svg>
