<svg width="80" height="80" viewBox="0 0 80 80" fill="none" xmlns="http://www.w3.org/2000/svg">
<path fill-rule="evenodd" clip-rule="evenodd" d="M40 80C62.0914 80 80 62.0914 80 40C80 17.9086 62.0914 0 40 0C17.9086 0 0 17.9086 0 40C0 62.0914 17.9086 80 40 80Z" fill="#FFECE6"/>
<path fill-rule="evenodd" clip-rule="evenodd" d="M50.6167 38.682C51.2421 38.0198 52.0931 37.5966 53.0601 37.5966C56.6253 37.5966 57.8116 42.6548 54.5945 44.4023C54.7364 44.9416 54.7944 45.5423 54.7944 46.1157C54.7944 51.8361 48.7084 56.471 41.204 56.471C33.7319 56.471 27.6459 51.8361 27.6459 46.1157C27.6459 45.5423 27.6975 44.9689 27.8135 44.4296C24.532 42.6889 25.7053 37.5966 29.2899 37.5966C30.2569 37.5966 31.1402 38.0198 31.7656 38.7093C34.0736 37.0232 37.1424 35.9378 40.5529 35.7876L42.5128 26.3948C42.5966 26.0603 42.906 25.8214 43.2219 25.9101L49.5014 27.3846C49.9269 26.5176 50.7843 25.8828 51.7772 25.8828C53.202 25.8828 54.3366 27.1184 54.3366 28.5928C54.3366 30.0673 53.1955 31.3028 51.7772 31.3028C50.3846 31.3028 49.2499 30.1014 49.2499 28.6269L43.5636 27.2754L41.7778 35.7945C45.2141 35.9105 48.3151 36.9959 50.6167 38.682ZM36.4157 41.1769C34.8092 41.1769 33.5299 42.4635 33.5299 44.0627C33.5299 45.6328 34.8165 46.9195 36.4157 46.9122C37.9858 46.9122 39.2652 45.6328 39.2652 44.0627C39.2652 42.4563 37.9858 41.1769 36.4157 41.1769ZM46.7234 52.1666C44.4228 55.3569 37.9318 55.3569 35.6312 52.1666C35.3784 51.8598 35.3784 51.3164 35.6312 50.9658C35.8525 50.6591 36.2443 50.6591 36.4655 50.9658C38.2226 53.4637 44.0499 53.5075 45.8828 50.9658C46.104 50.6591 46.4959 50.6591 46.7171 50.9658C46.9762 51.3164 46.9762 51.8598 46.7234 52.1666ZM45.0005 44.0627C45.0005 45.6329 46.2798 46.9122 47.8499 46.9122C49.4491 46.9122 50.7285 45.6256 50.7358 44.0627C50.7358 42.4563 49.4491 41.1769 47.8499 41.1769C46.2798 41.1769 45.0005 42.4636 45.0005 44.0627Z" fill="#FF4500"/>
</svg>
