<svg width="178" height="178" viewBox="0 0 178 178" fill="none" xmlns="http://www.w3.org/2000/svg">
<path fill-rule="evenodd" clip-rule="evenodd" d="M89 139C116.614 139 139 116.614 139 89C139 61.3858 116.614 39 89 39C61.3858 39 39 61.3858 39 89C39 116.614 61.3858 139 89 139Z" fill="#E5EEFF"/>
<path d="M89 177.5C88.5041 177.5 88.0091 177.496 87.5151 177.488L87.5069 177.988C86.5135 177.971 85.524 177.939 84.5388 177.89L84.5634 177.391C83.5736 177.342 82.588 177.277 81.607 177.196L81.5658 177.694C80.5748 177.612 79.5883 177.514 78.6067 177.4L78.6645 176.903C77.6832 176.789 76.7068 176.659 75.7356 176.513L75.6613 177.007C74.6769 176.859 73.6977 176.695 72.7242 176.515L72.815 176.023C71.8432 175.844 70.877 175.648 69.9167 175.437L69.8093 175.926C68.8394 175.713 67.8754 175.484 66.9176 175.239L67.0413 174.755C66.0831 174.51 65.1311 174.25 64.1856 173.974L64.0457 174.454C63.092 174.176 62.1449 173.883 61.2048 173.574L61.3608 173.099C60.4231 172.791 59.4924 172.467 58.5688 172.129L58.3969 172.599C57.4636 172.257 56.5376 171.9 55.6192 171.528L55.8069 171.065C54.8916 170.694 53.984 170.309 53.0843 169.909L52.8812 170.366C51.9744 169.963 51.0755 169.545 50.185 169.113L50.4034 168.663C49.515 168.231 48.635 167.786 47.7636 167.326L47.5303 167.768C46.6523 167.305 45.783 166.828 44.9227 166.336L45.1707 165.902C44.314 165.413 43.4662 164.91 42.6278 164.393L42.3654 164.818C41.5206 164.298 40.6852 163.763 39.8594 163.215L40.1358 162.799C39.3136 162.253 38.501 161.694 37.6984 161.122L37.4082 161.53C36.6003 160.954 35.8025 160.365 35.015 159.763L35.3186 159.366C34.5348 158.767 33.7613 158.156 32.9984 157.531L32.6818 157.918C31.9141 157.29 31.157 156.65 30.411 155.997L30.7403 155.62C29.9982 154.971 29.267 154.309 28.5471 153.636L28.2055 154.001C27.4814 153.323 26.7686 152.634 26.0675 151.932L26.421 151.579C25.7238 150.882 25.0382 150.173 24.3644 149.453L23.9993 149.794C23.322 149.071 22.6565 148.335 22.0034 147.589L22.3796 147.26C21.7303 146.518 21.0932 145.765 20.4686 145.002L20.0816 145.318C19.454 144.551 18.8389 143.773 18.2366 142.985L18.6339 142.681C18.0356 141.898 17.4501 141.105 16.8776 140.302L16.4704 140.592C15.8952 139.785 15.3332 138.967 14.7846 138.141L15.2012 137.864C14.6565 137.043 14.125 136.212 13.6072 135.372L13.1816 135.635C12.6618 134.791 12.1557 133.939 11.6636 133.077L12.0978 132.829C11.6092 131.974 11.1344 131.109 10.6739 130.236L10.2316 130.47C9.7693 129.593 9.32115 128.708 8.88751 127.815L9.33732 127.597C8.90749 126.711 8.49199 125.817 8.09113 124.916L7.63424 125.119C7.23199 124.214 6.84438 123.301 6.47172 122.381L6.93518 122.193C6.56546 121.28 6.21054 120.359 5.87071 119.431L5.4012 119.603C5.0611 118.674 4.73604 117.738 4.4263 116.795L4.90134 116.639C4.59428 115.704 4.30238 114.763 4.02593 113.814L3.54591 113.954C3.26871 113.004 3.00696 112.046 2.76093 111.082L3.24539 110.959C3.00226 110.006 2.77457 109.048 2.56261 108.083L2.07427 108.191C1.86201 107.225 1.66544 106.253 1.48483 105.276L1.9765 105.185C1.7976 104.217 1.63445 103.243 1.48734 102.264L0.992892 102.339C0.846097 101.362 0.715175 100.38 0.600396 99.3933L1.09705 99.3355C0.983523 98.3595 0.885878 97.3785 0.804379 96.393L0.30608 96.4342C0.224499 95.4477 0.159008 94.4566 0.109869 93.4612L0.60926 93.4366C0.560892 92.4568 0.528454 91.4728 0.512204 90.4849L0.0122716 90.4931C0.00410116 89.9964 0 89.4987 0 89H0.5C0.5 88.5041 0.504079 88.0091 0.512204 87.5151L0.0122713 87.5069C0.0286117 86.5135 0.0612288 85.524 0.109867 84.5388L0.609259 84.5634C0.658125 83.5736 0.723252 82.588 0.804377 81.607L0.306078 81.5658C0.388034 80.5748 0.486227 79.5883 0.600392 78.6067L1.09704 78.6645C1.21118 77.6832 1.34136 76.7068 1.48733 75.7356L0.992885 75.6613C1.14083 74.6769 1.3049 73.6977 1.48482 72.7242L1.9765 72.815C2.15608 71.8432 2.35155 70.877 2.56261 69.9167L2.07426 69.8093C2.28742 68.8394 2.5164 67.8754 2.76092 66.9176L3.24538 67.0413C3.49002 66.0831 3.75029 65.1311 4.02592 64.1856L3.5459 64.0457C3.82393 63.092 4.11749 62.1449 4.42629 61.2048L4.90133 61.3608C5.2093 60.4231 5.53253 59.4924 5.8707 58.5688L5.40119 58.3969C5.74295 57.4636 6.09989 56.5376 6.47171 55.6192L6.93517 55.8069C7.30572 54.8916 7.69114 53.984 8.09112 53.0843L7.63424 52.8812C8.03738 51.9744 8.45524 51.0755 8.88751 50.185L9.33731 50.4034C9.76851 49.515 10.2141 48.635 10.6739 47.7636L10.2316 47.5303C10.6948 46.6523 11.1723 45.783 11.6636 44.9227L12.0978 45.1707C12.5871 44.314 13.0904 43.4662 13.6072 42.6278L13.1816 42.3654C13.7023 41.5206 14.2367 40.6852 14.7846 39.8594L15.2012 40.1358C15.7468 39.3136 16.3057 38.501 16.8776 37.6984L16.4704 37.4082C17.0461 36.6003 17.635 35.8025 18.2366 35.015L18.6339 35.3186C19.2328 34.5348 19.8445 33.7613 20.4686 32.9984L20.0816 32.6818C20.7097 31.9141 21.3504 31.157 22.0034 30.411L22.3796 30.7403C23.0291 29.9982 23.6909 29.267 24.3644 28.5471L23.9993 28.2055C24.6769 27.4814 25.3664 26.7686 26.0675 26.0675L26.4211 26.421C27.1183 25.7238 27.8271 25.0382 28.5472 24.3644L28.2055 23.9993C28.9295 23.322 29.6647 22.6565 30.411 22.0034L30.7403 22.3796C31.4822 21.7303 32.235 21.0932 32.9985 20.4686L32.6818 20.0816C33.449 19.454 34.2269 18.8389 35.015 18.2366L35.3186 18.6339C36.1017 18.0356 36.895 17.4501 37.6984 16.8776L37.4082 16.4704C38.2154 15.8952 39.0325 15.3332 39.8594 14.7846L40.1358 15.2012C40.957 14.6565 41.7877 14.125 42.6278 13.6072L42.3654 13.1816C43.2086 12.6618 44.0612 12.1557 44.9227 11.6636L45.1707 12.0978C46.0262 11.6092 46.8905 11.1344 47.7636 10.6739L47.5303 10.2316C48.4066 9.7693 49.2916 9.32115 50.185 8.88751L50.4033 9.33732C51.2889 8.90749 52.1826 8.49199 53.0843 8.09113L52.8812 7.63424C53.786 7.23199 54.6988 6.84438 55.6192 6.47172L55.8069 6.93518C56.72 6.56546 57.6408 6.21054 58.5688 5.87071L58.3969 5.4012C59.3257 5.0611 60.2617 4.73604 61.2047 4.4263L61.3607 4.90134C62.2956 4.59428 63.2373 4.30238 64.1856 4.02593L64.0457 3.54591C64.9965 3.26871 65.9539 3.00696 66.9176 2.76093L67.0413 3.24539C67.9936 3.00226 68.9522 2.77457 69.9166 2.56261L69.8093 2.07427C70.7751 1.86201 71.7468 1.66543 72.7241 1.48483L72.815 1.9765C73.7831 1.7976 74.7567 1.63445 75.7355 1.48734L75.6612 0.992892C76.6379 0.846097 77.6199 0.715175 78.6067 0.600396L78.6645 1.09705C79.6405 0.983523 80.6215 0.885878 81.607 0.804379L81.5658 0.30608C82.5523 0.224499 83.5434 0.159008 84.5388 0.109869L84.5634 0.60926C85.5432 0.560892 86.5272 0.528454 87.5151 0.512204L87.5069 0.0122716C88.0036 0.00410116 88.5013 0 89 0V0.5C89.4959 0.5 89.9909 0.504079 90.4849 0.512204L90.4931 0.0122713C91.4865 0.0286117 92.476 0.0612289 93.4612 0.109868L93.4366 0.609259C94.4264 0.658125 95.412 0.723252 96.393 0.804377L96.4342 0.306078C97.4252 0.388034 98.4117 0.486227 99.3933 0.600392L99.3355 1.09704C100.317 1.21118 101.293 1.34136 102.264 1.48733L102.339 0.992886C103.323 1.14083 104.302 1.3049 105.276 1.48482L105.185 1.9765C106.157 2.15608 107.123 2.35155 108.083 2.56261L108.191 2.07426C109.161 2.28742 110.125 2.5164 111.082 2.76092L110.959 3.24538C111.917 3.49002 112.869 3.75029 113.814 4.02592L113.954 3.5459C114.908 3.82393 115.855 4.11749 116.795 4.42629L116.639 4.90133C117.577 5.2093 118.508 5.53253 119.431 5.8707L119.603 5.40119C120.536 5.74295 121.462 6.09989 122.381 6.47171L122.193 6.93517C123.108 7.30572 124.016 7.69113 124.916 8.09112L125.119 7.63424C126.026 8.03738 126.924 8.45524 127.815 8.8875L127.597 9.33731C128.485 9.76851 129.365 10.2141 130.236 10.6739L130.47 10.2316C131.348 10.6948 132.217 11.1722 133.077 11.6636L132.829 12.0978C133.686 12.5871 134.534 13.0904 135.372 13.6072L135.635 13.1816C136.479 13.7023 137.315 14.2367 138.141 14.7846L137.864 15.2012C138.686 15.7468 139.499 16.3057 140.302 16.8776L140.592 16.4704C141.4 17.0461 142.197 17.6349 142.985 18.2366L142.681 18.6339C143.465 19.2328 144.239 19.8445 145.002 20.4686L145.318 20.0816C146.086 20.7097 146.843 21.3504 147.589 22.0034L147.26 22.3796C148.002 23.0291 148.733 23.6908 149.453 24.3644L149.794 23.9993C150.519 24.6769 151.231 25.3664 151.933 26.0675L151.579 26.4211C152.276 27.1183 152.962 27.8271 153.636 28.5471L154.001 28.2055C154.678 28.9295 155.343 29.6647 155.997 30.411L155.62 30.7403C156.27 31.4822 156.907 32.235 157.531 32.9985L157.918 32.6818C158.546 33.449 159.161 34.2268 159.763 35.015L159.366 35.3186C159.964 36.1017 160.55 36.895 161.122 37.6984L161.53 37.4082C162.105 38.2154 162.667 39.0325 163.215 39.8594L162.799 40.1358C163.344 40.957 163.875 41.7877 164.393 42.6277L164.818 42.3654C165.338 43.2086 165.844 44.0612 166.336 44.9227L165.902 45.1707C166.391 46.0262 166.866 46.8905 167.326 47.7636L167.768 47.5303C168.231 48.4066 168.679 49.2916 169.112 50.185L168.663 50.4033C169.093 51.2888 169.508 52.1826 169.909 53.0843L170.366 52.8812C170.768 53.786 171.156 54.6988 171.528 55.6192L171.065 55.8068C171.435 56.72 171.789 57.6408 172.129 58.5688L172.599 58.3969C172.939 59.3257 173.264 60.2617 173.574 61.2047L173.099 61.3607C173.406 62.2956 173.698 63.2373 173.974 64.1856L174.454 64.0456C174.731 64.9965 174.993 65.9539 175.239 66.9176L174.755 67.0413C174.998 67.9936 175.225 68.9522 175.437 69.9166L175.926 69.8093C176.138 70.7751 176.335 71.7468 176.515 72.7241L176.023 72.815C176.202 73.7831 176.366 74.7567 176.513 75.7355L177.007 75.6612C177.154 76.6379 177.285 77.6199 177.4 78.6067L176.903 78.6645C177.016 79.6405 177.114 80.6215 177.196 81.607L177.694 81.5658C177.776 82.5523 177.841 83.5434 177.89 84.5387L177.391 84.5634C177.439 85.5432 177.472 86.5272 177.488 87.5151L177.988 87.5069C177.996 88.0036 178 88.5013 178 89H177.5C177.5 89.4959 177.496 89.9909 177.488 90.4849L177.988 90.4931C177.971 91.4865 177.939 92.476 177.89 93.4612L177.391 93.4366C177.342 94.4264 177.277 95.412 177.196 96.393L177.694 96.4342C177.612 97.4252 177.514 98.4117 177.4 99.3933L176.903 99.3355C176.789 100.317 176.659 101.293 176.513 102.264L177.007 102.339C176.859 103.323 176.695 104.302 176.515 105.276L176.023 105.185C175.844 106.157 175.648 107.123 175.437 108.083L175.926 108.191C175.713 109.161 175.484 110.125 175.239 111.082L174.755 110.959C174.51 111.917 174.25 112.869 173.974 113.814L174.454 113.954C174.176 114.908 173.883 115.855 173.574 116.795L173.099 116.639C172.791 117.577 172.467 118.508 172.129 119.431L172.599 119.603C172.257 120.536 171.9 121.462 171.528 122.381L171.065 122.193C170.694 123.108 170.309 124.016 169.909 124.916L170.366 125.119C169.963 126.026 169.545 126.924 169.113 127.815L168.663 127.597C168.231 128.485 167.786 129.365 167.326 130.236L167.768 130.47C167.305 131.348 166.828 132.217 166.336 133.077L165.902 132.829C165.413 133.686 164.91 134.534 164.393 135.372L164.818 135.635C164.298 136.479 163.763 137.315 163.215 138.141L162.799 137.864C162.253 138.686 161.694 139.499 161.122 140.302L161.53 140.592C160.954 141.4 160.365 142.197 159.763 142.985L159.366 142.681C158.767 143.465 158.156 144.239 157.531 145.002L157.918 145.318C157.29 146.086 156.65 146.843 155.997 147.589L155.62 147.26C154.971 148.002 154.309 148.733 153.636 149.453L154.001 149.794C153.323 150.519 152.634 151.231 151.932 151.933L151.579 151.579C150.882 152.276 150.173 152.962 149.453 153.636L149.794 154.001C149.071 154.678 148.335 155.343 147.589 155.997L147.26 155.62C146.518 156.27 145.765 156.907 145.002 157.531L145.318 157.918C144.551 158.546 143.773 159.161 142.985 159.763L142.681 159.366C141.898 159.964 141.105 160.55 140.302 161.122L140.592 161.53C139.785 162.105 138.967 162.667 138.141 163.215L137.864 162.799C137.043 163.344 136.212 163.875 135.372 164.393L135.635 164.818C134.791 165.338 133.939 165.844 133.077 166.336L132.829 165.902C131.974 166.391 131.109 166.866 130.236 167.326L130.47 167.768C129.593 168.231 128.708 168.679 127.815 169.112L127.597 168.663C126.711 169.093 125.817 169.508 124.916 169.909L125.119 170.366C124.214 170.768 123.301 171.156 122.381 171.528L122.193 171.065C121.28 171.435 120.359 171.789 119.431 172.129L119.603 172.599C118.674 172.939 117.738 173.264 116.795 173.574L116.639 173.099C115.704 173.406 114.763 173.698 113.814 173.974L113.954 174.454C113.004 174.731 112.046 174.993 111.082 175.239L110.959 174.755C110.006 174.998 109.048 175.225 108.083 175.437L108.191 175.926C107.225 176.138 106.253 176.335 105.276 176.515L105.185 176.023C104.217 176.202 103.243 176.366 102.264 176.513L102.339 177.007C101.362 177.154 100.38 177.285 99.3933 177.4L99.3355 176.903C98.3595 177.016 97.3785 177.114 96.393 177.196L96.4342 177.694C95.4477 177.776 94.4566 177.841 93.4613 177.89L93.4366 177.391C92.4568 177.439 91.4728 177.472 90.4849 177.488L90.4931 177.988C89.9964 177.996 89.4987 178 89 178V177.5Z" stroke="#D5D5D5" stroke-dasharray="3"/>
<path d="M109 89.1217C109 78.0061 100.048 69 89 69C77.9516 69 69 78.0061 69 89.1217C69 99.1647 76.3137 107.489 85.875 109V94.9383H80.7944V89.1217H85.875V84.6884C85.875 79.6458 88.8589 76.8604 93.429 76.8604C95.6177 76.8604 97.9065 77.2531 97.9065 77.2531V82.2024H95.3839C92.9 82.2024 92.125 83.7538 92.125 85.3448V89.1217H97.6718L96.7847 94.9383H92.125V109C101.686 107.489 109 99.1647 109 89.1217Z" fill="#337CFF"/>
</svg>
