<svg width="285" height="209" viewBox="0 0 285 209" fill="none" xmlns="http://www.w3.org/2000/svg">
<mask id="mask0" mask-type="alpha" maskUnits="userSpaceOnUse" x="0" y="0" width="285" height="209">
<rect width="285" height="209" fill="#C4C4C4"/>
</mask>
<g mask="url(#mask0)">
<path opacity="0.42148" fill-rule="evenodd" clip-rule="evenodd" d="M142.454 201L-1 118.024L142.566 35L286 117.976L142.454 201ZM142.454 200.404L152.958 194.326L142.459 188.258L131.959 194.331L142.454 200.404ZM141.961 187.974L131.456 194.052L120.961 187.974L131.466 181.901L141.961 187.974ZM120.459 187.696L130.964 181.623L120.469 175.55L109.964 181.623L120.459 187.696ZM119.966 175.271L109.466 181.344L98.9665 175.271L109.471 169.193L119.966 175.271ZM98.469 174.978L108.969 168.92L98.4739 162.842L87.974 168.92L98.469 174.978ZM97.9765 162.568L87.457 168.622L76.9766 162.568L87.457 156.476L97.9765 162.568ZM76.4743 162.26L86.9791 156.217L76.484 150.114L65.9987 156.187L76.4743 162.26ZM75.9817 149.865L65.4769 155.899L54.9818 149.826L65.511 143.753L75.9817 149.865ZM54.4844 149.538L64.9843 143.514L54.4892 137.392L43.9844 143.47L54.4844 149.538ZM53.9869 137.162L43.487 143.177L32.987 137.108L43.4919 131.03L53.9869 137.162ZM32.4896 136.815L42.9895 130.811L32.4945 124.674L21.9945 130.747L32.4896 136.815ZM31.997 124.459L21.4922 130.537L10.9971 124.464L21.502 118.391L31.997 124.459ZM10.4948 124.185L20.9996 118.107L10.5046 112.039L-0.000237882 118.112L10.4948 124.185ZM163.961 187.974L153.456 194.048L142.961 187.974L153.466 181.901L163.961 187.974ZM142.459 187.696L152.963 181.623L142.468 175.545L131.963 181.623L142.459 187.696ZM141.966 175.271L131.466 181.344L120.966 175.271L131.471 169.193L141.966 175.271ZM120.469 174.978L130.969 168.92L120.474 162.847L109.974 168.92L120.469 174.978ZM119.976 162.568L109.471 168.646L98.9762 162.568L109.476 156.495L119.976 162.568ZM98.4739 162.29L108.979 156.217L98.4836 150.144L87.9788 156.217L98.4739 162.29ZM97.9813 149.865L87.457 155.894L76.9814 149.826L87.4863 143.748L97.9813 149.865ZM76.484 149.533L86.9839 143.514L76.5035 137.387L65.9987 143.465L76.484 149.533ZM75.9866 137.162L65.511 143.172L54.9916 137.103L65.511 131.03L75.9866 137.162ZM54.4892 136.815L64.994 130.811L54.4941 124.669L43.9942 130.742L54.4892 136.815ZM53.9967 124.459L43.4919 130.454L32.9968 124.381L43.5016 118.308L53.9967 124.459ZM32.4945 124.093L42.9993 118.107L32.5042 111.946L21.9994 118.02L32.4945 124.093ZM32.0019 111.756L21.502 117.829L11.002 111.761L21.5068 105.683L32.0019 111.756ZM164.463 187.691L174.963 181.623L164.468 175.545L153.963 181.623L164.463 187.691ZM163.966 175.271L153.466 181.349L142.971 175.271L153.471 169.198L163.966 175.271ZM142.468 174.973L152.973 168.92L142.473 162.847L131.973 168.92L142.468 174.973ZM141.976 162.568L131.471 168.641L120.976 162.568L131.481 156.495L141.976 162.568ZM120.474 162.251L130.978 156.217L120.483 150.105L109.978 156.183L120.474 162.251ZM119.981 149.865L109.476 155.938L98.9811 149.87L109.486 143.792L119.981 149.865ZM98.4836 149.587L108.984 143.514L98.4885 137.441L87.9837 143.519L98.4836 149.587ZM97.9862 137.162L87.4863 143.172L76.9912 137.099L87.4911 131.026L97.9862 137.162ZM76.4889 136.81L86.9937 130.811L76.4986 124.664L65.9987 130.737L76.4889 136.81ZM75.9963 124.459L65.511 130.449L54.9964 124.376L65.511 118.303L75.9963 124.459ZM54.4941 124.088L65.0233 118.015L54.5039 111.942L43.9991 118.02L54.4941 124.088ZM54.0259 111.663L43.5016 117.726L33.0017 111.658L43.5065 105.58L54.0259 111.663ZM32.5042 111.37L43.0285 105.312L32.5091 99.2239L22.0092 105.297L32.5042 111.37ZM185.97 175.271L175.465 181.33L164.97 175.271L175.47 169.198L185.97 175.271ZM164.473 174.993L174.978 168.92L164.473 162.847L153.973 168.92L164.473 174.993ZM163.98 162.568L153.475 168.641L142.98 162.573L153.485 156.495L163.98 162.568ZM142.478 162.29L152.983 156.217L142.488 150.144L131.983 156.222L142.478 162.29ZM141.985 149.865L131.486 155.938L120.981 149.816L131.486 143.743L141.985 149.865ZM120.488 149.592L130.988 143.514L120.493 137.445L109.988 143.519L120.488 149.592ZM119.991 137.162L109.491 143.24L98.9957 137.167L109.496 131.094L119.991 137.162ZM98.4934 136.884L108.998 130.811L98.4934 124.659L87.9935 130.732L98.4934 136.884ZM98.0008 124.459L87.496 130.532L76.9961 124.376L87.5009 118.298L98.0008 124.459ZM76.4938 124.083L87.0035 118.107L76.5035 111.937L65.9987 118.015L76.4938 124.083ZM76.0061 111.756L65.511 117.726L55.0013 111.653L65.511 105.58L76.0061 111.756ZM54.5039 111.365L65.0233 105.287L54.5087 99.219L44.0088 105.292L54.5039 111.365ZM54.0308 98.9356L43.5065 105.004L33.0114 98.9307L43.5114 92.8577L54.0308 98.9356ZM186.458 174.964L196.972 168.891L186.458 162.817L175.973 168.92L186.458 174.964ZM185.975 162.539L175.47 168.612L165 162.534L175.504 156.456L185.975 162.539ZM164.473 162.26L174.978 156.187L164.483 150.1L153.978 156.173L164.473 162.26ZM163.98 149.836L153.48 155.914L142.98 149.841L153.485 143.768L163.98 149.836ZM142.483 149.523L152.983 143.484L142.488 137.377L131.988 143.45L142.483 149.523ZM141.99 137.133L131.486 143.206L120.99 137.133L131.49 131.06L141.99 137.133ZM120.488 136.854L130.993 130.781L120.498 124.708L109.993 130.786L120.488 136.854ZM119.996 124.43L109.491 130.503L98.9957 124.435L109.501 118.357L119.996 124.43ZM98.4934 124.156L108.998 118.078L98.5032 111.937L87.9983 118.01L98.4934 124.156ZM98.0008 111.727L87.5009 117.805L77.001 111.648L87.5058 105.575L98.0008 111.727ZM76.5035 111.36L87.0035 105.375L76.4986 99.2141L65.9987 105.287L76.5035 111.36ZM76.0109 99.0235L65.511 104.999L55.0111 98.9307L65.511 92.8528L76.0109 99.0235ZM54.5087 98.6376L65.0233 92.5645L54.5185 86.4915L44.0137 92.5694L54.5087 98.6376ZM207.975 162.524L197.47 168.597L186.975 162.529L197.48 156.451L207.975 162.524ZM186.458 162.241L196.977 156.173L186.482 150.095L175.977 156.168L186.458 162.241ZM185.98 149.821L175.48 155.899L165 149.807L175.504 143.734L185.98 149.821ZM164.483 149.543L174.987 143.47L164.512 137.372L153.988 143.47L164.483 149.543ZM163.99 137.118L153.485 143.191L142.99 137.123L153.49 131.045L163.99 137.118ZM142.488 136.84L152.993 130.767L142.498 124.694L131.993 130.771L142.488 136.84ZM141.995 124.415L131.49 130.493L120.995 124.42L131.5 118.347L141.995 124.415ZM120.498 124.141L130.998 118.064L120.503 111.995L109.998 118.068L120.498 124.141ZM120 111.712L109.501 117.717L99.0055 111.644L109.505 105.571L120 111.712ZM98.5032 111.433L109.008 105.36L98.508 99.2874L88.0081 105.365L98.5032 111.433ZM98.0106 99.0089L87.5058 104.994L77.0107 98.9258L87.5155 92.8479L98.0106 99.0089ZM76.5084 98.6327L87.0132 92.6573L76.5035 86.4866L65.9987 92.5645L76.5084 98.6327ZM76.0158 86.3058L65.511 92.2763L55.0159 86.2032L65.511 80.1301L76.0158 86.3058ZM208.477 162.236L218.977 156.158L208.482 150.09L197.977 156.163L208.477 162.236ZM207.98 149.807L197.48 155.875L186.985 149.802L197.484 143.729L207.98 149.807ZM186.482 149.528L196.987 143.455L186.487 137.382L175.987 143.46L186.482 149.528ZM185.99 137.103L175.485 143.152L165 137.084L175.504 131.006L185.99 137.103ZM164.512 136.796L174.992 130.752L164.512 124.65L154.017 130.723L164.512 136.796ZM163.995 124.4L153.49 130.434L142.995 124.361L153.5 118.288L163.995 124.4ZM142.498 124.127L152.997 118.049L142.502 111.981L131.998 118.054L142.498 124.127ZM142 111.697L131.5 117.77L121.005 111.697L131.505 105.624L142 111.697ZM120.503 111.419L131.008 105.346L120.508 99.2727L110.008 105.351L120.503 111.419ZM120.01 98.9942L109.505 105.067L99.0103 98.9991L109.515 92.9212L120.01 98.9942ZM98.508 98.7206L109.013 92.6427L98.5178 86.5745L88.013 92.6476L98.508 98.7206ZM98.0155 86.2911L87.5155 92.3691L77.0156 86.1983L87.5204 80.1253L98.0155 86.2911ZM76.5181 85.9101L87.0181 79.9396L76.523 73.764L66.0231 79.837L76.5181 85.9101ZM229.979 149.797L219.479 155.87L208.984 149.802L219.484 143.724L229.979 149.797ZM208.482 149.518L218.987 143.445L208.487 137.372L197.987 143.45L208.482 149.518ZM207.989 137.094L197.484 143.172L186.989 137.099L197.494 131.026L207.989 137.094ZM186.487 136.82L196.992 130.742L186.497 124.674L175.992 130.747L186.487 136.82ZM185.995 124.391L175.495 130.469L165 124.356L175.504 118.283L185.995 124.391ZM164.512 124.068L174.997 118.039L164.512 111.922L154.017 117.995L164.512 124.068ZM164.005 111.688L153.5 117.761L143.005 111.639L153.505 105.561L164.005 111.688ZM142.502 111.409L153.007 105.336L142.512 99.2629L132.007 105.341L142.502 111.409ZM142.01 98.9845L131.505 105.062L121.01 98.9161L131.515 92.843L142.01 98.9845ZM120.508 98.7109L131.012 92.6329L120.517 86.4817L110.013 92.5547L120.508 98.7109ZM120.015 86.2814L109.515 92.3544L99.0152 86.1934L109.52 80.1204L120.015 86.2814ZM98.5178 86.0029L109.018 79.9298L98.5227 73.8568L88.0227 79.9347L98.5178 86.0029ZM98.0252 73.5783L87.5204 79.6513L77.0253 73.4757L87.5253 67.3978L98.0252 73.5783ZM230.482 149.504L240.986 143.431L230.486 137.362L219.986 143.435L230.482 149.504ZM229.989 137.079L219.484 143.157L208.989 137.074L219.494 131.001L229.989 137.079ZM208.487 136.805L218.992 130.728L208.496 124.64L197.992 130.713L208.487 136.805ZM207.994 124.376L197.494 130.449L186.994 124.352L197.499 118.278L207.994 124.376ZM186.497 124.097L196.997 118.024L186.502 111.951L176.002 118.029L186.497 124.097ZM186.004 111.673L175.499 117.746L165 111.634L175.499 105.556L186.004 111.673ZM164.512 111.346L175.007 105.321L164.512 99.1994L154.017 105.272L164.512 111.346ZM164.024 98.9063L153.519 104.984L143.024 98.9112L153.529 92.8381L164.024 98.9063ZM142.527 98.6278L153.027 92.5547L142.532 86.4817L132.027 92.5547L142.527 98.6278ZM142.029 86.2032L131.515 92.2616L121.015 86.1934L131.52 80.1155L142.029 86.2032ZM120.532 85.9247L131.032 79.8517L120.537 73.7786L110.037 79.8565L120.532 85.9247ZM120.039 73.5001L109.535 79.5732L99.0396 73.505L109.544 67.432L120.039 73.5001ZM98.5373 73.2265L109.042 67.1486L98.547 61.0804L88.0422 67.1535L98.5373 73.2265ZM251.989 137.064L241.484 143.142L230.989 137.069L241.494 130.996L251.989 137.064ZM230.486 136.786L240.991 130.713L230.496 124.64L219.991 130.713L230.486 136.786ZM229.994 124.361L219.494 130.42L208.994 124.352L219.499 118.274L229.994 124.361ZM208.496 124.083L218.996 118.01L208.501 111.937L198.001 118.015L208.496 124.083ZM208.004 111.658L197.499 117.736L187.004 111.663L197.504 105.59L208.004 111.658ZM186.502 111.385L197.007 105.307L186.511 99.2385L176.007 105.312L186.502 111.385ZM186.009 98.9551L175.504 105.028L165 98.9063L175.504 92.8332L186.009 98.9551ZM164.512 98.618L175.012 92.6036L164.512 86.4719L154.012 92.5499L164.512 98.618ZM164.014 86.2521L153.514 92.3251L143.019 86.2569L153.519 80.179L164.014 86.2521ZM142.517 85.8954L153.022 79.9005L142.522 73.7542L132.022 79.8272L142.517 85.8954ZM142.025 73.549L131.52 79.6269L121.025 73.5539L131.529 67.4808L142.025 73.549ZM120.522 73.1581L131.027 67.1974L120.532 61.012L110.027 67.0851L120.522 73.1581ZM120.03 60.8459L109.53 66.8066L99.0299 60.7335L109.535 54.6605L120.03 60.8459ZM252.491 136.776L262.991 130.703L252.496 124.63L241.991 130.708L252.491 136.776ZM251.993 124.352L241.494 130.425L230.998 124.356L241.498 118.278L251.993 124.352ZM230.496 124.058L241.001 118L230.501 111.912L220.001 117.985L230.496 124.058ZM230.004 111.648L219.499 117.726L209.004 111.653L219.509 105.58L230.004 111.648ZM208.501 111.336L219.006 105.297L208.511 99.1897L198.006 105.263L208.501 111.336ZM208.009 98.9454L197.504 105.018L187.009 98.9063L197.514 92.8284L208.009 98.9454ZM186.511 98.6131L197.011 92.5938L186.516 86.467L176.012 92.545L186.511 98.6131ZM186.014 86.2423L175.514 92.3153L165 86.1837L175.499 80.1106L186.014 86.2423ZM164.512 85.8954L175.022 79.8907L164.512 73.7493L154.017 79.8223L164.512 85.8954ZM164.024 73.5392L153.519 79.6171L143.024 73.5441L153.529 67.471L164.024 73.5392ZM142.522 73.1581L153.027 67.1877L142.532 61.0267L132.027 67.0997L142.522 73.1581ZM142.029 60.8361L131.529 66.8066L121.03 60.7384L131.534 54.6605L142.029 60.8361ZM120.532 60.455L131.032 54.4846L120.537 48.304L110.037 54.382L120.532 60.455ZM273.993 124.337L263.513 130.415L253.018 124.342L263.513 118.269L273.993 124.337ZM252.496 124.063L263.001 117.985L252.501 111.917L242.001 117.99L252.496 124.063ZM252.003 111.634L241.498 117.707L231.003 111.634L241.508 105.561L252.003 111.634ZM230.501 111.355L241.006 105.282L230.511 99.2092L220.006 105.287L230.501 111.355ZM230.008 98.9307L219.508 105.004L209.009 98.9356L219.513 92.8577L230.008 98.9307ZM208.511 98.6522L219.011 92.5792L208.516 86.511L198.011 92.5841L208.511 98.6522ZM208.019 86.2276L197.514 92.3056L187.019 86.2325L197.519 80.1595L208.019 86.2276ZM186.516 85.954L197.021 79.8761L186.526 73.7444L176.021 79.8175L186.516 85.954ZM186.024 73.5245L175.519 79.5097L165.024 73.4366L175.529 67.3636L186.024 73.5245ZM164.512 73.1581L175.026 67.173L164.512 61.0218L154.027 67.0997L164.512 73.1581ZM164.029 60.8215L153.529 66.8066L143.054 60.7384L153.558 54.6605L164.029 60.8215ZM142.532 60.455L153.032 54.4699L142.537 48.3089L132.037 54.382L142.532 60.455ZM142.039 48.1184L131.534 54.1035L121.039 48.0304L131.539 41.9574L142.039 48.1184ZM274.495 124.156L285 118.083L274.5 111.903L264 117.976L274.495 124.156ZM274.003 111.732L263.513 117.687L253.018 111.619L263.513 105.541L274.003 111.732ZM252.501 111.453L263.005 105.38L252.51 99.1799L242.006 105.258L252.501 111.453ZM252.008 99.0284L241.508 104.965L231.008 98.8965L241.513 92.8235L252.008 99.0284ZM230.511 98.7548L241.011 92.6769L230.516 86.6087L220.016 92.6818L230.511 98.7548ZM230.018 86.3253L219.513 92.4033L209.018 86.3302L219.518 80.2572L230.018 86.3253ZM208.516 86.0469L219.021 79.9738L208.526 73.9008L198.021 79.9738L208.516 86.0469ZM208.023 73.6223L197.519 79.5097L187.024 73.4415L197.528 67.3636L208.023 73.6223ZM186.526 73.1581L197.026 67.2707L186.531 61.012L176.026 67.0899L186.526 73.1581ZM186.029 60.9192L175.529 66.8066L165.029 60.7335L175.534 54.6605L186.029 60.9192ZM164.512 60.455L175.031 54.5676L164.517 48.3089L154.017 54.382L164.512 60.455ZM164.039 48.2161L153.534 54.1035L143.054 48.0109L153.558 41.9378L164.039 48.2161ZM142.537 47.9376L153.041 41.8646L142.566 35.5765L132.042 41.8694L142.537 47.9376Z" fill="url(#paint0_radial)"/>
<path opacity="0.4" d="M150.319 140.921L130.392 129.449C128.954 128.621 129.137 127.178 130.794 126.221L143.71 118.788L168.847 133.256L155.932 140.689C154.271 141.646 151.76 141.748 150.319 140.921Z" fill="#D6D8E5"/>
<path d="M151.782 140.07L131.855 128.595C130.42 127.767 130.6 126.323 132.26 125.367L145.163 117.931L170.301 132.399L157.388 139.835C155.728 140.791 153.217 140.894 151.782 140.07Z" fill="#B1B4C4"/>
<path d="M170.303 132.402V131.644L169.141 132.313L170.303 132.402Z" fill="#B1B4C4"/>
<path d="M130.875 127.227V126.456L132.067 126.949L130.875 127.227Z" fill="#B1B4C4"/>
<path d="M151.782 139.308L131.855 127.836C130.42 127.009 130.6 125.565 132.26 124.608L145.173 117.176L170.311 131.644L157.398 139.076C155.728 140.033 153.217 140.136 151.782 139.308Z" fill="#D6D8E5"/>
<path d="M145.23 117.209L142.121 106.919L167.534 121.45L170.304 131.644L145.23 117.209Z" fill="#9EA1AF"/>
<path d="M169.581 132.068L170.315 131.644L169.223 130.773L169.581 132.068Z" fill="#9EA1AF"/>
<path d="M144.428 117.596L141.316 107.307L166.733 121.838L169.566 132.068L144.428 117.596Z" fill="#B1B4C4"/>
<path d="M208.94 149.409L110.568 92.7955C109.19 92.0009 108.07 89.8688 108.07 88.0346V12.1818C108.07 10.3476 109.19 9.50336 110.568 10.2979L208.94 66.9119C210.318 67.7065 211.437 69.8354 211.437 71.6695V147.529C211.427 149.363 210.318 150.204 208.94 149.409Z" fill="#C4C7D6"/>
<path d="M209.445 150.194L210.535 149.565L210.063 146.344L209.445 150.194Z" fill="#C4C7D6"/>
<path d="M107.895 10.7647L108.967 10.1489L110.508 11.0263C110.508 11.0263 108.868 11.2746 108.828 11.2647C108.788 11.2547 107.895 10.7647 107.895 10.7647Z" fill="#B1B4C4"/>
<path d="M208.038 149.93L109.669 93.3155C108.288 92.5242 107.172 90.3921 107.172 88.5579V12.7018C107.172 10.8676 108.288 10.0234 109.669 10.818L208.038 67.432C209.42 68.2266 210.536 70.3554 210.536 72.1895V148.059C210.536 149.88 209.436 150.724 208.038 149.93Z" fill="#E4E7F2"/>
<path d="M207.866 150.045L109.497 93.4312C108.115 92.6366 106.996 90.5078 106.996 88.6736V12.8009C106.996 10.9667 108.115 10.1225 109.497 10.9171L207.866 67.5311C209.244 68.3224 210.363 70.4545 210.363 72.2887V148.145C210.363 149.979 209.244 150.823 207.866 150.045Z" fill="#D6D8E5"/>
<path d="M209.009 145.41L108.246 87.4222L108.296 13.1023C108.296 12.3441 108.834 12.0329 109.495 12.4136L207.864 69.0276C208.568 69.4883 209.012 70.2549 209.059 71.0935L209.009 145.41Z" fill="white"/>
<path opacity="0.4" d="M124.086 171.068C128.331 171.068 131.773 169.123 131.773 166.723C131.773 164.323 128.331 162.378 124.086 162.378C119.84 162.378 116.398 164.323 116.398 166.723C116.398 169.123 119.84 171.068 124.086 171.068Z" fill="#D6D8E5"/>
<path opacity="0.4" d="M59.6873 135.001C63.9328 135.001 67.3745 133.056 67.3745 130.657C67.3745 128.257 63.9328 126.312 59.6873 126.312C55.4417 126.312 52 128.257 52 130.657C52 133.056 55.4417 135.001 59.6873 135.001Z" fill="#D6D8E5"/>
<path d="M118.973 136.773C118.973 136.773 119.193 140.049 119.641 140.517C120.089 140.984 121.536 141.313 121.536 141.313L122.666 143.153C122.666 143.153 121.62 137.297 121.413 137.158C121.205 137.018 118.973 136.773 118.973 136.773Z" fill="#FFCEA9"/>
<path d="M121.144 133.135C120.576 132.874 119.9 133.076 119.573 133.606C119.159 134.289 118.728 136.627 118.688 137.028C118.688 137.028 119.269 137.827 120.145 137.691L121.144 133.135Z" fill="#EDEDED"/>
<path d="M124.487 165.821C125.1 165.988 125.755 165.909 126.311 165.602C126.753 165.602 129.139 164.607 129.463 165.453C129.747 166.199 128.715 166.889 128.163 167.021C126.956 167.31 126.064 167.907 125.579 168.016C125.218 168.089 124.751 168.139 124.463 167.857C124.119 167.516 124.149 166.265 124.487 165.821Z" fill="#38226D"/>
<path d="M125.578 167.8C126.063 167.701 126.955 167.104 128.162 166.806C128.623 166.696 129.422 166.192 129.499 165.595C129.606 166.282 128.673 166.888 128.162 167.014C126.955 167.303 126.063 167.9 125.578 168.009C125.217 168.082 124.749 168.132 124.462 167.85C124.387 167.769 124.333 167.671 124.305 167.565C124.668 167.838 125.14 167.926 125.578 167.8Z" fill="#9C73FF"/>
<path d="M120.768 164.67C121.381 164.839 122.037 164.76 122.593 164.451C123.031 164.451 125.42 163.457 125.744 164.302C126.029 165.048 124.996 165.738 124.441 165.871C123.238 166.159 122.345 166.756 121.861 166.865C121.5 166.942 121.032 166.988 120.744 166.709C120.41 166.365 120.43 165.115 120.768 164.67Z" fill="#38226D"/>
<path d="M121.863 166.65C122.348 166.55 123.24 165.953 124.444 165.655C124.908 165.542 125.704 165.038 125.78 164.441C125.887 165.128 124.955 165.738 124.444 165.861C123.24 166.149 122.348 166.746 121.863 166.855C121.502 166.932 121.034 166.978 120.747 166.7C120.672 166.618 120.618 166.519 120.59 166.411C120.952 166.687 121.425 166.776 121.863 166.65Z" fill="#9C73FF"/>
<path d="M120.505 158.009C120.608 157.129 120.792 156.261 121.054 155.415C121.054 155.415 120.89 153.177 120.81 151.055C120.716 148.644 119.874 146.525 120.539 144.602L127.932 146.234C127.932 146.234 127.574 155.85 127.474 157.02C127.42 157.925 127.309 158.826 127.14 159.716C126.796 161.583 126.428 165.741 126.428 165.741C125.636 166.196 124.476 165.821 124.476 165.821C124.476 165.821 124.476 160.598 124.52 159.255C124.583 157.597 124.633 157.74 124.633 157.74L124.386 153.655L124.225 151.622C124.225 151.622 124.015 153.114 123.891 154.447C123.774 155.608 123.49 156.659 123.176 158.821C122.902 160.698 122.618 164.521 122.618 164.521C121.826 164.979 120.759 164.664 120.759 164.664C120.759 164.664 120.288 159.637 120.505 158.009Z" fill="url(#paint1_linear)"/>
<path d="M121.54 133.175C122.108 133.205 122.542 133.351 122.606 133.175C122.668 132.884 122.712 132.59 122.736 132.293C122.669 132.127 122.613 131.962 122.613 131.962C121.897 131.524 121.67 130.755 121.577 129.859C121.416 128.331 122.245 126.994 123.789 126.835C125.236 126.683 126.303 127.694 126.59 129.08C126.74 129.766 127.048 131.07 126.633 132.187C126.403 132.817 126.105 133.318 125.811 133.414C125.524 133.406 125.237 133.38 124.952 133.338L124.825 134.034C124.772 134.306 124.792 134.452 125.34 134.783C125.888 135.115 124.511 135.805 123.612 135.738C122.713 135.672 121.707 135.135 121.429 134.558C121.119 133.908 121.149 133.159 121.54 133.175Z" fill="#FFCEA9"/>
<path d="M122.365 133.261C122.205 133.653 122.606 134.13 123.678 134.465C124.751 134.8 124.848 134.369 124.848 134.369C125.561 134.686 126.257 135.041 126.931 135.433C127.572 135.878 127.856 137.168 127.933 139.35C128.033 141.87 128.043 145.61 127.96 146.257C127.96 146.257 126.757 147.444 125.219 147.318C123.682 147.192 121.105 145.846 120.477 144.801C120.477 142.589 120.754 142.231 120.393 140.955C119.567 138.04 119.133 136.846 119.534 134.91C119.868 133.311 120.326 133.112 120.965 133.129C121.433 133.149 121.901 133.193 122.365 133.261Z" fill="#F4F4F4"/>
<path d="M126.618 148.196L125.836 139.416L127.487 138.547L128.129 139.084L127.932 146.969V147.185V147.464C127.932 147.464 127.968 148.127 126.708 148.919C126.708 148.919 126.688 148.71 126.668 148.518L126.638 148.186L126.618 148.196Z" fill="#FFCEA9"/>
<path d="M126.428 134.903C127.281 134.903 127.822 135.334 128.033 136.637C128.243 137.94 128.367 139.005 128.367 139.005C127.976 139.437 127.433 139.704 126.85 139.751C125.817 139.867 125.513 139.346 125.513 139.346C125.513 139.346 125.402 137.993 125.346 137.075C125.289 136.156 125.369 134.903 126.428 134.903Z" fill="#EDEDED"/>
<path d="M126.542 128.874C126.542 128.874 127.879 126.868 124.988 126.457C122.906 126.162 121.569 127.488 121.415 128.927C121.268 130.304 122.12 131.733 122.752 132.3C123.358 132.451 123.999 132.375 124.55 132.084C124.584 131.709 124.597 131.333 124.59 130.957C124.59 130.957 123.561 128.838 126.542 128.874Z" fill="#3A2C6D"/>
<path opacity="0.4" d="M199.432 131.972L119.811 86.1079C118.171 85.1652 116.84 82.6294 116.84 80.4454V21.9551C116.84 19.7711 118.171 18.7687 119.811 19.7147L199.432 65.5755C201.072 66.5215 202.403 69.0573 202.403 71.238V129.732C202.399 131.912 201.069 132.918 199.432 131.972Z" fill="#D6D8E5"/>
<path d="M195.42 123.95L115.799 78.0894C114.156 77.1435 112.828 74.6076 112.828 72.4236V13.9336C112.828 11.7496 114.159 10.7473 115.799 11.6932L195.42 57.5539C197.06 58.4998 198.391 61.0356 198.391 63.2196V121.71C198.391 123.894 197.06 124.896 195.42 123.95Z" fill="white"/>
<path d="M198.391 67.4874L112.828 18.4945V13.9182C112.828 11.7472 114.159 10.7508 115.799 11.6911L195.42 57.279C197.06 58.2194 198.391 60.7401 198.391 62.9111V67.4874Z" fill="url(#paint2_linear)"/>
<path d="M118.678 18.6917C119.082 18.4582 119.082 17.7008 118.677 16.9998C118.273 16.2989 117.617 15.92 117.213 16.1534C116.808 16.3869 116.809 17.1444 117.213 17.8453C117.618 18.5462 118.273 18.9252 118.678 18.6917Z" fill="white"/>
<path d="M126.966 23.3586C127.372 23.1252 127.374 22.3651 126.969 21.6609C126.564 20.9568 125.907 20.5752 125.501 20.8087C125.095 21.0422 125.094 21.8023 125.498 22.5064C125.903 23.2106 126.56 23.5921 126.966 23.3586Z" fill="white"/>
<path d="M122.674 20.9984C123.078 20.7649 123.078 20.0074 122.673 19.3065C122.269 18.6056 121.613 18.2266 121.209 18.4601C120.804 18.6935 120.805 19.451 121.209 20.152C121.614 20.8529 122.27 21.2318 122.674 20.9984Z" fill="white"/>
<path d="M124.862 74.1719L120.852 71.7904V54.7866L124.862 57.1648V74.1719Z" fill="#FCA70D"/>
<path d="M140.237 82.8619L136.227 80.4706V51.4443L140.237 53.8356V82.8619Z" fill="#FCA70D"/>
<path d="M132.214 78.8511L128.203 76.4478V53.4497L132.214 55.853V78.8511Z" fill="#1AA3F3"/>
<path d="M147.589 87.5411L143.578 85.1478V44.7598L147.589 47.1531V87.5411Z" fill="#1AA3F3"/>
<path d="M190.372 76.8457L157.617 57.6271V52.7812L190.372 71.9999V76.8457Z" fill="#E9EAF2"/>
<path d="M190.372 82.8619L157.617 63.8675V61.4712L190.372 80.4656V82.8619Z" fill="#E9EAF2"/>
<path d="M190.372 87.5411L157.617 68.5467V66.1504L190.372 85.1448V87.5411Z" fill="#E9EAF2"/>
<path d="M186.361 89.5464L157.617 73.2125V70.8296L186.361 87.1668V89.5464Z" fill="#E9EAF2"/>
<path d="M181.682 91.5518L157.617 77.2778V74.8403L181.682 89.1143V91.5518Z" fill="#E9EAF2"/>
<path d="M171.656 95.5625L161.629 89.8787V87.541L171.656 93.2216V95.5625Z" fill="#E9EAF2"/>
<path d="M160.291 88.8779L157.617 87.2063V84.8672L160.291 86.5389V88.8779Z" fill="#FCA70D"/>
<path d="M171.656 100.91L161.629 95.2287V92.8887L171.656 98.5702V100.91Z" fill="#E9EAF2"/>
<path d="M160.291 94.8941L157.617 93.2224V90.8833L160.291 92.555V94.8941Z" fill="url(#paint3_linear)"/>
<path d="M189.703 105.589L179.676 99.9056V97.5679L189.703 103.248V105.589Z" fill="#E9EAF2"/>
<path d="M178.338 99.5732L175.664 97.9016V95.5625L178.338 97.2342V99.5732Z" fill="url(#paint4_linear)"/>
<path d="M189.703 111.605L179.676 105.924V103.584L189.703 109.265V111.605Z" fill="#E9EAF2"/>
<path d="M178.338 105.589L175.664 103.92V101.579L178.338 103.252V105.589Z" fill="#FCA70D"/>
<path opacity="0.4" d="M106.018 126.98L77.4023 110.203L80.2073 108.263L108.82 125.041L106.018 126.98Z" fill="#D6D8E5"/>
<path d="M107.176 124.614L83.0526 110.82C81.405 109.878 80.0742 107.355 80.0742 105.184V66.7292C80.0742 64.5558 81.4083 63.5582 83.0526 64.4996L107.176 78.2935C108.821 79.2349 110.155 81.7585 110.155 83.9287V122.384C110.155 124.574 108.821 125.565 107.176 124.614Z" fill="#C4C7D6"/>
<path d="M107.498 125.643L109.486 124.542L107.48 121.632L107.498 125.643Z" fill="#C4C7D6"/>
<path d="M80.0742 65.1477L82.0796 64.145L82.0084 66.8189L80.0742 65.1477Z" fill="#C4C7D6"/>
<path d="M105.842 125.292L81.7153 111.491C80.0718 110.553 78.7383 108.038 78.7383 105.854V67.3979C78.7383 65.2272 80.0718 64.226 81.7153 65.1677L105.842 78.9623C107.485 79.904 108.819 82.4283 108.819 84.6024V123.059C108.806 125.22 107.472 126.231 105.842 125.292Z" fill="#D6D8E5"/>
<path d="M104.14 88.878L83.418 76.8992V70.8296L104.14 82.8051V88.878Z" fill="url(#paint5_linear)"/>
<path d="M88.7656 92.8887L83.418 89.6548V83.5303L88.7656 86.7641V92.8887Z" fill="url(#paint6_linear)"/>
<path d="M96.1172 96.8994L90.7695 93.6656V87.541L96.1172 90.7749V96.8994Z" fill="url(#paint7_linear)"/>
<path d="M103.473 100.91L98.125 97.6785V91.5518L103.473 94.7835V100.91Z" fill="url(#paint8_linear)"/>
<path d="M88.7656 101.579L83.418 98.3448V92.2202L88.7656 95.4541V101.579Z" fill="url(#paint9_linear)"/>
<path d="M96.1172 106.258L90.7695 103.024V96.8994L96.1172 100.133V106.258Z" fill="url(#paint10_linear)"/>
<path d="M103.473 110.269L98.125 107.035V100.91L103.473 104.144V110.269Z" fill="url(#paint11_linear)"/>
<path d="M88.7656 110.937L83.418 107.703V101.579L88.7656 104.812V110.937Z" fill="url(#paint12_linear)"/>
<path d="M96.1172 115.616L90.7695 112.382V106.258L96.1172 109.492V115.616Z" fill="url(#paint13_linear)"/>
<path d="M103.473 119.627L98.125 116.393V110.269L103.473 113.502V119.627Z" fill="url(#paint14_linear)"/>
<path d="M55.986 129.525C56.4865 129.933 57.2225 129.561 57.2585 129.597C57.8445 130.145 58.4593 130.66 59.1002 131.14C59.4273 131.387 59.8951 131.716 59.8068 132.187C59.6498 133.032 58.3053 132.772 57.7983 132.516C57.2912 132.259 56.8758 131.828 56.3949 131.529C56.0678 131.315 55.7145 131.2 55.6622 130.769C55.6131 130.502 55.8814 129.515 55.986 129.525Z" fill="#38226D"/>
<path d="M55.6589 130.591C55.7243 131.009 56.058 131.124 56.3982 131.335C56.8856 131.641 57.3141 132.082 57.8211 132.338C58.3281 132.595 59.4567 132.815 59.7838 132.21C59.6072 133.026 58.2824 132.769 57.7819 132.516C57.2814 132.263 56.8594 131.828 56.3785 131.529C56.0514 131.315 55.6981 131.2 55.6458 130.769C55.6421 130.709 55.6465 130.65 55.6589 130.591Z" fill="#9C73FF"/>
<path d="M60.3003 127.906C60.7975 128.314 61.6709 127.867 61.7101 127.906C62.227 128.435 62.7731 128.933 63.3457 129.4C63.6565 129.647 64.1439 129.976 64.0556 130.446C63.8986 131.292 62.5508 131.032 62.0438 130.775C61.5368 130.519 61.1213 130.088 60.6405 129.788C60.3133 129.574 59.9601 129.459 59.9077 129.028C59.8816 128.765 60.2119 127.896 60.3003 127.906Z" fill="#38226D"/>
<path d="M59.9276 128.91C59.9931 129.328 60.3267 129.443 60.6669 129.657C61.1543 129.959 61.5829 130.4 62.0899 130.644C62.5969 130.887 63.7255 131.117 64.0526 130.515C63.876 131.331 62.5511 131.075 62.0506 130.818C61.5501 130.561 61.1282 130.13 60.6473 129.831C60.3038 129.617 59.9669 129.502 59.9146 129.071C59.9125 129.017 59.9169 128.963 59.9276 128.91Z" fill="#9C73FF"/>
<path d="M55.9388 111.002C55.965 111.762 56.2005 115.056 56.3052 116.799C56.4098 118.543 56.4327 120.682 56.4327 120.682C56.4327 120.682 56.1351 121.955 55.9388 123.449C55.7425 124.942 55.9388 129.657 55.9388 129.657C56.329 129.907 56.8277 129.907 57.2178 129.657C57.2178 129.657 58.016 125.883 58.3856 124.182C58.7553 122.481 58.8207 121.504 59.0104 120.448C59.2427 119.175 59.7432 113.226 59.7432 113.226H59.946L60.4792 119.941C60.3177 120.437 60.2081 120.949 60.1521 121.468C60.0081 122.56 60.3058 128.065 60.3058 128.065C60.7402 128.307 61.2727 128.286 61.6863 128.009C61.6863 128.009 63.0209 120.718 63.0209 119.609C63.0209 118.875 62.8933 109.203 62.8933 109.203L55.9388 111.002Z" fill="url(#paint15_linear)"/>
<path d="M57.7464 96.335C57.7464 96.335 57.8314 97.98 57.7954 98.1346C57.7595 98.2893 57.0398 98.7663 56.8304 98.9407C56.6211 99.1151 57.9688 100.451 58.6231 100.754C59.2773 101.056 61.3512 100.26 61.3905 99.2335C61.4297 98.207 61.0339 97.3483 60.7166 97.3022C60.3993 97.2562 57.7464 96.335 57.7464 96.335Z" fill="#FFCEA9"/>
<path d="M62.2537 99.4045C62.3486 98.6741 61.871 97.9832 62.3355 97.4009C63.9711 99.0031 63.7519 103.237 64.1216 105.955C65.3254 107.225 67.7493 108.472 68.4297 108.781C68.554 108.84 68.662 108.9 68.6391 109.035C68.5489 109.482 68.36 109.904 68.0862 110.268C66.4834 109.571 65.3286 109.173 63.3234 107.258C63.1345 107.055 62.9648 106.835 62.8164 106.6C62.2308 104.859 62.0869 100.665 62.2537 99.4045Z" fill="#FFCEA9"/>
<path d="M57.5635 98.4209C57.5635 98.4209 58.7575 100.211 60.4226 100.378C60.9492 99.8587 60.995 98.0064 60.2688 97.4174C60.2688 97.4174 60.923 96.8746 61.3941 96.9799C61.8842 97.2783 62.2494 97.7462 62.4212 98.2959C62.8443 99.5266 63.0437 100.824 63.0101 102.126C62.9806 103.882 63.0101 109.245 63.0101 109.245C63.0101 109.245 62.7745 110.38 61.2698 111.219C59.7651 112.058 58.6529 112.147 57.6224 111.907C56.7785 111.709 56.0817 111.41 55.7906 110.795C55.8658 109.564 56.4121 106.353 56.2093 104.807C56.0065 103.261 55.6793 102.106 55.5943 100.859C55.5092 99.6119 55.7579 99.6349 56.3827 99.1875C56.7582 98.9048 57.1528 98.6487 57.5635 98.4209Z" fill="#F4F4F4"/>
<path d="M61.4683 93.8676C61.272 92.5845 60.3528 91.6106 59.0378 91.683C57.9502 91.738 57.0193 92.4863 56.7263 93.5412C56.4334 94.596 56.8438 95.7212 57.7457 96.3351C57.7921 96.5302 57.8613 96.719 57.9518 96.8977C58.4163 97.4439 59.8261 97.7828 60.2416 97.7236C60.7341 97.6796 61.1502 97.3381 61.2916 96.8616C61.7136 95.8515 61.5762 94.5026 61.4683 93.8676Z" fill="#FFCEA9"/>
<path d="M57.7464 96.3349L57.8675 95.213C57.8675 95.213 56.9646 92.8573 59.1073 93.2982C60.5269 93.6008 60.8835 93.7292 61.3153 92.7718C61.7471 91.8143 60.226 90.9523 58.417 91.1925C57.1247 91.3274 56.1506 92.4358 56.1763 93.7423C56.2253 94.4464 56.4118 95.8743 57.7464 96.3349Z" fill="#3A2C6D"/>
<path d="M55.2293 100.119C55.8541 99.9409 55.3797 100.089 55.8541 99.9409C57.4897 101.54 57.2738 104.287 57.6434 106.998C58.5397 108.489 61.873 110.509 61.873 110.509C61.9156 110.795 61.8141 110.88 61.4543 111.466C59.6021 110.75 57.9171 109.657 56.505 108.255C56.4265 108.179 56.312 108.16 56.2793 108.058C55.7003 106.327 55.0657 101.379 55.2293 100.119Z" fill="#FFCEA9"/>
<path d="M70.0358 103.461L67.6151 111.775L62.3125 113.907L64.2458 105.807L70.0358 103.461Z" fill="#F4F4F4"/>
<path d="M61.0288 110.568C61.1073 110.285 61.3134 110.354 61.5424 110.426C61.7917 110.526 62.0647 110.55 62.3275 110.495C62.5322 110.394 62.7216 110.265 62.8901 110.11C62.9971 110.047 63.119 110.013 63.2434 110.012C63.2434 110.081 63.1223 110.505 63.1223 110.505C63.1223 110.505 64.2836 110.505 64.4047 110.505C64.4888 110.487 64.5747 110.526 64.6168 110.602C64.6588 110.677 64.6471 110.772 64.5878 110.834H64.6663C64.9051 110.778 64.9935 111.147 64.7678 111.203L64.5715 111.232C64.7285 111.292 64.7678 111.561 64.5715 111.588H64.5093C64.4813 111.594 64.4523 111.594 64.4243 111.588H64.3883C64.3997 111.644 64.3876 111.703 64.3549 111.75C64.3221 111.797 64.2715 111.829 64.2149 111.838C63.6457 111.91 62.8116 112.137 62.298 111.667C61.9414 111.632 61.593 111.538 61.2676 111.387C60.9437 111.226 60.9339 110.907 61.0288 110.568Z" fill="#FFCEA9"/>
<path d="M66.8329 109.887H66.9114C66.8419 109.837 66.812 109.749 66.8373 109.667C66.8627 109.585 66.9375 109.529 67.0227 109.528C67.1437 109.528 68.3311 109.278 68.3311 109.278L68.4751 108.785C68.4751 108.755 68.6812 108.883 68.6877 108.887C68.8981 109.018 69.0377 109.238 69.0671 109.485C69.0824 109.827 68.9651 110.161 68.74 110.417C68.5241 110.634 68.2339 110.76 67.9288 110.769L67.5166 110.795C67.4597 110.799 67.4035 110.78 67.3614 110.741C67.3192 110.703 67.2949 110.648 67.2942 110.591H67.2353C67.2073 110.597 67.1783 110.597 67.1502 110.591H67.1044C66.9016 110.591 66.8853 110.334 67.0227 110.242C66.9572 110.242 66.8918 110.242 66.8264 110.242C66.568 110.269 66.5876 109.887 66.8329 109.887Z" fill="#FFCEA9"/>
<path d="M62.9287 100.49C63.2572 100.475 63.5675 100.334 63.7956 100.095C63.7498 99.4802 62.968 97.1344 61.3945 96.9731C61.8224 97.2753 62.1615 97.6879 62.3759 98.1674C62.6191 98.9263 62.8039 99.7029 62.9287 100.49Z" fill="#EDEDED"/>
<path d="M54.9491 103.573C54.9491 103.573 56.5128 104.116 57.6152 103.205C57.7362 102.994 56.9609 100.316 56.9609 100.316C56.9609 100.316 56.3067 98.9441 55.2763 99.4903C54.2458 100.036 54.9491 103.573 54.9491 103.573Z" fill="#EDEDED"/>
</g>
<defs>
<radialGradient id="paint0_radial" cx="0" cy="0" r="1" gradientUnits="userSpaceOnUse" gradientTransform="translate(142.5 114.685) rotate(-25.9003) scale(104.749 85.5823)">
<stop stop-color="#0F72CD"/>
<stop offset="1" stop-color="#EFF3F9"/>
<stop offset="1" stop-color="#F4F6FA"/>
</radialGradient>
<linearGradient id="paint1_linear" x1="120.286" y1="165.962" x2="127.932" y2="165.962" gradientUnits="userSpaceOnUse">
<stop stop-color="#0E6CC9"/>
<stop offset="1" stop-color="#1DB4FF"/>
</linearGradient>
<linearGradient id="paint2_linear" x1="112.833" y1="67.4766" x2="198.388" y2="67.4766" gradientUnits="userSpaceOnUse">
<stop stop-color="#0E6CC9"/>
<stop offset="1" stop-color="#1DB4FF"/>
</linearGradient>
<linearGradient id="paint3_linear" x1="157.617" y1="94.8933" x2="160.291" y2="94.8933" gradientUnits="userSpaceOnUse">
<stop stop-color="#0E6CC9"/>
<stop offset="1" stop-color="#1DB4FF"/>
</linearGradient>
<linearGradient id="paint4_linear" x1="175.664" y1="99.5725" x2="178.338" y2="99.5725" gradientUnits="userSpaceOnUse">
<stop stop-color="#0E6CC9"/>
<stop offset="1" stop-color="#1DB4FF"/>
</linearGradient>
<linearGradient id="paint5_linear" x1="83.4192" y1="88.8745" x2="104.14" y2="88.8745" gradientUnits="userSpaceOnUse">
<stop stop-color="#4AA5FF"/>
<stop offset="1" stop-color="#1DB4FF"/>
</linearGradient>
<linearGradient id="paint6_linear" x1="83.4183" y1="92.8869" x2="88.7655" y2="92.8869" gradientUnits="userSpaceOnUse">
<stop stop-color="#4AA5FF"/>
<stop offset="1" stop-color="#1DB4FF"/>
</linearGradient>
<linearGradient id="paint7_linear" x1="90.7699" y1="96.8976" x2="96.117" y2="96.8976" gradientUnits="userSpaceOnUse">
<stop stop-color="#4AA5FF"/>
<stop offset="1" stop-color="#1DB4FF"/>
</linearGradient>
<linearGradient id="paint8_linear" x1="98.1253" y1="100.908" x2="103.472" y2="100.908" gradientUnits="userSpaceOnUse">
<stop stop-color="#4AA5FF"/>
<stop offset="1" stop-color="#1DB4FF"/>
</linearGradient>
<linearGradient id="paint9_linear" x1="83.4183" y1="101.577" x2="88.7655" y2="101.577" gradientUnits="userSpaceOnUse">
<stop stop-color="#4AA5FF"/>
<stop offset="1" stop-color="#1DB4FF"/>
</linearGradient>
<linearGradient id="paint10_linear" x1="90.7699" y1="106.256" x2="96.117" y2="106.256" gradientUnits="userSpaceOnUse">
<stop stop-color="#4AA5FF"/>
<stop offset="1" stop-color="#1DB4FF"/>
</linearGradient>
<linearGradient id="paint11_linear" x1="98.1253" y1="110.267" x2="103.472" y2="110.267" gradientUnits="userSpaceOnUse">
<stop stop-color="#4AA5FF"/>
<stop offset="1" stop-color="#1DB4FF"/>
</linearGradient>
<linearGradient id="paint12_linear" x1="83.4183" y1="110.935" x2="88.7655" y2="110.935" gradientUnits="userSpaceOnUse">
<stop stop-color="#4AA5FF"/>
<stop offset="1" stop-color="#1DB4FF"/>
</linearGradient>
<linearGradient id="paint13_linear" x1="90.7699" y1="115.614" x2="96.117" y2="115.614" gradientUnits="userSpaceOnUse">
<stop stop-color="#4AA5FF"/>
<stop offset="1" stop-color="#1DB4FF"/>
</linearGradient>
<linearGradient id="paint14_linear" x1="98.1253" y1="119.625" x2="103.472" y2="119.625" gradientUnits="userSpaceOnUse">
<stop stop-color="#4AA5FF"/>
<stop offset="1" stop-color="#1DB4FF"/>
</linearGradient>
<linearGradient id="paint15_linear" x1="55.852" y1="129.84" x2="63.0207" y2="129.84" gradientUnits="userSpaceOnUse">
<stop stop-color="#0E6CC9"/>
<stop offset="1" stop-color="#1DB4FF"/>
</linearGradient>
</defs>
</svg>
