<svg width="30" height="30" viewBox="0 0 30 30" fill="none" xmlns="http://www.w3.org/2000/svg">
<path fill-rule="evenodd" clip-rule="evenodd" d="M15 30C23.2843 30 30 23.2843 30 15C30 6.71573 23.2843 0 15 0C6.71573 0 0 6.71573 0 15C0 23.2843 6.71573 30 15 30Z" fill="#FFF5E2"/>
<path fill-rule="evenodd" clip-rule="evenodd" d="M21.125 12.7143H8.875C8.39175 12.7143 8 12.2985 8 11.7857V9.92857C8 9.41574 8.39175 9 8.875 9H21.125C21.6082 9 22 9.41574 22 9.92857V11.7857C22 12.2985 21.6082 12.7143 21.125 12.7143ZM19.8125 10.1607C19.4501 10.1607 19.1562 10.4725 19.1562 10.8571C19.1562 11.2418 19.4501 11.5536 19.8125 11.5536C20.1749 11.5536 20.4688 11.2418 20.4688 10.8571C20.4688 10.4725 20.1749 10.1607 19.8125 10.1607ZM17.4062 10.8571C17.4062 10.4725 17.7001 10.1607 18.0625 10.1607C18.4249 10.1607 18.7188 10.4725 18.7188 10.8571C18.7188 11.2418 18.4249 11.5536 18.0625 11.5536C17.7001 11.5536 17.4062 11.2418 17.4062 10.8571ZM21.125 17.3571H8.875C8.39175 17.3571 8 16.9414 8 16.4286V14.5714C8 14.0586 8.39175 13.6429 8.875 13.6429H21.125C21.6082 13.6429 22 14.0586 22 14.5714V16.4286C22 16.9414 21.6082 17.3571 21.125 17.3571ZM19.1562 15.5C19.1562 15.1154 19.4501 14.8036 19.8125 14.8036C20.1749 14.8036 20.4688 15.1154 20.4688 15.5C20.4688 15.8846 20.1749 16.1964 19.8125 16.1964C19.4501 16.1964 19.1562 15.8846 19.1562 15.5ZM18.0625 14.8036C17.7001 14.8036 17.4062 15.1154 17.4062 15.5C17.4062 15.8846 17.7001 16.1964 18.0625 16.1964C18.4249 16.1964 18.7188 15.8846 18.7188 15.5C18.7188 15.1154 18.4249 14.8036 18.0625 14.8036ZM8.875 22H21.125C21.6082 22 22 21.5843 22 21.0714V19.2143C22 18.7015 21.6082 18.2857 21.125 18.2857H8.875C8.39175 18.2857 8 18.7015 8 19.2143V21.0714C8 21.5843 8.39175 22 8.875 22ZM19.8125 19.4464C19.4501 19.4464 19.1562 19.7582 19.1562 20.1429C19.1562 20.5275 19.4501 20.8393 19.8125 20.8393C20.1749 20.8393 20.4688 20.5275 20.4688 20.1429C20.4688 19.7582 20.1749 19.4464 19.8125 19.4464ZM17.4062 20.1429C17.4062 19.7582 17.7001 19.4464 18.0625 19.4464C18.4249 19.4464 18.7188 19.7582 18.7188 20.1429C18.7188 20.5275 18.4249 20.8393 18.0625 20.8393C17.7001 20.8393 17.4062 20.5275 17.4062 20.1429Z" fill="#FFAF15"/>
</svg>
