<svg width="803" height="285" viewBox="0 0 803 285" fill="none" xmlns="http://www.w3.org/2000/svg">
<mask id="mask0" mask-type="alpha" maskUnits="userSpaceOnUse" x="0" y="0" width="803" height="285">
<rect width="803" height="285" fill="#C4C4C4"/>
</mask>
<g mask="url(#mask0)">
<path fill-rule="evenodd" clip-rule="evenodd" d="M227.606 194.561C127.332 290.935 124.171 450.351 220.545 550.625C316.92 650.899 476.335 654.06 576.61 557.685C676.884 461.311 680.045 301.895 583.67 201.621C487.295 101.347 327.88 98.186 227.606 194.561Z" stroke="url(#paint0_radial)"/>
<path fill-rule="evenodd" clip-rule="evenodd" d="M227.606 194.561C127.332 290.935 124.171 450.351 220.545 550.625C316.92 650.899 476.335 654.06 576.61 557.685C676.884 461.311 680.045 301.895 583.67 201.621C487.295 101.347 327.88 98.186 227.606 194.561Z" stroke="url(#paint1_radial)"/>
<path fill-rule="evenodd" clip-rule="evenodd" d="M227.606 194.561C127.332 290.935 124.171 450.351 220.545 550.625C316.92 650.899 476.335 654.06 576.61 557.685C676.884 461.311 680.045 301.895 583.67 201.621C487.295 101.347 327.88 98.186 227.606 194.561Z" stroke="url(#paint2_radial)"/>
<path fill-rule="evenodd" clip-rule="evenodd" d="M227.606 194.561C127.332 290.935 124.171 450.351 220.545 550.625C316.92 650.899 476.335 654.06 576.61 557.685C676.884 461.311 680.045 301.895 583.67 201.621C487.295 101.347 327.88 98.186 227.606 194.561Z" stroke="url(#paint3_radial)"/>
<path fill-rule="evenodd" clip-rule="evenodd" d="M227.606 194.561C127.332 290.935 124.171 450.351 220.545 550.625C316.92 650.899 476.335 654.06 576.61 557.685C676.884 461.311 680.045 301.895 583.67 201.621C487.295 101.347 327.88 98.186 227.606 194.561Z" stroke="url(#paint4_radial)"/>
<path fill-rule="evenodd" clip-rule="evenodd" d="M227.606 194.561C127.332 290.935 124.171 450.351 220.545 550.625C316.92 650.899 476.335 654.06 576.61 557.685C676.884 461.311 680.045 301.895 583.67 201.621C487.295 101.347 327.88 98.186 227.606 194.561Z" stroke="url(#paint5_radial)"/>
<path fill-rule="evenodd" clip-rule="evenodd" d="M227.606 194.561C127.332 290.935 124.171 450.351 220.545 550.625C316.92 650.899 476.335 654.06 576.61 557.685C676.884 461.311 680.045 301.895 583.67 201.621C487.295 101.347 327.88 98.186 227.606 194.561Z" stroke="url(#paint6_radial)"/>
<path fill-rule="evenodd" clip-rule="evenodd" d="M227.606 194.561C127.332 290.935 124.171 450.351 220.545 550.625C316.92 650.899 476.335 654.06 576.61 557.685C676.884 461.311 680.045 301.895 583.67 201.621C487.295 101.347 327.88 98.186 227.606 194.561Z" stroke="url(#paint7_radial)"/>
<path d="M219.996 181.003C211.765 184.305 207.77 193.655 211.073 201.886C214.375 210.117 223.725 214.112 231.956 210.809C240.187 207.507 244.182 198.157 240.879 189.926C237.576 181.695 228.226 177.7 219.996 181.003Z" fill="white"/>
<path fill-rule="evenodd" clip-rule="evenodd" d="M223.802 190.486C220.809 191.687 219.356 195.087 220.557 198.08C221.758 201.073 225.158 202.526 228.151 201.325C231.144 200.124 232.597 196.724 231.396 193.731C230.195 190.738 226.795 189.285 223.802 190.486Z" stroke="#00A1E0"/>
<path d="M398.835 109.24C390.605 112.543 386.61 121.893 389.912 130.124C393.215 138.354 402.565 142.349 410.796 139.047C419.027 135.744 423.022 126.394 419.719 118.163C416.416 109.932 407.066 105.937 398.835 109.24Z" fill="white"/>
<path fill-rule="evenodd" clip-rule="evenodd" d="M402.642 118.724C399.648 119.925 398.196 123.325 399.397 126.318C400.598 129.311 403.998 130.763 406.991 129.562C409.984 128.361 411.437 124.961 410.236 121.968C409.035 118.975 405.635 117.523 402.642 118.724Z" stroke="#95BF47"/>
<path d="M576.347 185.087C568.116 188.389 564.121 197.739 567.424 205.97C570.727 214.201 580.077 218.196 588.308 214.893C596.538 211.591 600.534 202.241 597.231 194.01C593.928 185.779 584.578 181.784 576.347 185.087Z" fill="white"/>
<path fill-rule="evenodd" clip-rule="evenodd" d="M580.153 194.57C577.16 195.771 575.707 199.171 576.908 202.164C578.109 205.157 581.509 206.61 584.502 205.409C587.496 204.208 588.948 200.808 587.747 197.815C586.546 194.822 583.146 193.369 580.153 194.57Z" stroke="#36C5F0"/>
<path fill-rule="evenodd" clip-rule="evenodd" d="M263.476 30.6368C72.669 107.201 -19.9426 323.949 56.622 514.755C133.187 705.562 349.934 798.174 540.74 721.609C731.547 645.044 824.159 428.297 747.594 237.49C671.03 46.6838 454.282 -45.9278 263.476 30.6368Z" stroke="url(#paint8_radial)"/>
<path fill-rule="evenodd" clip-rule="evenodd" d="M263.476 30.6368C72.669 107.201 -19.9426 323.949 56.622 514.755C133.187 705.562 349.934 798.174 540.74 721.609C731.547 645.044 824.159 428.297 747.594 237.49C671.03 46.6838 454.282 -45.9278 263.476 30.6368Z" stroke="url(#paint9_radial)"/>
<path fill-rule="evenodd" clip-rule="evenodd" d="M263.476 30.6368C72.669 107.201 -19.9426 323.949 56.622 514.755C133.187 705.562 349.934 798.174 540.74 721.609C731.547 645.044 824.159 428.297 747.594 237.49C671.03 46.6838 454.282 -45.9278 263.476 30.6368Z" stroke="url(#paint10_radial)"/>
<path fill-rule="evenodd" clip-rule="evenodd" d="M263.476 30.6368C72.669 107.201 -19.9426 323.949 56.622 514.755C133.187 705.562 349.934 798.174 540.74 721.609C731.547 645.044 824.159 428.297 747.594 237.49C671.03 46.6838 454.282 -45.9278 263.476 30.6368Z" stroke="url(#paint11_radial)"/>
<path fill-rule="evenodd" clip-rule="evenodd" d="M263.476 30.6368C72.669 107.201 -19.9426 323.949 56.622 514.755C133.187 705.562 349.934 798.174 540.74 721.609C731.547 645.044 824.159 428.297 747.594 237.49C671.03 46.6838 454.282 -45.9278 263.476 30.6368Z" stroke="url(#paint12_radial)"/>
<path fill-rule="evenodd" clip-rule="evenodd" d="M263.476 30.6368C72.669 107.201 -19.9426 323.949 56.622 514.755C133.187 705.562 349.934 798.174 540.74 721.609C731.547 645.044 824.159 428.297 747.594 237.49C671.03 46.6838 454.282 -45.9278 263.476 30.6368Z" stroke="url(#paint13_radial)"/>
<path fill-rule="evenodd" clip-rule="evenodd" d="M263.476 30.6368C72.669 107.201 -19.9426 323.949 56.622 514.755C133.187 705.562 349.934 798.174 540.74 721.609C731.547 645.044 824.159 428.297 747.594 237.49C671.03 46.6838 454.282 -45.9278 263.476 30.6368Z" stroke="url(#paint14_radial)"/>
<path fill-rule="evenodd" clip-rule="evenodd" d="M263.476 30.6368C72.669 107.201 -19.9426 323.949 56.622 514.755C133.187 705.562 349.934 798.174 540.74 721.609C731.547 645.044 824.159 428.297 747.594 237.49C671.03 46.6838 454.282 -45.9278 263.476 30.6368Z" stroke="url(#paint15_radial)"/>
<path d="M257.496 15.7341C249.265 19.0369 245.27 28.3868 248.573 36.6177C251.875 44.8485 261.225 48.8436 269.456 45.5408C277.687 42.238 281.682 32.8881 278.379 24.6572C275.076 16.4263 265.726 12.4313 257.496 15.7341Z" fill="white"/>
<path fill-rule="evenodd" clip-rule="evenodd" d="M261.302 25.2177C258.309 26.4187 256.856 29.8187 258.057 32.8117C259.258 35.8047 262.658 37.2575 265.651 36.0565C268.644 34.8554 270.097 31.4555 268.896 28.4624C267.695 25.4694 264.295 24.0167 261.302 25.2177Z" stroke="#3BB44A"/>
<path d="M542.55 18.5398C534.319 21.8426 530.324 31.1925 533.627 39.4233C536.93 47.6542 546.28 51.6492 554.511 48.3464C562.742 45.0436 566.737 35.6938 563.434 27.4629C560.131 19.232 550.781 15.237 542.55 18.5398Z" fill="white"/>
<path fill-rule="evenodd" clip-rule="evenodd" d="M546.356 28.0233C543.363 29.2244 541.911 32.6243 543.112 35.6174C544.313 38.6104 547.713 40.0631 550.706 38.8621C553.699 37.6611 555.151 34.2612 553.95 31.2681C552.749 28.2751 549.349 26.8223 546.356 28.0233Z" stroke="#4267B2"/>
<path d="M741.617 222.588C733.386 225.89 729.391 235.24 732.694 243.471C735.996 251.702 745.346 255.697 753.577 252.394C761.808 249.091 765.803 239.742 762.5 231.511C759.197 223.28 749.848 219.285 741.617 222.588Z" fill="white"/>
<path fill-rule="evenodd" clip-rule="evenodd" d="M745.423 232.071C742.43 233.272 740.977 236.672 742.178 239.665C743.379 242.658 746.779 244.111 749.772 242.91C752.765 241.709 754.218 238.309 753.017 235.316C751.816 232.323 748.416 230.87 745.423 232.071Z" stroke="#FF6C36"/>
<path d="M53.4487 214.8C45.2179 218.102 41.2229 227.452 44.5256 235.683C47.8284 243.914 57.1783 247.909 65.4092 244.606C73.6401 241.303 77.6351 231.954 74.3323 223.723C71.0295 215.492 61.6796 211.497 53.4487 214.8Z" fill="white"/>
<path fill-rule="evenodd" clip-rule="evenodd" d="M57.2548 224.283C54.2617 225.484 52.809 228.884 54.01 231.877C55.211 234.87 58.611 236.323 61.604 235.122C64.5971 233.921 66.0498 230.521 64.8488 227.528C63.6478 224.535 60.2478 223.082 57.2548 224.283Z" stroke="#8D6FC9"/>
<path d="M785.621 235.313C785.696 235.58 785.63 235.867 785.446 236.073C785.468 236.408 785.693 236.704 786.013 236.799C786.239 236.496 786.228 236.059 785.967 235.785C786.26 236.112 785.688 235.46 785.967 235.785L785.621 235.313Z" fill="#FF6C36"/>
<rect width="1440" height="117" transform="matrix(1 0 0 -1 -313 296)" fill="url(#paint16_linear)"/>
</g>
<defs>
<radialGradient id="paint0_radial" cx="0" cy="0" r="1" gradientUnits="userSpaceOnUse" gradientTransform="translate(402.108 376.123) rotate(-43.864) scale(251.825)">
<stop stop-color="white" stop-opacity="0.01"/>
<stop offset="1" stop-color="#36C5F0"/>
</radialGradient>
<radialGradient id="paint1_radial" cx="0" cy="0" r="1" gradientUnits="userSpaceOnUse" gradientTransform="translate(658.39 376.007) rotate(179.136) scale(252.523)">
<stop stop-color="#6772E5"/>
<stop offset="1" stop-color="white" stop-opacity="0.01"/>
</radialGradient>
<radialGradient id="paint2_radial" cx="0" cy="0" r="1" gradientUnits="userSpaceOnUse" gradientTransform="translate(576.61 557.685) rotate(-133.864) scale(251.825)">
<stop stop-color="#C73A63"/>
<stop offset="1" stop-color="white" stop-opacity="0.01"/>
</radialGradient>
<radialGradient id="paint3_radial" cx="0" cy="0" r="1" gradientUnits="userSpaceOnUse" gradientTransform="translate(396.61 629.098) rotate(-88.864) scale(251.393)">
<stop stop-color="#221F20"/>
<stop offset="1" stop-color="white" stop-opacity="0.01"/>
</radialGradient>
<radialGradient id="paint4_radial" cx="0" cy="0" r="1" gradientUnits="userSpaceOnUse" gradientTransform="translate(220.545 550.625) rotate(-43.864) scale(251.825)">
<stop stop-color="#336791"/>
<stop offset="1" stop-color="white" stop-opacity="0.01"/>
</radialGradient>
<radialGradient id="paint5_radial" cx="0" cy="0" r="1" gradientUnits="userSpaceOnUse" gradientTransform="translate(152.03 371.896) rotate(1.136) scale(250.342)">
<stop stop-color="#FFC515"/>
<stop offset="1" stop-color="white" stop-opacity="0.01"/>
</radialGradient>
<radialGradient id="paint6_radial" cx="0" cy="0" r="1" gradientUnits="userSpaceOnUse" gradientTransform="translate(227.606 194.561) rotate(46.136) scale(251.825)">
<stop stop-color="#00A1E0"/>
<stop offset="1" stop-color="white" stop-opacity="0.01"/>
</radialGradient>
<radialGradient id="paint7_radial" cx="0" cy="0" r="1" gradientUnits="userSpaceOnUse" gradientTransform="translate(407.246 122.574) rotate(91.136) scale(253.484)">
<stop stop-color="#95BF47"/>
<stop offset="1" stop-color="white" stop-opacity="0.01"/>
</radialGradient>
<radialGradient id="paint8_radial" cx="0" cy="0" r="1" gradientUnits="userSpaceOnUse" gradientTransform="translate(402.108 376.123) rotate(-21.864) scale(372.263)">
<stop stop-color="white"/>
<stop offset="1" stop-color="#F38020"/>
</radialGradient>
<radialGradient id="paint9_radial" cx="0" cy="0" r="1" gradientUnits="userSpaceOnUse" gradientTransform="translate(750.805 515.724) rotate(-158.864) scale(373.296)">
<stop stop-color="#C12126"/>
<stop offset="1" stop-color="white" stop-opacity="0.01"/>
</radialGradient>
<radialGradient id="paint10_radial" cx="0" cy="0" r="1" gradientUnits="userSpaceOnUse" gradientTransform="translate(540.74 721.609) rotate(-111.864) scale(372.263)">
<stop stop-color="#F38020"/>
<stop offset="1" stop-color="white" stop-opacity="0.01"/>
</radialGradient>
<radialGradient id="paint11_radial" cx="0" cy="0" r="1" gradientUnits="userSpaceOnUse" gradientTransform="translate(255.242 718.731) rotate(-66.864) scale(371.624)">
<stop stop-color="#221F20"/>
<stop offset="1" stop-color="white" stop-opacity="0.01"/>
</radialGradient>
<radialGradient id="paint12_radial" cx="0" cy="0" r="1" gradientUnits="userSpaceOnUse" gradientTransform="translate(56.622 514.755) rotate(-21.864) scale(372.263)">
<stop stop-color="#009BDE"/>
<stop offset="1" stop-color="white" stop-opacity="0.01"/>
</radialGradient>
<radialGradient id="paint13_radial" cx="0" cy="0" r="1" gradientUnits="userSpaceOnUse" gradientTransform="translate(61.758 230.092) rotate(23.136) scale(370.07)">
<stop stop-color="#8D6FC9"/>
<stop offset="1" stop-color="white" stop-opacity="0.01"/>
</radialGradient>
<radialGradient id="paint14_radial" cx="0" cy="0" r="1" gradientUnits="userSpaceOnUse" gradientTransform="translate(263.476 30.6368) rotate(68.136) scale(372.263)">
<stop stop-color="#3BB44A"/>
<stop offset="1" stop-color="white" stop-opacity="0.01"/>
</radialGradient>
<radialGradient id="paint15_radial" cx="0" cy="0" r="1" gradientUnits="userSpaceOnUse" gradientTransform="translate(549.31 31.6862) rotate(113.136) scale(374.715)">
<stop stop-color="#4267B2"/>
<stop offset="1" stop-color="white" stop-opacity="0.01"/>
</radialGradient>
<linearGradient id="paint16_linear" x1="143.591" y1="23.3336" x2="143.591" y2="117" gradientUnits="userSpaceOnUse">
<stop stop-color="white"/>
<stop offset="1" stop-color="white" stop-opacity="0.01"/>
</linearGradient>
</defs>
</svg>
