<svg width="30" height="30" viewBox="0 0 30 30" fill="none" xmlns="http://www.w3.org/2000/svg">
<path fill-rule="evenodd" clip-rule="evenodd" d="M15 30C23.2843 30 30 23.2843 30 15C30 6.71573 23.2843 0 15 0C6.71573 0 0 6.71573 0 15C0 23.2843 6.71573 30 15 30Z" fill="#FFF5E2"/>
<path fill-rule="evenodd" clip-rule="evenodd" d="M11.0312 12.3571H20.7102C21.4216 12.3571 22 12.8858 22 13.5357V19.8214C22 20.4714 21.4216 21 20.7102 21H10.625C9.72744 21 9 20.2965 9 19.4286V11.5714C9 10.7035 9.72744 10 10.625 10H19.9688C20.6419 10 21.1875 10.5277 21.1875 11.1786C21.1875 11.3956 21.0057 11.5714 20.7812 11.5714H11.0312C10.8068 11.5714 10.625 11.7472 10.625 11.9643C10.625 12.1813 10.8068 12.3571 11.0312 12.3571ZM18.75 16.6786C18.75 17.1124 19.1138 17.4643 19.5625 17.4643C20.0112 17.4643 20.375 17.1124 20.375 16.6786C20.375 16.2447 20.0112 15.8929 19.5625 15.8929C19.1138 15.8929 18.75 16.2447 18.75 16.6786Z" fill="#FFAF15"/>
</svg>
