<svg width="162" height="162" viewBox="0 0 162 162" fill="none" xmlns="http://www.w3.org/2000/svg">
<path fill-rule="evenodd" clip-rule="evenodd" d="M81 141C114.137 141 141 114.137 141 81C141 47.8629 114.137 21 81 21C47.8629 21 21 47.8629 21 81C21 114.137 47.8629 141 81 141Z" fill="#E5EEFF"/>
<path d="M81 161.5C80.4952 161.5 79.9915 161.495 79.4889 161.486L79.4797 161.986C78.4671 161.967 77.459 161.93 76.4558 161.875L76.4834 161.375C75.477 161.32 74.4755 161.246 73.4793 161.153L73.4332 161.651C72.4235 161.558 71.4192 161.446 70.4206 161.315L70.4853 160.82C69.4872 160.689 68.4948 160.541 67.5085 160.374L67.4253 160.867C66.4274 160.699 65.4357 160.512 64.4505 160.308L64.5522 159.818C63.5664 159.614 62.5872 159.391 61.6149 159.151L61.4949 159.636C60.5118 159.393 59.5358 159.132 58.5672 158.853L58.7054 158.373C57.739 158.095 56.78 157.799 55.8288 157.487L55.6726 157.962C54.7118 157.646 53.7589 157.312 52.8144 156.961L52.9884 156.493C52.0457 156.143 51.1114 155.776 50.1857 155.392L49.9942 155.854C49.0596 155.466 48.1339 155.062 47.2174 154.64L47.4261 154.186C46.513 153.767 45.609 153.33 44.7146 152.878L44.4889 153.324C43.5869 152.868 42.6945 152.395 41.8123 151.907L42.0545 151.469C41.1757 150.982 40.307 150.48 39.4488 149.961L39.1903 150.39C38.3249 149.867 37.47 149.329 36.6261 148.775L36.9004 148.357C36.0606 147.806 35.2317 147.24 34.4141 146.659L34.1245 147.066C33.3009 146.481 32.4888 145.88 31.6885 145.265L31.9931 144.869C31.197 144.257 30.4127 143.631 29.6405 142.99L29.3213 143.375C28.5437 142.73 27.7784 142.071 27.0257 141.398L27.359 141.025C26.6107 140.356 25.875 139.673 25.1523 138.977L24.8054 139.337C24.0781 138.636 23.3639 137.922 22.6632 137.195L23.0233 136.848C22.3269 136.125 21.644 135.389 20.9748 134.641L20.6021 134.974C19.929 134.222 19.2698 133.456 18.6248 132.679L19.0097 132.359C18.3692 131.587 17.7429 130.803 17.1311 130.007L16.7346 130.312C16.1196 129.511 15.5193 128.699 14.9339 127.876L15.3414 127.586C14.7603 126.768 14.194 125.939 13.6431 125.1L13.225 125.374C12.6714 124.53 12.1331 123.675 11.6105 122.81L12.0385 122.551C11.5203 121.693 11.0176 120.824 10.5309 119.946L10.0935 120.188C9.60486 119.305 9.13221 118.413 8.67594 117.511L9.12211 117.285C8.6697 116.391 8.23351 115.487 7.8139 114.574L7.35957 114.783C6.93842 113.866 6.53388 112.94 6.14634 112.006L6.6082 111.814C6.22435 110.889 5.85727 109.954 5.50735 109.012L5.0386 109.186C4.688 108.241 4.35451 107.288 4.03851 106.327L4.51348 106.171C4.20063 105.22 3.90504 104.261 3.62706 103.295L3.14654 103.433C2.86796 102.464 2.60696 101.488 2.36392 100.505L2.84931 100.385C2.60896 99.4129 2.38627 98.4337 2.18161 97.4479L1.69205 97.5495C1.48752 96.5644 1.30089 95.5726 1.13251 94.5747L1.62554 94.4915C1.45912 93.5053 1.31064 92.5129 1.18044 91.5147L0.684641 91.5794C0.554385 90.5808 0.442317 89.5765 0.348779 88.5669L0.846647 88.5207C0.754356 87.5245 0.680216 86.5231 0.62456 85.5166L0.125323 85.5443C0.0698445 84.541 0.0326222 83.533 0.0139823 82.5203L0.513898 82.5111C0.504646 82.0085 0.5 81.5048 0.5 81C0.5 80.4952 0.504646 79.9915 0.513897 79.4889L0.0139813 79.4797C0.0326205 78.4671 0.0698422 77.459 0.12532 76.4558L0.624557 76.4834C0.680212 75.477 0.754352 74.4755 0.846642 73.4793L0.348774 73.4332C0.442312 72.4235 0.55438 71.4192 0.684635 70.4206L1.18043 70.4853C1.31063 69.4872 1.45912 68.4948 1.62553 67.5085L1.1325 67.4253C1.30088 66.4274 1.48751 65.4357 1.69204 64.4505L2.1816 64.5522C2.38626 63.5664 2.60895 62.5872 2.8493 61.6149L2.36391 61.4949C2.60695 60.5118 2.86795 59.5358 3.14653 58.5672L3.62705 58.7054C3.90503 57.739 4.20062 56.78 4.51347 55.8288L4.0385 55.6726C4.3545 54.7118 4.68799 53.7589 5.03859 52.8144L5.50734 52.9884C5.85726 52.0457 6.22434 51.1114 6.60819 50.1857L6.14632 49.9942C6.53387 49.0596 6.93841 48.1339 7.35956 47.2174L7.81389 47.4261C8.2335 46.513 8.66969 45.609 9.1221 44.7146L8.67593 44.4889C9.1322 43.5869 9.60486 42.6945 10.0935 41.8122L10.5309 42.0545C11.0176 41.1757 11.5203 40.307 12.0385 39.4488L11.6105 39.1903C12.1331 38.3249 12.6714 37.47 13.225 36.6261L13.6431 36.9004C14.194 36.0606 14.7603 35.2317 15.3414 34.4141L14.9339 34.1244C15.5193 33.3009 16.1196 32.4888 16.7347 31.6885L17.1311 31.9931C17.7429 31.197 18.3692 30.4127 19.0097 29.6405L18.6249 29.3213C19.2698 28.5437 19.929 27.7784 20.6021 27.0257L20.9748 27.359C21.644 26.6107 22.327 25.875 23.0233 25.1523L22.6632 24.8054C23.3639 24.0781 24.0781 23.3639 24.8054 22.6632L25.1523 23.0233C25.875 22.3269 26.6107 21.644 27.359 20.9748L27.0257 20.6021C27.7784 19.929 28.5437 19.2698 29.3213 18.6248L29.6405 19.0097C30.4127 18.3692 31.197 17.7429 31.9931 17.1311L31.6885 16.7346C32.4888 16.1196 33.3009 15.5193 34.1245 14.9339L34.4141 15.3414C35.2317 14.7603 36.0606 14.194 36.9004 13.6431L36.6261 13.225C37.47 12.6714 38.3249 12.1331 39.1903 11.6105L39.4488 12.0385C40.307 11.5203 41.1757 11.0176 42.0545 10.5309L41.8122 10.0935C42.6945 9.60486 43.5869 9.13221 44.4889 8.67594L44.7146 9.12211C45.609 8.6697 46.5129 8.23351 47.4261 7.8139L47.2173 7.35957C48.1339 6.93842 49.0596 6.53388 49.9942 6.14633L50.1857 6.6082C51.1113 6.22435 52.0457 5.85727 52.9884 5.50735L52.8144 5.0386C53.7589 4.688 54.7117 4.35451 55.6725 4.03851L55.8287 4.51348C56.7799 4.20063 57.7389 3.90504 58.7054 3.62706L58.5672 3.14654C59.5358 2.86796 60.5118 2.60697 61.4949 2.36392L61.6149 2.84931C62.5871 2.60896 63.5663 2.38627 64.5521 2.18161L64.4505 1.69205C65.4356 1.48752 66.4274 1.30089 67.4253 1.13251L67.5085 1.62554C68.4947 1.45912 69.4871 1.31064 70.4853 1.18044L70.4206 0.684641C71.4192 0.554385 72.4235 0.442317 73.4331 0.348779L73.4793 0.846647C74.4755 0.754356 75.4769 0.680216 76.4834 0.62456L76.4557 0.125323C77.459 0.0698445 78.467 0.0326222 79.4797 0.0139823L79.4889 0.513898C79.9915 0.504646 80.4952 0.5 81 0.5C81.5048 0.5 82.0085 0.504646 82.5111 0.513897L82.5203 0.0139813C83.5329 0.0326205 84.541 0.0698422 85.5442 0.12532L85.5166 0.624557C86.523 0.680212 87.5245 0.754352 88.5207 0.846642L88.5668 0.348774C89.5765 0.442312 90.5808 0.55438 91.5794 0.684636L91.5147 1.18044C92.5128 1.31063 93.5052 1.45912 94.4915 1.62553L94.5747 1.1325C95.5726 1.30088 96.5643 1.48751 97.5495 1.69204L97.4478 2.1816C98.4336 2.38626 99.4128 2.60895 100.385 2.8493L100.505 2.36391C101.488 2.60695 102.464 2.86795 103.433 3.14653L103.295 3.62705C104.261 3.90503 105.22 4.20062 106.171 4.51347L106.327 4.0385C107.288 4.3545 108.241 4.68799 109.186 5.03859L109.012 5.50734C109.954 5.85726 110.889 6.22434 111.814 6.60819L112.006 6.14632C112.94 6.53387 113.866 6.93841 114.783 7.35956L114.574 7.81389C115.487 8.2335 116.391 8.66969 117.285 9.1221L117.511 8.67593C118.413 9.1322 119.305 9.60486 120.188 10.0935L119.945 10.5309C120.824 11.0176 121.693 11.5203 122.551 12.0385L122.81 11.6105C123.675 12.1331 124.53 12.6714 125.374 13.225L125.1 13.6431C125.939 14.194 126.768 14.7603 127.586 15.3414L127.876 14.9339C128.699 15.5193 129.511 16.1196 130.312 16.7346L130.007 17.1311C130.803 17.7429 131.587 18.3692 132.359 19.0097L132.679 18.6249C133.456 19.2698 134.222 19.929 134.974 20.6021L134.641 20.9748C135.389 21.644 136.125 22.327 136.848 23.0233L137.195 22.6632C137.922 23.364 138.636 24.0781 139.337 24.8054L138.977 25.1523C139.673 25.875 140.356 26.6107 141.025 27.359L141.398 27.0257C142.071 27.7784 142.73 28.5437 143.375 29.3213L142.99 29.6405C143.631 30.4127 144.257 31.197 144.869 31.9931L145.265 31.6885C145.88 32.4888 146.481 33.3009 147.066 34.1245L146.659 34.4141C147.24 35.2317 147.806 36.0606 148.357 36.9004L148.775 36.6261C149.329 37.47 149.867 38.3249 150.389 39.1903L149.961 39.4488C150.48 40.307 150.982 41.1757 151.469 42.0545L151.906 41.8122C152.395 42.6945 152.868 43.5869 153.324 44.4889L152.878 44.7146C153.33 45.609 153.766 46.5129 154.186 47.4261L154.64 47.2173C155.062 48.1339 155.466 49.0596 155.854 49.9942L155.392 50.1857C155.776 51.1113 156.143 52.0457 156.493 52.9884L156.961 52.8144C157.312 53.7589 157.645 54.7117 157.961 55.6725L157.487 55.8287C157.799 56.7799 158.095 57.7389 158.373 58.7054L158.853 58.5672C159.132 59.5358 159.393 60.5118 159.636 61.4949L159.151 61.6149C159.391 62.5871 159.614 63.5663 159.818 64.5521L160.308 64.4505C160.512 65.4356 160.699 66.4274 160.867 67.4253L160.374 67.5085C160.541 68.4947 160.689 69.4871 160.82 70.4853L161.315 70.4206C161.446 71.4192 161.558 72.4235 161.651 73.4331L161.153 73.4793C161.246 74.4755 161.32 75.4769 161.375 76.4834L161.875 76.4558C161.93 77.459 161.967 78.467 161.986 79.4797L161.486 79.4889C161.495 79.9915 161.5 80.4952 161.5 81C161.5 81.5048 161.495 82.0085 161.486 82.5111L161.986 82.5203C161.967 83.5329 161.93 84.541 161.875 85.5442L161.375 85.5166C161.32 86.523 161.246 87.5245 161.153 88.5207L161.651 88.5668C161.558 89.5765 161.446 90.5808 161.315 91.5794L160.82 91.5147C160.689 92.5128 160.541 93.5052 160.374 94.4915L160.867 94.5747C160.699 95.5726 160.512 96.5643 160.308 97.5495L159.818 97.4478C159.614 98.4336 159.391 99.4128 159.151 100.385L159.636 100.505C159.393 101.488 159.132 102.464 158.853 103.433L158.373 103.295C158.095 104.261 157.799 105.22 157.487 106.171L157.962 106.327C157.646 107.288 157.312 108.241 156.961 109.186L156.493 109.012C156.143 109.954 155.776 110.889 155.392 111.814L155.854 112.006C155.466 112.94 155.062 113.866 154.64 114.783L154.186 114.574C153.766 115.487 153.33 116.391 152.878 117.285L153.324 117.511C152.868 118.413 152.395 119.305 151.906 120.188L151.469 119.945C150.982 120.824 150.48 121.693 149.961 122.551L150.389 122.81C149.867 123.675 149.329 124.53 148.775 125.374L148.357 125.1C147.806 125.939 147.24 126.768 146.659 127.586L147.066 127.876C146.481 128.699 145.88 129.511 145.265 130.312L144.869 130.007C144.257 130.803 143.631 131.587 142.99 132.359L143.375 132.679C142.73 133.456 142.071 134.222 141.398 134.974L141.025 134.641C140.356 135.389 139.673 136.125 138.977 136.848L139.337 137.195C138.636 137.922 137.922 138.636 137.195 139.337L136.848 138.977C136.125 139.673 135.389 140.356 134.641 141.025L134.974 141.398C134.222 142.071 133.456 142.73 132.679 143.375L132.359 142.99C131.587 143.631 130.803 144.257 130.007 144.869L130.312 145.265C129.511 145.88 128.699 146.481 127.876 147.066L127.586 146.659C126.768 147.24 125.939 147.806 125.1 148.357L125.374 148.775C124.53 149.329 123.675 149.867 122.81 150.389L122.551 149.961C121.693 150.48 120.824 150.982 119.946 151.469L120.188 151.906C119.305 152.395 118.413 152.868 117.511 153.324L117.285 152.878C116.391 153.33 115.487 153.766 114.574 154.186L114.783 154.64C113.866 155.062 112.94 155.466 112.006 155.854L111.814 155.392C110.889 155.776 109.954 156.143 109.012 156.493L109.186 156.961C108.241 157.312 107.288 157.645 106.327 157.961L106.171 157.487C105.22 157.799 104.261 158.095 103.295 158.373L103.433 158.853C102.464 159.132 101.488 159.393 100.505 159.636L100.385 159.151C99.4129 159.391 98.4337 159.614 97.4479 159.818L97.5495 160.308C96.5644 160.512 95.5726 160.699 94.5747 160.867L94.4915 160.374C93.5053 160.541 92.5129 160.689 91.5147 160.82L91.5794 161.315C90.5808 161.446 89.5765 161.558 88.5669 161.651L88.5207 161.153C87.5245 161.246 86.5231 161.32 85.5166 161.375L85.5442 161.875C84.541 161.93 83.533 161.967 82.5203 161.986L82.5111 161.486C82.0085 161.495 81.5048 161.5 81 161.5Z" stroke="#D5D5D5" stroke-dasharray="3"/>
<path d="M103.459 73.4701C103.492 73.892 103.492 74.3139 103.492 74.7358C103.492 87.6029 92.6659 102.429 72.8784 102.429C66.7822 102.429 61.1191 100.832 56.3555 98.0595C57.2216 98.1498 58.0543 98.18 58.9538 98.18C63.9839 98.18 68.6144 96.6432 72.312 94.0215C67.5817 93.9311 63.6175 91.1286 62.2517 87.2715C62.918 87.3618 63.5842 87.4221 64.2838 87.4221C65.2498 87.4221 66.216 87.3015 67.1153 87.0907C62.1851 86.1866 58.4874 82.2692 58.4874 77.5382V77.4177C59.9197 78.1409 61.5855 78.5929 63.3509 78.6531C60.4527 76.9053 58.554 73.9221 58.554 70.5471C58.554 68.7391 59.0869 67.0817 60.0197 65.6353C65.3164 71.5415 73.2781 75.3986 82.2057 75.8205C82.0391 75.0973 81.9392 74.3441 81.9392 73.5907C81.9392 68.2268 86.7362 63.8574 92.699 63.8574C95.7971 63.8574 98.5953 65.0326 100.561 66.9311C102.992 66.5092 105.324 65.6956 107.39 64.5806C106.59 66.8407 104.891 68.7392 102.659 69.9444C104.825 69.7336 106.923 69.1911 108.855 68.4378C107.39 70.3663 105.558 72.0839 103.459 73.4701Z" fill="#5793FF"/>
</svg>
