<svg width="100" height="100" viewBox="0 0 100 100" fill="none" xmlns="http://www.w3.org/2000/svg">
<path fill-rule="evenodd" clip-rule="evenodd" d="M50 100C77.6142 100 100 77.6142 100 50C100 22.3858 77.6142 0 50 0C22.3858 0 0 22.3858 0 50C0 77.6142 22.3858 100 50 100Z" fill="#E5EEFF"/>
<path d="M51.4692 32.3525C40.9097 32.3525 32.3516 39.6871 32.3516 48.7391C32.3516 52.6467 33.9497 56.2233 36.6082 59.0358C35.6747 63.0064 32.5532 66.5437 32.5159 66.5831C32.3516 66.7643 32.3068 67.0322 32.4038 67.2685C32.5009 67.5048 32.71 67.6467 32.949 67.6467C37.9002 67.6467 41.6117 65.1414 43.4488 63.5973C45.8907 64.5663 48.6016 65.1256 51.4692 65.1256C62.0287 65.1256 70.5869 57.7911 70.5869 48.7391C70.5869 39.6871 62.0287 32.3525 51.4692 32.3525Z" fill="#3187EF"/>
</svg>
