<svg width="122" height="122" viewBox="0 0 122 122" fill="none" xmlns="http://www.w3.org/2000/svg">
<path opacity="0.143531" fill-rule="evenodd" clip-rule="evenodd" d="M61 111C88.6142 111 111 88.6142 111 61C111 33.3858 88.6142 11 61 11C33.3858 11 11 33.3858 11 61C11 88.6142 33.3858 111 61 111Z" fill="#EA942F"/>
<path d="M61 121.5C60.502 121.5 60.0055 121.494 59.5104 121.482L59.4984 121.982C58.4954 121.958 57.4984 121.909 56.5079 121.837L56.5442 121.338C55.5522 121.266 54.5668 121.17 53.5887 121.051L53.5281 121.547C52.5331 121.425 51.5455 121.28 50.566 121.111L50.6509 120.618C49.6717 120.45 48.7005 120.257 47.738 120.042L47.6289 120.53C46.6515 120.311 45.683 120.069 44.724 119.805L44.8571 119.323C43.9001 119.058 42.9526 118.771 42.0152 118.462L41.8585 118.936C40.9082 118.623 39.9683 118.286 39.0394 117.927L39.2194 117.461C38.2939 117.104 37.3793 116.724 36.4764 116.323L36.2735 116.78C35.3595 116.375 34.4574 115.947 33.5677 115.498L33.7928 115.052C32.9076 114.606 32.0347 114.138 31.175 113.65L30.9282 114.085C30.0591 113.591 29.2032 113.077 28.3614 112.543L28.6293 112.121C27.7925 111.59 26.9697 111.039 26.1615 110.469L25.8732 110.877C25.057 110.301 24.2556 109.706 23.4696 109.092L23.7775 108.698C22.997 108.088 22.2319 107.459 21.4828 106.812L21.1561 107.191C20.4003 106.538 19.6607 105.868 18.938 105.179L19.2829 104.817C18.5659 104.134 17.8657 103.434 17.1828 102.717L16.8208 103.062C16.1325 102.339 15.4618 101.6 14.8093 100.844L15.1877 100.517C14.541 99.7681 13.9123 99.003 13.3024 98.2225L12.9084 98.5304C12.2942 97.7444 11.6987 96.943 11.1229 96.1268L11.5314 95.8385C10.9612 95.0303 10.4102 94.2075 9.87926 93.3707L9.45709 93.6386C8.92289 92.7968 8.40874 91.9409 7.91533 91.0718L8.35014 90.825C7.86209 89.9653 7.39449 89.0924 6.948 88.2072L6.50156 88.4323C6.05285 87.5426 5.62528 86.6405 5.21951 85.7265L5.67651 85.5236C5.27566 84.6207 4.89628 83.7061 4.539 82.7806L4.07255 82.9606C3.71396 82.0317 3.37746 81.0918 3.06368 80.1415L3.53846 79.9848C3.22894 79.0474 2.94172 78.0999 2.67742 77.1429L2.19547 77.276C1.93061 76.317 1.68859 75.3485 1.47002 74.3712L1.95796 74.262C1.74271 73.2995 1.5504 72.3284 1.38162 71.3491L0.888882 71.4341C0.720046 70.4545 0.57457 69.4669 0.453051 68.472L0.949363 68.4113C0.8299 67.4332 0.733776 66.4478 0.66157 65.4558L0.162889 65.4921C0.0907983 64.5017 0.0423556 63.5047 0.0181226 62.5017L0.517977 62.4896C0.506015 61.9945 0.5 61.498 0.5 61C0.5 60.502 0.506015 60.0055 0.517976 59.5104L0.0181216 59.4984C0.0423541 58.4954 0.0907964 57.4984 0.162886 56.5079L0.661567 56.5442C0.733774 55.5522 0.829897 54.5668 0.94936 53.5887L0.453048 53.5281C0.574567 52.5331 0.720042 51.5455 0.888879 50.566L1.38161 50.6509C1.55039 49.6717 1.74271 48.7005 1.95796 47.738L1.47001 47.6289C1.68858 46.6515 1.93061 45.683 2.19546 44.724L2.67742 44.8571C2.94172 43.9001 3.22894 42.9526 3.53846 42.0152L3.06367 41.8585C3.37745 40.9082 3.71396 39.9683 4.07255 39.0394L4.539 39.2194C4.89628 38.2939 5.27566 37.3793 5.6765 36.4764L5.21951 36.2735C5.62528 35.3595 6.05285 34.4574 6.50156 33.5677L6.948 33.7928C7.39449 32.9076 7.86209 32.0347 8.35014 31.175L7.91533 30.9282C8.40874 30.0591 8.92289 29.2032 9.45709 28.3614L9.87927 28.6293C10.4102 27.7925 10.9612 26.9697 11.5314 26.1615L11.1229 25.8732C11.6987 25.057 12.2942 24.2556 12.9084 23.4696L13.3024 23.7775C13.9123 22.997 14.541 22.2319 15.1877 21.4828L14.8093 21.1561C15.4618 20.4003 16.1325 19.6607 16.8208 18.938L17.1828 19.2829C17.8657 18.5659 18.5659 17.8657 19.2829 17.1828L18.938 16.8208C19.6607 16.1325 20.4003 15.4618 21.1561 14.8093L21.4828 15.1877C22.2319 14.541 22.997 13.9123 23.7775 13.3024L23.4696 12.9084C24.2556 12.2942 25.057 11.6987 25.8732 11.1229L26.1615 11.5314C26.9697 10.9612 27.7925 10.4102 28.6293 9.87926L28.3614 9.45709C29.2032 8.92289 30.0591 8.40874 30.9282 7.91533L31.175 8.35014C32.0347 7.86209 32.9076 7.39449 33.7928 6.948L33.5677 6.50156C34.4574 6.05285 35.3595 5.62528 36.2735 5.21951L36.4764 5.67651C37.3793 5.27566 38.2939 4.89628 39.2194 4.539L39.0394 4.07255C39.9683 3.71396 40.9082 3.37746 41.8585 3.06368L42.0152 3.53846C42.9526 3.22894 43.9001 2.94172 44.8571 2.67742L44.724 2.19547C45.683 1.93061 46.6515 1.68859 47.6288 1.47002L47.738 1.95796C48.7005 1.74271 49.6716 1.5504 50.6509 1.38162L50.566 0.888882C51.5455 0.720046 52.5331 0.574571 53.528 0.453051L53.5887 0.949363C54.5668 0.8299 55.5522 0.733776 56.5442 0.66157L56.5079 0.162889C57.4983 0.0907985 58.4953 0.0423557 59.4983 0.0181226L59.5104 0.517977C60.0055 0.506015 60.502 0.5 61 0.5C61.498 0.5 61.9945 0.506015 62.4896 0.517976L62.5016 0.0181216C63.5046 0.0423541 64.5016 0.0907964 65.4921 0.162886L65.4558 0.661567C66.4478 0.733774 67.4332 0.829897 68.4113 0.94936L68.4719 0.453048C69.4669 0.574567 70.4545 0.720042 71.434 0.888878L71.3491 1.38161C72.3283 1.55039 73.2995 1.74271 74.262 1.95796L74.3711 1.47001C75.3485 1.68858 76.317 1.93061 77.276 2.19546L77.1429 2.67742C78.0999 2.94172 79.0474 3.22894 79.9848 3.53846L80.1415 3.06367C81.0918 3.37745 82.0317 3.71396 82.9606 4.07255L82.7806 4.539C83.7061 4.89628 84.6207 5.27566 85.5236 5.6765L85.7265 5.21951C86.6405 5.62528 87.5426 6.05285 88.4323 6.50156L88.2072 6.948C89.0924 7.39449 89.9653 7.86209 90.825 8.35014L91.0718 7.91533C91.9409 8.40874 92.7968 8.92289 93.6386 9.45709L93.3707 9.87927C94.2075 10.4102 95.0303 10.9612 95.8385 11.5314L96.1268 11.1229C96.943 11.6987 97.7444 12.2942 98.5304 12.9084L98.2225 13.3024C99.003 13.9123 99.7681 14.541 100.517 15.1877L100.844 14.8093C101.6 15.4618 102.339 16.1325 103.062 16.8208L102.717 17.1828C103.434 17.8657 104.134 18.5659 104.817 19.2829L105.179 18.938C105.868 19.6607 106.538 20.4003 107.191 21.1561L106.812 21.4828C107.459 22.2319 108.088 22.997 108.698 23.7775L109.092 23.4696C109.706 24.2556 110.301 25.057 110.877 25.8732L110.469 26.1615C111.039 26.9697 111.59 27.7925 112.121 28.6293L112.543 28.3614C113.077 29.2032 113.591 30.0591 114.085 30.9282L113.65 31.175C114.138 32.0347 114.606 32.9076 115.052 33.7928L115.498 33.5677C115.947 34.4574 116.375 35.3595 116.78 36.2735L116.323 36.4764C116.724 37.3793 117.104 38.2939 117.461 39.2194L117.927 39.0394C118.286 39.9683 118.623 40.9082 118.936 41.8585L118.462 42.0152C118.771 42.9526 119.058 43.9001 119.323 44.8571L119.805 44.724C120.069 45.683 120.311 46.6515 120.53 47.6288L120.042 47.738C120.257 48.7005 120.45 49.6716 120.618 50.6509L121.111 50.566C121.28 51.5455 121.425 52.5331 121.547 53.528L121.051 53.5887C121.17 54.5668 121.266 55.5522 121.338 56.5442L121.837 56.5079C121.909 57.4983 121.958 58.4953 121.982 59.4983L121.482 59.5104C121.494 60.0055 121.5 60.502 121.5 61C121.5 61.498 121.494 61.9945 121.482 62.4896L121.982 62.5016C121.958 63.5046 121.909 64.5016 121.837 65.4921L121.338 65.4558C121.266 66.4478 121.17 67.4332 121.051 68.4113L121.547 68.4719C121.425 69.4669 121.28 70.4545 121.111 71.434L120.618 71.3491C120.45 72.3283 120.257 73.2995 120.042 74.262L120.53 74.3711C120.311 75.3485 120.069 76.317 119.805 77.276L119.323 77.1429C119.058 78.0999 118.771 79.0474 118.462 79.9848L118.936 80.1415C118.623 81.0918 118.286 82.0317 117.927 82.9606L117.461 82.7806C117.104 83.7061 116.724 84.6207 116.323 85.5236L116.78 85.7265C116.375 86.6405 115.947 87.5426 115.498 88.4323L115.052 88.2072C114.606 89.0924 114.138 89.9653 113.65 90.825L114.085 91.0718C113.591 91.9409 113.077 92.7968 112.543 93.6386L112.121 93.3707C111.59 94.2075 111.039 95.0303 110.469 95.8385L110.877 96.1268C110.301 96.943 109.706 97.7444 109.092 98.5304L108.698 98.2225C108.088 99.003 107.459 99.7681 106.812 100.517L107.191 100.844C106.538 101.6 105.868 102.339 105.179 103.062L104.817 102.717C104.134 103.434 103.434 104.134 102.717 104.817L103.062 105.179C102.339 105.868 101.6 106.538 100.844 107.191L100.517 106.812C99.7681 107.459 99.003 108.088 98.2225 108.698L98.5304 109.092C97.7444 109.706 96.943 110.301 96.1268 110.877L95.8385 110.469C95.0303 111.039 94.2075 111.59 93.3707 112.121L93.6386 112.543C92.7968 113.077 91.9409 113.591 91.0718 114.085L90.825 113.65C89.9653 114.138 89.0924 114.606 88.2072 115.052L88.4323 115.498C87.5426 115.947 86.6405 116.375 85.7265 116.78L85.5236 116.323C84.6207 116.724 83.7061 117.104 82.7806 117.461L82.9606 117.927C82.0317 118.286 81.0918 118.623 80.1415 118.936L79.9848 118.462C79.0474 118.771 78.0999 119.058 77.1429 119.323L77.276 119.805C76.317 120.069 75.3485 120.311 74.3712 120.53L74.262 120.042C73.2995 120.257 72.3284 120.45 71.3491 120.618L71.434 121.111C70.4545 121.28 69.4669 121.425 68.472 121.547L68.4113 121.051C67.4332 121.17 66.4478 121.266 65.4558 121.338L65.4921 121.837C64.5017 121.909 63.5047 121.958 62.5017 121.982L62.4896 121.482C61.9945 121.494 61.498 121.5 61 121.5Z" stroke="#D5D5D5" stroke-dasharray="3"/>
<path d="M78.1786 71.8997C77.3154 72.004 74.819 67.9499 74.819 67.9499C74.819 70.2973 73.6105 73.3605 70.9957 75.5727C72.257 75.9616 75.103 77.0082 74.426 78.1505C73.878 79.0749 65.0264 78.7408 62.4709 78.4529C59.9155 78.7408 51.0638 79.0749 50.5159 78.1505C49.8385 77.0085 52.6816 75.9627 53.9447 75.5732C51.3295 73.361 50.1208 70.2975 50.1208 67.9499C50.1208 67.9499 47.6244 72.004 46.7613 71.8997C46.3591 71.851 45.8308 69.6796 47.4613 64.4327C48.2297 61.9595 49.1085 59.9035 50.4677 56.5108C50.2389 47.7562 53.8561 40.4126 62.4699 40.4121C70.9878 40.4126 74.6888 47.6116 74.4722 56.5109C75.8291 59.8977 76.7124 61.9667 77.4787 64.4327C79.1089 69.6796 78.5808 71.8509 78.1786 71.8997Z" fill="#EA942F"/>
</svg>
