<svg width="100" height="100" viewBox="0 0 100 100" fill="none" xmlns="http://www.w3.org/2000/svg">
<path fill-rule="evenodd" clip-rule="evenodd" d="M50 100C77.6142 100 100 77.6142 100 50C100 22.3858 77.6142 0 50 0C22.3858 0 0 22.3858 0 50C0 77.6142 22.3858 100 50 100Z" fill="#DCFCEE"/>
<path fill-rule="evenodd" clip-rule="evenodd" d="M59.3878 32.6198C57.156 33.1023 57.9401 36.3853 60.1029 35.92C66.3328 34.6103 71.7183 40.4696 69.7278 46.6047C69.0902 48.69 72.2353 49.7929 72.9505 47.6387C75.6992 39.0392 68.2027 30.7586 59.3878 32.6198ZM47.9189 68.0862C38.7593 68.0862 29.4102 63.6572 29.4102 56.3416C29.4102 52.5244 31.8228 48.1213 35.9847 43.9594C44.5756 35.3685 53.4939 35.2651 50.9434 43.4682C50.6462 44.4415 51.6493 44.1016 51.9315 44.006L51.9315 44.006L51.9315 44.006L51.9315 44.006L51.9316 44.006C51.9766 43.9907 52.0032 43.9817 52.0032 43.9853C58.8535 41.09 64.1097 42.5376 61.8263 48.4142C61.5075 49.2242 61.9211 49.3535 62.5415 49.543C74.2344 53.1879 65.5401 68.0862 47.9189 68.0862ZM64.4802 44.8986C65.1351 42.8306 63.3256 40.866 61.2576 41.3054C59.3619 41.7191 58.776 38.8841 60.6458 38.4792C64.9628 37.5399 68.599 41.676 67.2376 45.7861C66.6517 47.6129 63.8943 46.7168 64.4802 44.8986ZM46.2214 48.0954C53.537 47.3802 59.8358 50.6804 60.3011 55.48C60.7664 60.2795 55.2517 64.7343 47.9447 65.4754C40.6291 66.1906 34.3303 62.8904 33.865 58.0908C33.3997 53.2913 38.9144 48.8365 46.2214 48.0954ZM43.2228 63.4074C46.8676 64.5878 51.1502 62.7611 52.6236 59.4178C54.0971 56.1176 52.279 52.7226 48.6599 51.792C45.1874 50.9045 41.2754 52.6278 39.7502 55.6782C38.2251 58.806 39.7071 62.2786 43.2228 63.4074ZM45.1874 56.8328C44.0758 56.3675 42.6024 56.8586 41.913 57.9444C41.1978 59.0559 41.5425 60.357 42.6541 60.874C43.7829 61.391 45.308 60.8999 46.0232 59.7625C46.7125 58.6337 46.342 57.3239 45.1874 56.8328ZM46.7642 56.1435C47.0141 55.7299 47.557 55.5317 47.9964 55.6782C48.4359 55.8505 48.5824 56.3416 48.3411 56.7897C48.0912 57.2292 47.5225 57.4273 47.0831 57.255C46.6436 57.0568 46.5144 56.5829 46.7642 56.1435Z" fill="#37CC8D"/>
</svg>
