<svg width="136" height="136" viewBox="0 0 136 136" fill="none" xmlns="http://www.w3.org/2000/svg">
<path fill-rule="evenodd" clip-rule="evenodd" d="M68 118C95.6142 118 118 95.6142 118 68C118 40.3858 95.6142 18 68 18C40.3858 18 18 40.3858 18 68C18 95.6142 40.3858 118 68 118Z" fill="#FFF6F6"/>
<path d="M68 135.5C67.5062 135.5 67.0136 135.495 66.5223 135.484L66.5116 135.984C65.5184 135.963 64.5305 135.92 63.5483 135.857L63.5806 135.358C62.597 135.294 61.6192 135.209 60.6476 135.104L60.5938 135.601C59.6071 135.494 58.6268 135.366 57.6532 135.218L57.7286 134.724C56.7541 134.575 55.7864 134.405 54.826 134.215L54.729 134.706C53.7553 134.513 52.7891 134.3 51.8308 134.066L51.9493 133.58C50.9926 133.347 50.044 133.093 49.1038 132.82L48.9641 133.3C48.012 133.023 47.0685 132.725 46.1341 132.408L46.2948 131.935C45.3631 131.618 44.4405 131.282 43.5276 130.927L43.3463 131.393C42.4228 131.034 41.5092 130.655 40.6058 130.257L40.8074 129.799C39.9076 129.403 39.0181 128.987 38.1393 128.553L37.9178 129.001C37.0299 128.562 36.1529 128.105 35.2874 127.629L35.5283 127.191C34.667 126.717 33.8171 126.225 32.9792 125.716L32.7194 126.143C31.8733 125.629 31.0394 125.096 30.2181 124.546L30.4963 124.131C29.6797 123.584 28.8757 123.02 28.0849 122.439L27.7889 122.842C26.9912 122.257 26.2068 121.654 25.4361 121.034L25.7493 120.645C24.9837 120.029 24.2317 119.398 23.494 118.75L23.1642 119.126C22.4206 118.473 21.6914 117.805 20.9771 117.121L21.3229 116.76C20.6137 116.081 19.9193 115.386 19.2402 114.677L18.8791 115.023C18.1951 114.309 17.5266 113.579 16.874 112.836L17.2498 112.506C16.6023 111.768 15.9706 111.016 15.3554 110.251L14.9656 110.564C14.3463 109.793 13.7435 109.009 13.1576 108.211L13.5606 107.915C12.9798 107.124 12.4157 106.32 11.869 105.504L11.4536 105.782C10.9037 104.961 10.3713 104.127 9.85683 103.281L10.284 103.021C9.77452 102.183 9.28273 101.333 8.8092 100.472L8.37105 100.713C7.89522 99.8471 7.43769 98.9701 6.99897 98.0822L7.44724 97.8607C7.01307 96.9819 6.59747 96.0924 6.20095 95.1926L5.74341 95.3942C5.34533 94.4908 4.96634 93.5772 4.60695 92.6537L5.07291 92.4724C4.71761 91.5595 4.38162 90.6369 4.06541 89.7052L3.59194 89.8659C3.27483 88.9315 2.97749 87.988 2.7004 87.0359L3.18049 86.8962C2.90687 85.956 2.65316 85.0074 2.41983 84.0507L1.93407 84.1692C1.70035 83.2109 1.48694 82.2447 1.29431 81.271L1.78481 81.174C1.59482 80.2136 1.4252 79.2459 1.27642 78.2713L0.78215 78.3468C0.633525 77.3732 0.505546 76.3929 0.398673 75.4062L0.895766 75.3524C0.790529 74.3808 0.705906 73.403 0.642346 72.4194L0.143387 72.4517C0.0799144 71.4694 0.0372954 70.4816 0.0159679 69.4884L0.515853 69.4777C0.505302 68.9864 0.5 68.4938 0.5 68C0.5 67.5062 0.505302 67.0136 0.515853 66.5223L0.0159681 66.5116C0.0372957 65.5184 0.0799149 64.5305 0.143388 63.5483L0.642347 63.5806C0.705907 62.597 0.79053 61.6192 0.895767 60.6476L0.398675 60.5938C0.505547 59.6071 0.633526 58.6268 0.782151 57.6532L1.27642 57.7286C1.4252 56.7541 1.59482 55.7864 1.78481 54.826L1.29432 54.729C1.48694 53.7553 1.70035 52.7891 1.93407 51.8308L2.41983 51.9493C2.65316 50.9926 2.90687 50.044 3.18049 49.1038L2.7004 48.9641C2.97749 48.012 3.27483 47.0685 3.59194 46.1341L4.06541 46.2948C4.38162 45.3631 4.71762 44.4405 5.07291 43.5276L4.60695 43.3463C4.96635 42.4228 5.34533 41.5092 5.74341 40.6058L6.20095 40.8074C6.59747 39.9076 7.01307 39.0181 7.44724 38.1393L6.99897 37.9178C7.43769 37.0299 7.89522 36.1529 8.37105 35.2874L8.8092 35.5283C9.28273 34.667 9.77452 33.8171 10.284 32.9792L9.85683 32.7194C10.3713 31.8733 10.9037 31.0394 11.4536 30.2181L11.869 30.4963C12.4157 29.6797 12.9798 28.8757 13.5606 28.0849L13.1576 27.7889C13.7435 26.9912 14.3463 26.2068 14.9656 25.4361L15.3554 25.7493C15.9707 24.9837 16.6023 24.2317 17.2498 23.494L16.874 23.1642C17.5266 22.4206 18.1951 21.6914 18.8791 20.9771L19.2402 21.3229C19.9193 20.6137 20.6137 19.9193 21.3229 19.2402L20.9771 18.8791C21.6914 18.1951 22.4206 17.5266 23.1642 16.874L23.494 17.2498C24.2317 16.6023 24.9837 15.9706 25.7493 15.3554L25.4361 14.9656C26.2068 14.3463 26.9912 13.7435 27.7889 13.1576L28.0849 13.5606C28.8757 12.9798 29.6797 12.4157 30.4963 11.869L30.2181 11.4536C31.0394 10.9037 31.8733 10.3713 32.7194 9.85683L32.9792 10.284C33.8171 9.77452 34.667 9.28273 35.5283 8.8092L35.2874 8.37105C36.1529 7.89522 37.0299 7.43769 37.9178 6.99897L38.1393 7.44724C39.0181 7.01307 39.9076 6.59747 40.8074 6.20095L40.6058 5.74341C41.5092 5.34533 42.4228 4.96634 43.3463 4.60695L43.5276 5.07291C44.4405 4.71761 45.3631 4.38162 46.2948 4.06541L46.1341 3.59194C47.0685 3.27483 48.012 2.97749 48.9641 2.7004L49.1038 3.18049C50.044 2.90687 50.9926 2.65316 51.9493 2.41983L51.8308 1.93407C52.7891 1.70035 53.7553 1.48694 54.729 1.29431L54.826 1.78481C55.7864 1.59482 56.7541 1.4252 57.7287 1.27642L57.6532 0.78215C58.6268 0.633525 59.6071 0.505545 60.5938 0.398673L60.6476 0.895766C61.6192 0.790529 62.597 0.705906 63.5806 0.642346L63.5483 0.143387C64.5305 0.0799144 65.5184 0.0372953 66.5116 0.0159679L66.5223 0.515853C67.0136 0.505302 67.5062 0.5 68 0.5C68.4938 0.5 68.9864 0.505302 69.4777 0.515853L69.4884 0.0159681C70.4816 0.0372957 71.4695 0.0799149 72.4517 0.143387L72.4194 0.642347C73.403 0.705907 74.3808 0.79053 75.3524 0.895767L75.4062 0.398675C76.3929 0.505547 77.3732 0.633526 78.3468 0.782151L78.2714 1.27642C79.2459 1.4252 80.2136 1.59482 81.174 1.78481L81.271 1.29432C82.2447 1.48694 83.2109 1.70035 84.1692 1.93407L84.0507 2.41983C85.0074 2.65316 85.956 2.90687 86.8962 3.18049L87.0359 2.7004C87.988 2.97749 88.9315 3.27483 89.8659 3.59194L89.7052 4.06541C90.6369 4.38162 91.5595 4.71761 92.4724 5.07291L92.6537 4.60695C93.5772 4.96634 94.4908 5.34533 95.3942 5.74341L95.1926 6.20095C96.0924 6.59747 96.9819 7.01307 97.8607 7.44724L98.0822 6.99897C98.9701 7.43769 99.8471 7.89522 100.713 8.37105L100.472 8.8092C101.333 9.28273 102.183 9.77452 103.021 10.284L103.281 9.85683C104.127 10.3713 104.961 10.9037 105.782 11.4536L105.504 11.869C106.32 12.4157 107.124 12.9798 107.915 13.5606L108.211 13.1576C109.009 13.7435 109.793 14.3463 110.564 14.9656L110.251 15.3554C111.016 15.9707 111.768 16.6023 112.506 17.2498L112.836 16.874C113.579 17.5266 114.309 18.1951 115.023 18.8791L114.677 19.2402C115.386 19.9193 116.081 20.6137 116.76 21.3229L117.121 20.9771C117.805 21.6914 118.473 22.4206 119.126 23.1642L118.75 23.494C119.398 24.2317 120.029 24.9837 120.645 25.7493L121.034 25.4361C121.654 26.2068 122.257 26.9912 122.842 27.7889L122.439 28.0849C123.02 28.8757 123.584 29.6797 124.131 30.4963L124.546 30.2181C125.096 31.0394 125.629 31.8734 126.143 32.7194L125.716 32.9792C126.225 33.8171 126.717 34.667 127.191 35.5283L127.629 35.2874C128.105 36.1529 128.562 37.0299 129.001 37.9178L128.553 38.1393C128.987 39.0181 129.403 39.9076 129.799 40.8074L130.257 40.6058C130.655 41.5092 131.034 42.4228 131.393 43.3463L130.927 43.5276C131.282 44.4405 131.618 45.3631 131.935 46.2948L132.408 46.1341C132.725 47.0685 133.023 48.012 133.3 48.9641L132.82 49.1038C133.093 50.044 133.347 50.9927 133.58 51.9493L134.066 51.8308C134.3 52.7891 134.513 53.7553 134.706 54.729L134.215 54.826C134.405 55.7864 134.575 56.7541 134.724 57.7287L135.218 57.6532C135.366 58.6268 135.494 59.6071 135.601 60.5938L135.104 60.6477C135.209 61.6192 135.294 62.597 135.358 63.5806L135.857 63.5484C135.92 64.5306 135.963 65.5184 135.984 66.5116L135.484 66.5223C135.495 67.0136 135.5 67.5062 135.5 68C135.5 68.4938 135.495 68.9864 135.484 69.4777L135.984 69.4884C135.963 70.4816 135.92 71.4695 135.857 72.4517L135.358 72.4194C135.294 73.403 135.209 74.3808 135.104 75.3524L135.601 75.4062C135.494 76.3929 135.366 77.3732 135.218 78.3468L134.724 78.2714C134.575 79.2459 134.405 80.2136 134.215 81.174L134.706 81.271C134.513 82.2447 134.3 83.2109 134.066 84.1692L133.58 84.0507C133.347 85.0074 133.093 85.956 132.82 86.8962L133.3 87.0359C133.023 87.988 132.725 88.9315 132.408 89.8659L131.935 89.7052C131.618 90.6369 131.282 91.5595 130.927 92.4724L131.393 92.6537C131.034 93.5772 130.655 94.4908 130.257 95.3942L129.799 95.1926C129.403 96.0924 128.987 96.9819 128.553 97.8607L129.001 98.0822C128.562 98.9701 128.105 99.8471 127.629 100.713L127.191 100.472C126.717 101.333 126.225 102.183 125.716 103.021L126.143 103.281C125.629 104.127 125.096 104.961 124.546 105.782L124.131 105.504C123.584 106.32 123.02 107.124 122.439 107.915L122.842 108.211C122.257 109.009 121.654 109.793 121.034 110.564L120.645 110.251C120.029 111.016 119.398 111.768 118.75 112.506L119.126 112.836C118.473 113.579 117.805 114.309 117.121 115.023L116.76 114.677C116.081 115.386 115.386 116.081 114.677 116.76L115.023 117.121C114.309 117.805 113.579 118.473 112.836 119.126L112.506 118.75C111.768 119.398 111.016 120.029 110.251 120.645L110.564 121.034C109.793 121.654 109.009 122.257 108.211 122.842L107.915 122.439C107.124 123.02 106.32 123.584 105.504 124.131L105.782 124.546C104.961 125.096 104.127 125.629 103.281 126.143L103.021 125.716C102.183 126.225 101.333 126.717 100.472 127.191L100.713 127.629C99.8471 128.105 98.9701 128.562 98.0822 129.001L97.8607 128.553C96.9819 128.987 96.0924 129.403 95.1926 129.799L95.3942 130.257C94.4908 130.655 93.5772 131.034 92.6537 131.393L92.4724 130.927C91.5595 131.282 90.6369 131.618 89.7052 131.935L89.8659 132.408C88.9315 132.725 87.988 133.023 87.0359 133.3L86.8962 132.82C85.956 133.093 85.0074 133.347 84.0507 133.58L84.1692 134.066C83.2109 134.3 82.2447 134.513 81.271 134.706L81.174 134.215C80.2136 134.405 79.2459 134.575 78.2713 134.724L78.3468 135.218C77.3732 135.366 76.3929 135.494 75.4062 135.601L75.3524 135.104C74.3808 135.209 73.403 135.294 72.4194 135.358L72.4517 135.857C71.4694 135.92 70.4816 135.963 69.4884 135.984L69.4777 135.484C68.9864 135.495 68.4938 135.5 68 135.5Z" stroke="#D5D5D5" stroke-dasharray="3"/>
<path fill-rule="evenodd" clip-rule="evenodd" d="M88 51.4888V90.581C87.1297 89.8092 86.4421 89.2008 85.8756 88.6995C84.7799 87.73 84.1369 87.1611 83.5003 86.5852C82.5962 85.7674 81.705 84.9355 79.5483 82.9225C79.073 82.4789 78.5364 81.9779 77.9246 81.4072L79.0754 85.4384H54.4514C51.9977 85.4384 50 83.4337 50 80.9496V51.4888C50 49.0047 51.9977 47 54.4514 47H83.5486C86.0023 47 88 49.0047 88 51.4888ZM62.8549 67.701C62.8549 66.3717 63.832 65.2822 65.0697 65.2822C66.3074 65.2822 67.3063 66.3717 67.2846 67.701C67.2846 69.0302 66.3074 70.1197 65.0697 70.1197C63.8537 70.1197 62.8549 69.0302 62.8549 67.701ZM72.9954 70.1197C74.2331 70.1197 75.2103 69.0302 75.2103 67.701C75.2103 66.3717 74.2331 65.2822 72.9954 65.2822C71.7577 65.2822 70.7806 66.3717 70.7806 67.701C70.7806 69.0302 71.7794 70.1197 72.9954 70.1197ZM78.6846 59.4424C78.6846 59.4424 81.8114 65.1297 81.8114 72.1462C81.8114 72.1462 79.9657 75.3058 75.1669 75.4584C75.1669 75.4584 74.3851 74.5214 73.7337 73.6933C76.5783 72.8871 77.664 71.1003 77.664 71.1003C76.7737 71.6886 75.9269 72.1026 75.1669 72.3859C70.4884 74.3578 65.2823 73.6829 61.6171 71.6232C61.6065 71.6161 61.5675 71.5936 61.51 71.5604C61.33 71.4567 60.9689 71.2485 60.7269 71.0785C60.7269 71.0785 61.7691 72.8217 64.5269 73.6498C63.8754 74.4778 63.072 75.4584 63.072 75.4584C58.2731 75.3058 56.4491 72.1462 56.4491 72.1462C56.4491 65.1297 59.576 59.4424 59.576 59.4424C62.7029 57.089 65.6777 57.1544 65.6777 57.1544L65.8949 57.4158C61.9863 58.549 60.184 60.2704 60.184 60.2704C60.184 60.2704 60.6617 60.0089 61.4651 59.6385C66.4686 57.433 72.5276 57.4335 77.6857 60.2704C77.6857 60.2704 75.9703 58.6361 72.2789 57.503L72.5829 57.1544C72.5829 57.1544 75.5577 57.089 78.6846 59.4424Z" fill="#E76767"/>
</svg>
