<svg width="120" height="120" viewBox="0 0 120 120" fill="none" xmlns="http://www.w3.org/2000/svg">
<path fill-rule="evenodd" clip-rule="evenodd" d="M60 120C93.1371 120 120 93.1371 120 60C120 26.8629 93.1371 0 60 0C26.8629 0 0 26.8629 0 60C0 93.1371 26.8629 120 60 120Z" fill="#E5EEFF"/>
<path d="M82.459 52.4701C82.4923 52.892 82.4923 53.3139 82.4923 53.7358C82.4923 66.6029 71.6659 81.4289 51.8784 81.4289C45.7822 81.4289 40.1191 79.8317 35.3555 77.0595C36.2216 77.1498 37.0543 77.18 37.9538 77.18C42.9839 77.18 47.6144 75.6432 51.312 73.0215C46.5817 72.9311 42.6175 70.1286 41.2517 66.2715C41.918 66.3618 42.5842 66.4221 43.2838 66.4221C44.2498 66.4221 45.216 66.3015 46.1153 66.0907C41.1851 65.1866 37.4874 61.2692 37.4874 56.5382V56.4177C38.9197 57.1409 40.5855 57.5929 42.3509 57.6531C39.4527 55.9053 37.554 52.9221 37.554 49.5471C37.554 47.7391 38.0869 46.0817 39.0197 44.6353C44.3164 50.5415 52.2781 54.3986 61.2057 54.8205C61.0391 54.0973 60.9392 53.3441 60.9392 52.5907C60.9392 47.2268 65.7362 42.8574 71.699 42.8574C74.7971 42.8574 77.5953 44.0326 79.5607 45.9311C81.9925 45.5092 84.3243 44.6956 86.3898 43.5806C85.5902 45.8407 83.8913 47.7392 81.6594 48.9444C83.8247 48.7336 85.9234 48.1911 87.8555 47.4378C86.39 49.3663 84.5577 51.0839 82.459 52.4701Z" fill="#5793FF"/>
</svg>
