<svg width="285" height="209" viewBox="0 0 285 209" fill="none" xmlns="http://www.w3.org/2000/svg">
<mask id="mask0" mask-type="alpha" maskUnits="userSpaceOnUse" x="0" y="0" width="285" height="209">
<rect width="285" height="209" fill="#C4C4C4"/>
</mask>
<g mask="url(#mask0)">
<path opacity="0.42148" fill-rule="evenodd" clip-rule="evenodd" d="M146.452 190.673L-1 105.385L146.568 20.0459L294 105.334L146.452 190.673ZM146.453 190.06L157.251 183.813L146.458 177.576L135.665 183.818L146.453 190.06ZM145.944 177.284L135.146 183.531L124.359 177.284L135.156 171.042L145.944 177.284ZM123.844 176.998L134.642 170.756L123.854 164.514L113.057 170.756L123.844 176.998ZM123.339 164.227L112.547 170.47L101.754 164.227L112.552 157.98L123.339 164.227ZM101.239 163.926L112.032 157.699L101.244 151.451L90.4519 157.699L101.239 163.926ZM100.735 151.17L89.9221 157.392L79.1495 151.17L89.9221 144.907L100.735 151.17ZM78.636 150.854L89.4337 144.641L78.6461 138.369L67.8685 144.611L78.636 150.854ZM78.1259 138.113L67.3283 144.315L56.5406 138.073L67.3633 131.831L78.1259 138.113ZM56.0309 137.777L66.8236 131.584L56.036 125.292L45.2383 131.539L56.0309 137.777ZM55.5212 125.056L44.7286 131.238L33.936 125L44.7336 118.753L55.5212 125.056ZM33.4213 124.699L44.2139 118.527L33.4263 112.22L22.6337 118.462L33.4213 124.699ZM32.9166 111.998L22.119 118.246L11.3314 112.003L22.129 105.761L32.9166 111.998ZM10.8166 111.717L21.6143 105.47L10.8267 99.2323L0.0290302 105.475L10.8166 111.717ZM168.557 177.284L157.76 183.526L146.972 177.284L157.77 171.042L168.557 177.284ZM146.457 176.998L157.255 170.756L146.467 164.509L135.67 170.756L146.457 176.998ZM145.953 164.227L135.16 170.47L124.367 164.227L135.165 157.98L145.953 164.227ZM123.853 163.926L134.645 157.698L123.858 151.456L113.065 157.698L123.853 163.926ZM123.348 151.17L112.55 157.417L101.763 151.17L112.555 144.927L123.348 151.17ZM101.244 150.884L112.041 144.642L101.254 138.399L90.4561 144.642L101.244 150.884ZM100.743 138.113L89.9256 144.31L79.1581 138.073L89.9557 131.825L100.743 138.113ZM78.6461 137.771L89.4387 131.584L78.6661 125.287L67.8685 131.534L78.6461 137.771ZM78.1336 125.056L67.3661 131.233L56.5534 124.995L67.3661 118.753L78.1336 125.056ZM56.0344 124.699L66.8321 118.527L56.0395 112.215L45.2468 118.457L56.0344 124.699ZM55.5297 111.999L44.7321 118.161L33.9445 111.918L44.7421 105.676L55.5297 111.999ZM33.4298 111.622L44.2274 105.47L33.4398 99.1372L22.6422 105.38L33.4298 111.622ZM32.9208 98.9412L22.1282 105.184L11.3356 98.9462L22.1332 92.6988L32.9208 98.9412ZM169.075 176.993L179.868 170.756L169.08 164.509L158.283 170.756L169.075 176.993ZM168.565 164.227L157.772 170.475L146.985 164.227L157.777 157.985L168.565 164.227ZM146.466 163.921L157.263 157.698L146.471 151.456L135.678 157.698L146.466 163.921ZM145.961 151.17L135.163 157.412L124.376 151.17L135.173 144.927L145.961 151.17ZM123.861 150.844L134.659 144.642L123.871 138.359L113.074 144.607L123.861 150.844ZM123.356 138.113L112.559 144.355L101.771 138.118L112.569 131.871L123.356 138.113ZM101.257 137.827L112.05 131.584L101.262 125.342L90.4646 131.589L101.257 137.827ZM100.743 125.055L89.9499 131.232L79.1623 124.99L89.9549 118.748L100.743 125.055ZM78.6511 124.694L89.4487 118.527L78.6611 112.209L67.8685 118.452L78.6511 124.694ZM78.1429 111.998L67.3653 118.155L56.5577 111.913L67.3653 105.671L78.1429 111.998ZM56.0429 111.617L66.8656 105.375L56.053 99.1324L45.2553 105.38L56.0429 111.617ZM55.5591 98.846L44.7414 105.078L33.9488 98.841L44.7464 92.5936L55.5591 98.846ZM33.4383 98.5448L44.256 92.3175L33.4433 86.0601L22.6507 92.3024L33.4383 98.5448ZM191.183 164.227L180.386 170.454L169.598 164.227L180.391 157.985L191.183 164.227ZM169.084 163.941L179.882 157.698L169.084 151.456L158.291 157.698L169.084 163.941ZM168.579 151.17L157.781 157.412L146.993 151.175L157.791 144.927L168.579 151.17ZM146.479 150.884L157.276 144.642L146.489 138.399L135.691 144.647L146.479 150.884ZM145.97 138.113L135.178 144.355L124.38 138.063L135.178 131.821L145.97 138.113ZM123.875 137.832L134.667 131.584L123.88 125.347L113.082 131.589L123.875 137.832ZM123.364 125.056L112.572 131.303L101.784 125.061L112.577 118.818L123.364 125.056ZM101.27 124.77L112.068 118.527L101.27 112.205L90.4774 118.447L101.27 124.77ZM100.761 111.999L89.9634 118.241L79.1708 111.913L89.9684 105.666L100.761 111.999ZM78.6561 111.612L89.4587 105.47L78.6661 99.1271L67.8685 105.374L78.6561 111.612ZM78.1522 98.9414L67.3646 105.078L56.5619 98.8359L67.3646 92.5936L78.1522 98.9414ZM56.0472 98.54L66.8599 92.2926L56.0522 86.0553L45.2596 92.2976L56.0472 98.54ZM55.5668 85.7639L44.7491 92.0012L33.9615 85.7588L44.7541 79.5165L55.5668 85.7639ZM191.682 163.911L202.49 157.669L191.682 151.426L180.904 157.699L191.682 163.911ZM191.184 151.14L180.386 157.382L169.623 151.135L180.421 144.888L191.184 151.14ZM169.087 150.854L179.885 144.611L169.097 138.354L158.3 144.596L169.087 150.854ZM168.579 138.083L157.786 144.33L146.993 138.088L157.791 131.846L168.579 138.083ZM146.483 137.761L157.275 131.554L146.488 125.276L135.695 131.519L146.483 137.761ZM145.978 125.025L135.18 131.268L124.393 125.025L135.185 118.783L145.978 125.025ZM123.874 124.739L134.672 118.497L123.884 112.255L113.086 118.502L123.874 124.739ZM123.369 111.968L112.572 118.211L101.784 111.973L112.582 105.726L123.369 111.968ZM101.265 111.687L112.063 105.44L101.275 99.1271L90.4774 105.369L101.265 111.687ZM100.76 98.911L89.9677 105.158L79.1751 98.8306L89.9727 92.5883L100.76 98.911ZM78.6661 98.5347L89.4587 92.3827L78.6611 86.05L67.8685 92.2923L78.6661 98.5347ZM78.1599 85.854L67.3673 91.9959L56.5747 85.7586L67.3673 79.5112L78.1599 85.854ZM56.0557 85.4576L66.8634 79.2153L56.0657 72.9729L45.2681 79.2203L56.0557 85.4576ZM213.801 151.125L203.003 157.367L192.215 151.13L203.013 144.882L213.801 151.125ZM191.686 150.834L202.498 144.597L191.711 138.349L180.913 144.592L191.686 150.834ZM191.189 138.068L180.396 144.315L169.623 138.053L180.421 131.81L191.189 138.068ZM169.092 137.781L179.889 131.539L169.122 125.272L158.304 131.539L169.092 137.781ZM168.591 125.01L157.794 131.253L147.006 125.015L157.799 118.768L168.591 125.01ZM146.487 124.724L157.285 118.482L146.497 112.24L135.699 118.487L146.487 124.724ZM145.982 111.953L135.185 118.201L124.397 111.958L135.195 105.716L145.982 111.953ZM123.883 111.672L134.676 105.424L123.888 99.1871L113.091 105.429L123.883 111.672ZM123.377 98.8961L112.584 105.068L101.797 98.8258L112.589 92.5835L123.377 98.8961ZM101.278 98.6101L112.075 92.3678L101.283 86.1255L90.4901 92.3728L101.278 98.6101ZM100.773 85.8391L89.9754 91.9911L79.1878 85.7538L89.9855 79.5064L100.773 85.8391ZM78.6711 85.4523L89.4688 79.3104L78.6661 72.9676L67.8685 79.215L78.6711 85.4523ZM78.1642 72.7819L67.3665 78.9188L56.5789 72.6764L67.3665 66.4341L78.1642 72.7819ZM214.314 150.829L225.107 144.581L214.32 138.344L203.522 144.586L214.314 150.829ZM213.804 138.053L203.011 144.29L192.224 138.048L203.016 131.805L213.804 138.053ZM191.709 137.766L202.507 131.524L191.714 125.282L180.921 131.529L191.709 137.766ZM191.199 124.996L180.401 131.213L169.623 124.975L180.421 118.728L191.199 124.996ZM169.126 124.679L179.898 118.467L169.126 112.195L158.338 118.437L169.126 124.679ZM168.596 111.938L157.798 118.14L147.01 111.898L157.808 105.656L168.596 111.938ZM146.496 111.657L157.289 105.41L146.501 99.1723L135.704 105.415L146.496 111.657ZM145.986 98.8811L135.193 105.123L124.406 98.8811L135.198 92.6388L145.986 98.8811ZM123.891 98.5953L134.689 92.3529L123.896 86.1106L113.103 92.358L123.891 98.5953ZM123.382 85.8242L112.584 92.0666L101.797 85.8292L112.594 79.5819L123.382 85.8242ZM101.282 85.5426L112.08 79.2953L101.292 73.058L90.4944 79.3003L101.282 85.5426ZM100.773 72.7666L89.9804 79.0139L79.1878 72.6711L89.9855 66.4288L100.773 72.7666ZM78.6816 72.3747L89.4742 66.2378L78.6866 59.89L67.894 66.1323L78.6816 72.3747ZM236.417 138.043L225.625 144.285L214.837 138.048L225.63 131.8L236.417 138.043ZM214.322 137.756L225.12 131.514L214.327 125.272L203.535 131.519L214.322 137.756ZM213.813 124.985L203.016 131.232L192.228 124.99L203.026 118.748L213.813 124.985ZM191.713 124.704L202.511 118.457L191.723 112.22L180.926 118.462L191.713 124.704ZM191.204 111.928L180.411 118.176L169.623 111.893L180.421 105.651L191.204 111.928ZM169.126 111.597L179.903 105.4L169.126 99.1122L158.338 105.355L169.126 111.597ZM168.604 98.871L157.806 105.113L147.019 98.8208L157.811 92.5734L168.604 98.871ZM146.504 98.5852L157.302 92.3428L146.514 86.1005L135.716 92.3479L146.504 98.5852ZM145.995 85.8143L135.197 92.0616L124.41 85.744L135.208 79.5016L145.995 85.8143ZM123.895 85.5329L134.693 79.2855L123.905 72.9628L113.108 79.2052L123.895 85.5329ZM123.386 72.7567L112.594 78.9991L101.801 72.6664L112.599 66.424L123.386 72.7567ZM101.291 72.4709L112.083 66.2285L101.296 59.9862L90.5029 66.2336L101.291 72.4709ZM100.786 59.6997L89.9882 65.9421L79.2006 59.5943L89.9932 53.3469L100.786 59.6997ZM236.935 137.741L247.733 131.499L236.94 125.262L226.148 131.504L236.935 137.741ZM236.426 124.97L225.629 131.217L214.841 124.965L225.639 118.723L236.426 124.97ZM214.327 124.689L225.124 118.442L214.337 112.184L203.539 118.427L214.327 124.689ZM213.818 111.913L203.025 118.155L192.232 111.888L203.03 105.646L213.818 111.913ZM191.726 111.627L202.519 105.385L191.731 99.1425L180.938 105.39L191.726 111.627ZM191.214 98.8561L180.416 105.098L169.623 98.816L180.416 92.5686L191.214 98.8561ZM169.126 98.5193L179.913 92.3271L169.126 86.0346L158.338 92.2769L169.126 98.5193ZM168.625 85.7336L157.828 91.981L147.04 85.7386L157.838 79.4963L168.625 85.7336ZM146.526 85.4475L157.319 79.2052L146.531 72.9628L135.733 79.2052L146.526 85.4475ZM146.014 72.6761L135.207 78.9034L124.414 72.6661L135.212 66.4187L146.014 72.6761ZM123.921 72.3901L134.713 66.1477L123.926 59.9054L113.133 66.1528L123.921 72.3901ZM123.412 59.6193L112.614 65.8617L101.826 59.6244L112.624 53.382L123.412 59.6193ZM101.312 59.338L112.109 53.0906L101.322 46.8533L90.5242 53.0956L101.312 59.338ZM259.04 124.955L248.242 131.203L237.454 124.96L248.252 118.718L259.04 124.955ZM236.94 124.669L247.737 118.427L236.95 112.184L226.152 118.427L236.94 124.669ZM236.431 111.898L225.638 118.126L214.845 111.888L225.643 105.641L236.431 111.898ZM214.335 111.612L225.128 105.369L214.34 99.1271L203.547 105.374L214.335 111.612ZM213.83 98.841L203.033 105.088L192.245 98.846L203.038 92.6037L213.83 98.841ZM191.726 98.5602L202.524 92.3128L191.736 86.0755L180.938 92.3178L191.726 98.5602ZM191.219 85.7841L180.421 92.0264L169.623 85.7339L180.421 79.4915L191.219 85.7841ZM169.122 85.4374L179.915 79.2553L169.122 72.9527L158.33 79.2001L169.122 85.4374ZM168.616 72.7264L157.823 78.9687L147.036 72.7314L157.828 66.4841L168.616 72.7264ZM146.517 72.3595L157.314 66.1976L146.522 59.8799L135.729 66.1222L146.517 72.3595ZM146.012 59.6693L135.214 65.9166L124.427 59.6743L135.225 53.432L146.012 59.6693ZM123.908 59.2678L134.706 53.141L123.918 46.7831L113.12 53.0255L123.908 59.2678ZM123.403 46.6123L112.611 52.7391L101.818 46.4968L112.616 40.2544L123.403 46.6123ZM259.558 124.659L270.35 118.417L259.563 112.174L248.765 118.422L259.558 124.659ZM259.047 111.888L248.255 118.13L237.467 111.893L248.26 105.646L259.047 111.888ZM236.948 111.587L247.746 105.359L236.953 99.1021L226.161 105.344L236.948 111.587ZM236.443 98.8309L225.646 105.078L214.858 98.8359L225.656 92.5936L236.443 98.8309ZM214.339 98.5092L225.137 92.302L214.349 86.0245L203.552 92.2668L214.339 98.5092ZM213.835 85.7737L203.037 92.0161L192.249 85.7336L203.047 79.4862L213.835 85.7737ZM191.735 85.4321L202.528 79.245L191.74 72.9474L180.943 79.1948L191.735 85.4321ZM191.224 72.7165L180.431 78.9588L169.623 72.6563L180.416 66.4139L191.224 72.7165ZM169.126 72.3598L179.928 66.1878L169.126 59.8751L158.338 66.1174L169.126 72.3598ZM168.625 59.6597L157.828 65.9071L147.04 59.6647L157.838 53.4224L168.625 59.6597ZM146.521 59.2676L157.319 53.1308L146.531 46.798L135.733 53.0404L146.521 59.2676ZM146.016 46.6022L135.224 52.7391L124.431 46.5018L135.229 40.2544L146.016 46.6022ZM123.921 46.2101L134.713 40.0732L123.926 33.7204L113.133 39.9678L123.921 46.2101ZM281.657 111.873L270.885 118.12L260.097 111.878L270.885 105.636L281.657 111.873ZM259.561 111.592L270.359 105.344L259.566 99.1069L248.774 105.349L259.561 111.592ZM259.057 98.8157L248.259 105.058L237.471 98.8157L248.269 92.5734L259.057 98.8157ZM236.952 98.5294L247.75 92.287L236.962 86.0447L226.165 92.292L236.952 98.5294ZM236.448 85.7588L225.655 92.0012L214.862 85.7639L225.66 79.5165L236.448 85.7588ZM214.353 85.4722L225.145 79.2299L214.358 72.9926L203.56 79.2349L214.353 85.4722ZM213.843 72.7012L203.045 78.9485L192.258 72.7062L203.05 66.4639L213.843 72.7012ZM191.743 72.4203L202.541 66.1729L191.753 59.8703L180.956 66.1127L191.743 72.4203ZM191.234 59.6446L180.437 65.7965L169.649 59.5542L180.447 53.3119L191.234 59.6446ZM169.124 59.2679L179.932 53.1159L169.124 46.7932L158.347 53.0406L169.124 59.2679ZM168.626 46.5872L157.833 52.7391L147.066 46.5018L157.863 40.2544L168.626 46.5872ZM146.534 46.2104L157.326 40.0585L146.539 33.7257L135.746 39.9681L146.534 46.2104ZM146.025 33.5303L135.227 39.6822L124.44 33.4399L135.232 27.1976L146.025 33.5303ZM282.174 111.687L292.972 105.445L282.179 99.092L271.387 105.334L282.174 111.687ZM281.668 98.9161L270.885 105.038L260.097 98.8006L270.885 92.5532L281.668 98.9161ZM259.566 98.6296L270.363 92.3873L259.576 86.0144L248.778 92.2618L259.566 98.6296ZM259.061 85.8594L248.268 91.9611L237.476 85.7238L248.273 79.4814L259.061 85.8594ZM236.965 85.5777L247.758 79.3304L236.97 73.093L226.178 79.3354L236.965 85.5777ZM236.456 72.8017L225.659 79.049L214.871 72.8067L225.664 66.5643L236.456 72.8017ZM214.356 72.516L225.154 66.2737L214.366 60.0314L203.569 66.2737L214.356 72.516ZM213.847 59.745L203.05 65.7965L192.262 59.5592L203.06 53.3119L213.847 59.745ZM191.757 59.2678L202.549 53.2163L191.762 46.7831L180.964 53.0305L191.757 59.2678ZM191.243 46.6876L180.45 52.7391L169.657 46.4968L180.455 40.2544L191.243 46.6876ZM169.126 46.2104L179.938 40.1589L169.131 33.7257L158.338 39.9681L169.126 46.2104ZM168.636 33.6306L157.838 39.6821L147.066 33.4197L157.863 27.1774L168.636 33.6306ZM146.534 33.3442L157.331 27.1019L146.564 20.6385L135.746 27.1069L146.534 33.3442Z" fill="url(#paint0_radial)"/>
<path opacity="0.4" d="M227.736 172.8L218.62 167.561L199.096 156.354L168.973 139.062L169.6 138.7L199.728 155.992L219.256 167.199L228.373 172.434L227.736 172.8Z" fill="#D6D8E5"/>
<path opacity="0.4" d="M133.773 115.238L133.133 115.6L104.352 99.1578L93.2543 92.8131L64.4727 76.3665L65.1075 76L93.8936 92.4465L104.995 98.7913L133.773 115.238Z" fill="#D6D8E5"/>
<path opacity="0.4" d="M77.2852 100.85L53.1309 86.5547C52.0066 85.8898 52.145 84.7241 53.4466 83.9573L76.9695 70.0347C78.2667 69.2678 80.2299 69.1836 81.3585 69.8485L105.513 84.1434C106.637 84.8083 106.494 85.9741 105.197 86.7409L81.6741 100.681C80.3726 101.43 78.4094 101.515 77.2852 100.85Z" fill="#D6D8E5"/>
<path d="M108.47 82.4135L107.285 82.7858L83.5557 68.7498C82.4311 68.085 80.463 68.1648 79.1654 68.936L55.6349 82.8567L55.5787 82.8966L54.5752 82.5731V84.1686C54.5687 84.2275 54.5687 84.2869 54.5752 84.3458V84.4788C54.6579 84.9062 54.9318 85.2689 55.3148 85.4583L79.4768 99.7513C80.6014 100.416 82.5695 100.332 83.8671 99.5651L107.398 85.6444C107.954 85.3886 108.353 84.868 108.462 84.2528L108.47 82.4135Z" fill="#D5D6E0"/>
<path d="M107.399 84.5426L93.4408 92.805L92.8138 93.1729L83.8717 98.4654C82.5744 99.2323 80.6113 99.3165 79.4828 98.6516L55.3287 84.3564C54.2044 83.6871 54.3471 82.5302 55.6443 81.7589L64.5864 76.4663L65.2091 76.094L79.1671 67.8405C80.4643 67.0648 82.4318 66.985 83.556 67.6499L107.71 81.9451C108.834 82.61 108.696 83.7757 107.399 84.5426Z" fill="#E9EAF4"/>
<path opacity="0.05" d="M79.3211 92.4998C88.13 92.4998 95.2711 88.3137 95.2711 83.1498C95.2711 77.9859 88.13 73.7998 79.3211 73.7998C70.5122 73.7998 63.3711 77.9859 63.3711 83.1498C63.3711 88.3137 70.5122 92.4998 79.3211 92.4998Z" fill="black"/>
<path opacity="0.3" d="M148.386 156.151L101.265 128.703C100.958 128.526 100.77 128.201 100.77 127.85C100.77 127.499 100.958 127.175 101.265 126.997L126.941 112.434C127.254 112.255 127.64 112.255 127.954 112.434L175.07 139.872C175.379 140.049 175.57 140.375 175.57 140.728C175.57 141.08 175.379 141.406 175.07 141.583L149.408 156.173C149.089 156.35 148.697 156.341 148.386 156.151Z" fill="#D6D8E5"/>
<path d="M159.073 63.9085V109.3C159.073 110.506 158.628 111.307 157.921 111.545L120.636 132.76L119.871 133.2L118.795 127.8L115.095 109.173L108.473 75.9528L146.554 54.2888C147.043 53.9103 147.723 53.8883 148.475 54.3152L156.413 58.8522C157.297 59.4229 157.992 60.2366 158.414 61.1933C158.833 62.0393 159.058 62.9665 159.073 63.9085Z" fill="#E9EAF4"/>
<path d="M157.971 63.3465V108.674C157.971 109.878 157.526 110.678 156.819 110.915L119.516 132.1C119.418 131.845 118.653 129.797 117.674 127.143C115.672 121.716 112.78 113.754 112.873 113.521C112.913 113.442 113.34 111.46 113.959 108.529C115.845 99.5821 119.525 81.7236 119.525 81.7236L157.299 60.6001C157.728 61.4545 157.958 62.393 157.971 63.3465Z" fill="url(#paint1_linear)"/>
<path d="M118.149 80.8133L110.914 76.3135C110.452 75.9551 109.845 75.8997 109.333 76.1694L108.644 76.5757L108.798 76.7679C108.57 77.242 108.458 77.7716 108.474 78.3057V123.356C108.474 125.296 109.568 127.546 110.906 128.385L118.141 132.884C119.49 133.723 120.572 132.832 120.572 130.897V85.8418C120.593 83.902 119.498 81.6521 118.149 80.8133Z" fill="white"/>
<path d="M117.039 132.885L109.803 128.381C108.453 127.542 107.371 125.292 107.371 123.357V78.3031C107.371 76.368 108.462 75.4768 109.803 76.3155L117.039 80.8148C118.385 81.6536 119.471 83.9076 119.471 85.8427V130.893C119.479 132.832 118.385 133.723 117.039 132.885Z" fill="#DFE0EA"/>
<path d="M116.172 87.8195V124.938C116.172 126.018 115.721 126.646 115.081 126.597C114.866 126.574 114.658 126.499 114.472 126.376L112.372 125.018C111.431 124.412 110.672 122.806 110.672 121.381V84.2665C110.672 82.8639 111.431 82.2223 112.372 82.8285L112.471 82.8949L114.472 84.1869C115.409 84.7931 116.172 86.4169 116.172 87.8195Z" fill="url(#paint2_linear)"/>
<path d="M116.17 87.5599V124.927C116.17 126.014 115.754 126.646 115.163 126.597L113.338 125.301C112.474 124.691 111.77 123.074 111.77 121.644V84.2771C111.77 83.1947 112.189 82.5577 112.769 82.6023L114.615 83.9029C115.465 84.5132 116.17 86.1479 116.17 87.5599Z" fill="url(#paint3_linear)"/>
<path d="M175.573 73.8128V119.2C175.573 120.411 175.128 121.207 174.417 121.449L137.141 142.66L136.381 143.1L135.296 137.705L131.593 119.077L124.973 85.8572L135.332 79.9604L135.741 79.7271L137.315 78.847L149.861 71.7093L150.093 71.5773L150.857 71.1372L163.066 64.1887C163.551 63.8102 164.231 63.7882 164.982 64.2151L172.918 68.7521C173.802 69.3254 174.499 70.1402 174.924 71.0976C175.338 71.9449 175.559 72.8716 175.573 73.8128Z" fill="#E9EAF4"/>
<path d="M176.67 74.3467V119.673C176.67 120.877 176.225 121.676 175.514 121.914L138.215 143.1C138.117 142.845 137.352 140.797 136.373 138.143C134.371 132.716 131.479 124.753 131.573 124.52C131.613 124.445 132.04 122.463 132.658 119.528C134.544 110.58 138.224 92.7205 138.224 92.7205L175.999 71.6001C176.426 72.4549 176.656 73.3932 176.67 74.3467Z" fill="url(#paint4_linear)"/>
<path d="M135.533 89.6101L127.64 85.1104C127.133 84.7559 126.472 84.7007 125.912 84.9663L125.164 85.3725L125.328 85.5648C125.079 86.0389 124.957 86.5684 124.974 87.1025V132.152C124.974 134.092 126.168 136.341 127.627 137.18L135.519 141.684C136.987 142.523 138.172 141.632 138.172 139.692V94.6384C138.194 92.6988 137.001 90.4402 135.533 89.6101Z" fill="white"/>
<path d="M137.073 96.8419V141.899C137.073 143.834 135.987 144.725 134.642 143.882L130.518 141.318L129.773 140.855L127.403 139.391C126.062 138.557 124.973 136.307 124.973 134.363V89.3063C124.973 87.3623 126.07 86.4799 127.403 87.3143L134.634 91.8138C135.979 92.6482 137.073 94.9023 137.073 96.8419Z" fill="#DFE0EA"/>
<path d="M134.871 98.824V135.938C134.871 137.018 134.42 137.646 133.78 137.597C133.564 137.576 133.356 137.501 133.171 137.376L131.071 136.018C130.13 135.412 129.371 133.783 129.371 132.381V95.2665C129.371 93.8639 130.13 93.2223 131.071 93.8285L131.174 93.8949L133.151 95.1869C134.112 95.7931 134.871 97.4213 134.871 98.824Z" fill="url(#paint5_linear)"/>
<path d="M133.771 98.5644V135.927C133.771 137.014 133.356 137.646 132.765 137.597L130.942 136.301C130.075 135.691 129.371 134.074 129.371 132.644V95.2816C129.371 94.1947 129.79 93.5577 130.374 93.6023L132.196 94.9029C133.071 95.5132 133.771 97.1524 133.771 98.5644Z" fill="url(#paint6_linear)"/>
<path d="M193.17 84.7979V130.194C193.17 131.4 192.726 132.201 192.019 132.443L154.743 153.66L153.979 154.1L152.898 148.721L149.19 130.088L142.57 96.8589L180.641 75.1888C181.126 74.8102 181.806 74.7882 182.558 75.2152L190.494 79.7534C191.38 80.3244 192.077 81.1402 192.499 82.0996C192.921 82.9391 193.15 83.8605 193.17 84.7979Z" fill="#E9EAF4"/>
<path d="M193.17 84.2468V129.571C193.17 130.775 192.725 131.575 192.018 131.817L154.715 153C154.618 152.745 153.852 150.701 152.869 148.047C150.867 142.615 147.975 134.651 148.073 134.423C148.113 134.348 148.54 132.366 149.158 129.43C151.045 120.482 154.72 102.622 154.72 102.622L192.498 81.5C192.928 82.3542 193.158 83.293 193.17 84.2468Z" fill="url(#paint7_linear)"/>
<path d="M153.126 101.71L145.234 97.2105C144.727 96.856 144.065 96.8008 143.505 97.0664L142.758 97.4726L142.926 97.6649C142.674 98.1381 142.552 98.6683 142.572 99.2026V144.256C142.572 146.192 143.766 148.442 145.225 149.28L153.117 153.784C154.59 154.623 155.77 153.732 155.77 151.792V106.739C155.788 104.794 154.598 102.549 153.126 101.71Z" fill="white"/>
<path d="M153.117 153.785L145.224 149.281C143.751 148.443 142.57 146.193 142.57 144.258V99.203C142.57 97.2679 143.764 96.3767 145.224 97.2154L153.117 101.719C154.585 102.558 155.77 104.808 155.77 106.743V151.797C155.779 153.728 154.585 154.624 153.117 153.785Z" fill="#DFE0EA"/>
<path d="M151.371 108.723V145.834C151.371 146.914 150.921 147.542 150.281 147.498C150.065 147.476 149.857 147.399 149.672 147.272L147.57 145.914C146.634 145.308 145.871 143.702 145.871 142.277V105.166C145.871 103.764 146.634 103.122 147.57 103.728L147.673 103.795L149.672 105.087C150.581 105.693 151.371 107.321 151.371 108.723Z" fill="url(#paint8_linear)"/>
<path d="M151.373 108.464V145.823C151.373 146.91 150.957 147.542 150.366 147.498L148.541 146.197C147.677 145.587 146.973 143.97 146.973 142.541V105.181C146.973 104.095 147.389 103.458 147.972 103.502L149.818 104.803C150.643 105.413 151.373 107.052 151.373 108.464Z" fill="url(#paint9_linear)"/>
<path opacity="0.4" d="M243.772 74.1685L214.701 90.9089L200.889 98.8594L171.818 115.6L171.172 115.231L200.239 98.4863L214.05 90.5402L243.131 73.7998L243.772 74.1685Z" fill="#D6D8E5"/>
<path opacity="0.4" d="M223.585 99.7512L199.432 85.4555C198.307 84.7906 198.446 83.6248 199.747 82.8579L223.27 68.9346C224.567 68.1677 226.534 68.0835 227.658 68.7484L251.812 83.0441C252.936 83.709 252.798 84.8748 251.496 85.6417L227.952 99.565C226.655 100.332 224.688 100.416 223.585 99.7512Z" fill="#D6D8E5"/>
<path d="M253.661 81.3159L252.472 81.6882L228.747 67.6503C227.623 66.9854 225.659 67.0652 224.358 67.8364L200.832 81.7591C200.813 81.7709 200.794 81.7842 200.776 81.799L199.773 81.4754V83.0712C199.768 83.1302 199.768 83.1894 199.773 83.2485V83.3814C199.859 83.8071 200.132 84.1684 200.512 84.361L224.686 98.6516C225.815 99.3165 227.779 99.2323 229.076 98.4654L252.601 84.5428C253.16 84.2881 253.56 83.7672 253.67 83.1509L253.661 81.3159Z" fill="#D5D6E0"/>
<path d="M224.699 97.5515L200.528 83.2558C199.404 82.5909 199.546 81.4251 200.844 80.6582L224.366 66.7349C225.663 65.968 227.63 65.8838 228.754 66.5487L252.908 80.8444C254.037 81.5093 253.894 82.6751 252.592 83.442L229.07 97.3653C227.773 98.1322 225.81 98.2164 224.699 97.5515Z" fill="#E9EAF4"/>
<path opacity="0.05" d="M225.622 91.4002C234.431 91.4002 241.572 87.2141 241.572 82.0502C241.572 76.8863 234.431 72.7002 225.622 72.7002C216.813 72.7002 209.672 76.8863 209.672 82.0502C209.672 87.2141 216.813 91.4002 225.622 91.4002Z" fill="black"/>
<path opacity="0.4" d="M218.084 181.152L193.93 166.864C192.806 166.2 192.949 165.039 194.246 164.268L217.768 150.335C219.065 149.568 221.033 149.484 222.157 150.149L246.31 164.436C247.439 165.105 247.296 166.266 245.995 167.033L222.472 180.948C221.175 181.737 219.199 181.817 218.084 181.152Z" fill="#D6D8E5"/>
<path d="M248.17 162.713L246.984 163.085L223.255 149.049C222.13 148.384 220.162 148.468 218.865 149.235L195.334 163.156L195.278 163.196L194.274 162.873V164.473C194.268 164.53 194.268 164.588 194.274 164.645V164.778C194.357 165.206 194.631 165.569 195.014 165.758L219.176 180.052C220.301 180.716 222.264 180.632 223.566 179.865L247.105 165.94C247.662 165.684 248.06 165.163 248.17 164.548V162.713Z" fill="#D5D6E0"/>
<path d="M219.184 178.944L195.029 164.644C193.905 163.979 194.043 162.817 195.345 162.045L218.868 148.135C220.165 147.368 222.133 147.284 223.257 147.949L247.411 162.249C248.535 162.919 248.393 164.081 247.096 164.848L223.573 178.776C222.271 179.53 220.291 179.618 219.184 178.944Z" fill="#E9EAF4"/>
<path opacity="0.05" d="M220.122 172.8C228.931 172.8 236.072 168.614 236.072 163.45C236.072 158.286 228.931 154.1 220.122 154.1C211.313 154.1 204.172 158.286 204.172 163.45C204.172 168.614 211.313 172.8 220.122 172.8Z" fill="black"/>
<path d="M68.3789 72.0522L79.7676 66.3784L91.1562 72.0522L79.7676 77.7291L68.3789 72.0522Z" fill="#D6D8E5"/>
<path d="M79.7676 89.0766L68.3789 83.4029V72.0522L79.7676 77.7292V89.0766Z" fill="#B1B6C4"/>
<path d="M91.1543 83.4029L79.7656 89.0766V77.7292L91.1543 72.0522V83.4029Z" fill="#C4C7D6"/>
<path d="M91.1573 80.4377V72.0078L83.4023 75.9158L86.3907 81.2478L91.1573 80.4377Z" fill="#C4C7D6"/>
<path d="M86.0742 72.4953L89.0516 71.0049L91.1562 72.0523L88.0689 73.5649L86.0742 72.4953Z" fill="#D6D8E5"/>
<path d="M209.074 75.4109L219.428 70.2529L229.781 75.4109L219.428 80.5717L209.074 75.4109Z" fill="#D6D8E5"/>
<path d="M219.428 90.8874L209.074 85.7294V75.4106L219.428 80.5715V90.8874Z" fill="#B1B6C4"/>
<path d="M229.779 85.7294L219.426 90.8874V80.5715L229.779 75.4106V85.7294Z" fill="#C4C7D6"/>
<path d="M229.78 83.0342V75.3706L222.73 78.9233L225.447 83.7706L229.78 83.0342Z" fill="#C4C7D6"/>
<path d="M225.16 75.8134L227.867 74.4585L229.78 75.4107L226.973 76.7858L225.16 75.8134Z" fill="#D6D8E5"/>
<path d="M203.074 149.411L213.428 144.253L223.781 149.411L213.428 154.572L203.074 149.411Z" fill="#D6D8E5"/>
<path d="M213.428 164.888L203.074 159.73V149.411L213.428 154.572V164.888Z" fill="#B1B6C4"/>
<path d="M223.779 159.73L213.426 164.888V154.572L223.779 149.411V159.73Z" fill="#C4C7D6"/>
<path d="M223.78 157.034V149.371L216.73 152.923L219.447 157.771L223.78 157.034Z" fill="#C4C7D6"/>
<path d="M219.16 149.814L221.867 148.459L223.78 149.411L220.973 150.786L219.16 149.814Z" fill="#D6D8E5"/>
</g>
<defs>
<radialGradient id="paint0_radial" cx="0" cy="0" r="1" gradientUnits="userSpaceOnUse" gradientTransform="translate(146.5 101.952) rotate(-25.9003) scale(107.669 87.9679)">
<stop stop-color="#0F72CD"/>
<stop offset="1" stop-color="#EFF3F9"/>
<stop offset="1" stop-color="#F4F6FA"/>
</radialGradient>
<linearGradient id="paint1_linear" x1="115.346" y1="94.8692" x2="148.065" y2="117.137" gradientUnits="userSpaceOnUse">
<stop stop-color="#E9EAF4"/>
<stop offset="0.04" stop-color="#DEDFE9"/>
<stop offset="0.1" stop-color="#D7D8E2"/>
<stop offset="0.27" stop-color="#D5D6E0"/>
</linearGradient>
<linearGradient id="paint2_linear" x1="110.672" y1="126.592" x2="116.172" y2="126.592" gradientUnits="userSpaceOnUse">
<stop stop-color="#0E6CC9"/>
<stop offset="1" stop-color="#1DB4FF"/>
</linearGradient>
<linearGradient id="paint3_linear" x1="111.77" y1="126.592" x2="116.169" y2="126.592" gradientUnits="userSpaceOnUse">
<stop stop-color="#7FBFFF"/>
<stop offset="1" stop-color="#1DB4FF"/>
</linearGradient>
<linearGradient id="paint4_linear" x1="134.048" y1="105.861" x2="166.762" y2="128.133" gradientUnits="userSpaceOnUse">
<stop stop-color="#E9EAF4"/>
<stop offset="0.04" stop-color="#DEDFE9"/>
<stop offset="0.1" stop-color="#D7D8E2"/>
<stop offset="0.27" stop-color="#D5D6E0"/>
</linearGradient>
<linearGradient id="paint5_linear" x1="129.371" y1="137.592" x2="134.871" y2="137.592" gradientUnits="userSpaceOnUse">
<stop stop-color="#0E6CC9"/>
<stop offset="1" stop-color="#1DB4FF"/>
</linearGradient>
<linearGradient id="paint6_linear" x1="129.371" y1="137.592" x2="133.771" y2="137.592" gradientUnits="userSpaceOnUse">
<stop stop-color="#7FBFFF"/>
<stop offset="1" stop-color="#1DB4FF"/>
</linearGradient>
<linearGradient id="paint7_linear" x1="150.545" y1="115.767" x2="183.265" y2="138.035" gradientUnits="userSpaceOnUse">
<stop stop-color="#E9EAF4"/>
<stop offset="0.04" stop-color="#DEDFE9"/>
<stop offset="0.1" stop-color="#D7D8E2"/>
<stop offset="0.27" stop-color="#D5D6E0"/>
</linearGradient>
<linearGradient id="paint8_linear" x1="145.871" y1="147.492" x2="151.371" y2="147.492" gradientUnits="userSpaceOnUse">
<stop stop-color="#0E6CC9"/>
<stop offset="1" stop-color="#1DB4FF"/>
</linearGradient>
<linearGradient id="paint9_linear" x1="146.973" y1="147.492" x2="151.373" y2="147.492" gradientUnits="userSpaceOnUse">
<stop stop-color="#7FBFFF"/>
<stop offset="1" stop-color="#1DB4FF"/>
</linearGradient>
</defs>
</svg>
