<svg width="285" height="209" viewBox="0 0 285 209" fill="none" xmlns="http://www.w3.org/2000/svg">
<mask id="mask0" mask-type="alpha" maskUnits="userSpaceOnUse" x="0" y="0" width="285" height="209">
<rect width="285" height="209" fill="#C4C4C4"/>
</mask>
<g mask="url(#mask0)">
<path opacity="0.42148" fill-rule="evenodd" clip-rule="evenodd" d="M141.454 205L-2 122.024L141.566 39L285 121.976L141.454 205ZM141.454 204.404L151.958 198.326L141.459 192.258L130.959 198.331L141.454 204.404ZM140.961 191.974L130.456 198.052L119.961 191.974L130.466 185.901L140.961 191.974ZM119.459 191.696L129.964 185.623L119.469 179.55L108.964 185.623L119.459 191.696ZM118.966 179.271L108.466 185.344L97.9665 179.271L108.471 173.193L118.966 179.271ZM97.469 178.978L107.969 172.92L97.4739 166.842L86.974 172.92L97.469 178.978ZM96.9765 166.568L86.457 172.622L75.9766 166.568L86.457 160.476L96.9765 166.568ZM75.4743 166.26L85.9791 160.217L75.484 154.114L64.9987 160.187L75.4743 166.26ZM74.9817 153.865L64.4769 159.899L53.9818 153.826L64.511 147.753L74.9817 153.865ZM53.4844 153.538L63.9843 147.514L53.4892 141.392L42.9844 147.47L53.4844 153.538ZM52.9869 141.162L42.487 147.177L31.987 141.108L42.4919 135.03L52.9869 141.162ZM31.4896 140.815L41.9895 134.811L31.4945 128.674L20.9945 134.747L31.4896 140.815ZM30.997 128.459L20.4922 134.537L9.99715 128.464L20.502 122.391L30.997 128.459ZM9.49483 128.185L19.9996 122.107L9.50458 116.039L-1.00024 122.112L9.49483 128.185ZM162.961 191.974L152.456 198.048L141.961 191.974L152.466 185.901L162.961 191.974ZM141.459 191.696L151.963 185.623L141.468 179.545L130.963 185.623L141.459 191.696ZM140.966 179.271L130.466 185.344L119.966 179.271L130.471 173.193L140.966 179.271ZM119.469 178.978L129.969 172.92L119.474 166.847L108.974 172.92L119.469 178.978ZM118.976 166.568L108.471 172.646L97.9762 166.568L108.476 160.495L118.976 166.568ZM97.4739 166.29L107.979 160.217L97.4836 154.144L86.9788 160.217L97.4739 166.29ZM96.9813 153.865L86.457 159.894L75.9814 153.826L86.4863 147.748L96.9813 153.865ZM75.484 153.533L85.9839 147.514L75.5035 141.387L64.9987 147.465L75.484 153.533ZM74.9866 141.162L64.511 147.172L53.9916 141.103L64.511 135.03L74.9866 141.162ZM53.4892 140.815L63.994 134.811L53.4941 128.669L42.9942 134.742L53.4892 140.815ZM52.9967 128.459L42.4919 134.454L31.9968 128.381L42.5016 122.308L52.9967 128.459ZM31.4945 128.093L41.9993 122.107L31.5042 115.946L20.9994 122.02L31.4945 128.093ZM31.0019 115.756L20.502 121.829L10.002 115.761L20.5068 109.683L31.0019 115.756ZM163.463 191.691L173.963 185.623L163.468 179.545L152.963 185.623L163.463 191.691ZM162.966 179.271L152.466 185.349L141.971 179.271L152.471 173.198L162.966 179.271ZM141.468 178.973L151.973 172.92L141.473 166.847L130.973 172.92L141.468 178.973ZM140.976 166.568L130.471 172.641L119.976 166.568L130.481 160.495L140.976 166.568ZM119.474 166.251L129.978 160.217L119.483 154.105L108.978 160.183L119.474 166.251ZM118.981 153.865L108.476 159.938L97.9811 153.87L108.486 147.792L118.981 153.865ZM97.4836 153.587L107.984 147.514L97.4885 141.441L86.9837 147.519L97.4836 153.587ZM96.9862 141.162L86.4863 147.172L75.9912 141.099L86.4911 135.026L96.9862 141.162ZM75.4889 140.81L85.9937 134.811L75.4986 128.664L64.9987 134.737L75.4889 140.81ZM74.9963 128.459L64.511 134.449L53.9964 128.376L64.511 122.303L74.9963 128.459ZM53.4941 128.088L64.0233 122.015L53.5039 115.942L42.9991 122.02L53.4941 128.088ZM53.0259 115.663L42.5016 121.726L32.0017 115.658L42.5065 109.58L53.0259 115.663ZM31.5042 115.37L42.0285 109.312L31.5091 103.224L21.0092 109.297L31.5042 115.37ZM184.97 179.271L174.465 185.33L163.97 179.271L174.47 173.198L184.97 179.271ZM163.473 178.993L173.978 172.92L163.473 166.847L152.973 172.92L163.473 178.993ZM162.98 166.568L152.475 172.641L141.98 166.573L152.485 160.495L162.98 166.568ZM141.478 166.29L151.983 160.217L141.488 154.144L130.983 160.222L141.478 166.29ZM140.985 153.865L130.486 159.938L119.981 153.816L130.486 147.743L140.985 153.865ZM119.488 153.592L129.988 147.514L119.493 141.445L108.988 147.519L119.488 153.592ZM118.991 141.162L108.491 147.24L97.9957 141.167L108.496 135.094L118.991 141.162ZM97.4934 140.884L107.998 134.811L97.4934 128.659L86.9935 134.732L97.4934 140.884ZM97.0008 128.459L86.496 134.532L75.9961 128.376L86.5009 122.298L97.0008 128.459ZM75.4938 128.083L86.0035 122.107L75.5035 115.937L64.9987 122.015L75.4938 128.083ZM75.0061 115.756L64.511 121.726L54.0013 115.653L64.511 109.58L75.0061 115.756ZM53.5039 115.365L64.0233 109.287L53.5087 103.219L43.0088 109.292L53.5039 115.365ZM53.0308 102.936L42.5065 109.004L32.0114 102.931L42.5114 96.8577L53.0308 102.936ZM185.458 178.964L195.972 172.891L185.458 166.817L174.973 172.92L185.458 178.964ZM184.975 166.539L174.47 172.612L164 166.534L174.504 160.456L184.975 166.539ZM163.473 166.26L173.978 160.187L163.483 154.1L152.978 160.173L163.473 166.26ZM162.98 153.836L152.48 159.914L141.98 153.841L152.485 147.768L162.98 153.836ZM141.483 153.523L151.983 147.484L141.488 141.377L130.988 147.45L141.483 153.523ZM140.99 141.133L130.486 147.206L119.99 141.133L130.49 135.06L140.99 141.133ZM119.488 140.854L129.993 134.781L119.498 128.708L108.993 134.786L119.488 140.854ZM118.996 128.43L108.491 134.503L97.9957 128.435L108.501 122.357L118.996 128.43ZM97.4934 128.156L107.998 122.078L97.5032 115.937L86.9983 122.01L97.4934 128.156ZM97.0008 115.727L86.5009 121.805L76.001 115.648L86.5058 109.575L97.0008 115.727ZM75.5035 115.36L86.0035 109.375L75.4986 103.214L64.9987 109.287L75.5035 115.36ZM75.0109 103.024L64.511 108.999L54.0111 102.931L64.511 96.8528L75.0109 103.024ZM53.5087 102.638L64.0233 96.5645L53.5185 90.4915L43.0137 96.5694L53.5087 102.638ZM206.975 166.524L196.47 172.597L185.975 166.529L196.48 160.451L206.975 166.524ZM185.458 166.241L195.977 160.173L185.482 154.095L174.977 160.168L185.458 166.241ZM184.98 153.821L174.48 159.899L164 153.807L174.504 147.734L184.98 153.821ZM163.483 153.543L173.987 147.47L163.512 141.372L152.988 147.47L163.483 153.543ZM162.99 141.118L152.485 147.191L141.99 141.123L152.49 135.045L162.99 141.118ZM141.488 140.84L151.993 134.767L141.498 128.694L130.993 134.771L141.488 140.84ZM140.995 128.415L130.49 134.493L119.995 128.42L130.5 122.347L140.995 128.415ZM119.498 128.141L129.998 122.064L119.503 115.995L108.998 122.068L119.498 128.141ZM119 115.712L108.501 121.717L98.0055 115.644L108.505 109.571L119 115.712ZM97.5032 115.433L108.008 109.36L97.508 103.287L87.0081 109.365L97.5032 115.433ZM97.0106 103.009L86.5058 108.994L76.0107 102.926L86.5155 96.8479L97.0106 103.009ZM75.5084 102.633L86.0132 96.6573L75.5035 90.4866L64.9987 96.5645L75.5084 102.633ZM75.0158 90.3058L64.511 96.2763L54.0159 90.2032L64.511 84.1301L75.0158 90.3058ZM207.477 166.236L217.977 160.158L207.482 154.09L196.977 160.163L207.477 166.236ZM206.98 153.807L196.48 159.875L185.985 153.802L196.484 147.729L206.98 153.807ZM185.482 153.528L195.987 147.455L185.487 141.382L174.987 147.46L185.482 153.528ZM184.99 141.103L174.485 147.152L164 141.084L174.504 135.006L184.99 141.103ZM163.512 140.796L173.992 134.752L163.512 128.65L153.017 134.723L163.512 140.796ZM162.995 128.4L152.49 134.434L141.995 128.361L152.5 122.288L162.995 128.4ZM141.498 128.127L151.997 122.049L141.502 115.981L130.998 122.054L141.498 128.127ZM141 115.697L130.5 121.77L120.005 115.697L130.505 109.624L141 115.697ZM119.503 115.419L130.008 109.346L119.508 103.273L109.008 109.351L119.503 115.419ZM119.01 102.994L108.505 109.067L98.0103 102.999L108.515 96.9212L119.01 102.994ZM97.508 102.721L108.013 96.6427L97.5178 90.5745L87.013 96.6476L97.508 102.721ZM97.0155 90.2911L86.5155 96.3691L76.0156 90.1983L86.5204 84.1253L97.0155 90.2911ZM75.5181 89.9101L86.0181 83.9396L75.523 77.764L65.0231 83.837L75.5181 89.9101ZM228.979 153.797L218.479 159.87L207.984 153.802L218.484 147.724L228.979 153.797ZM207.482 153.518L217.987 147.445L207.487 141.372L196.987 147.45L207.482 153.518ZM206.989 141.094L196.484 147.172L185.989 141.099L196.494 135.026L206.989 141.094ZM185.487 140.82L195.992 134.742L185.497 128.674L174.992 134.747L185.487 140.82ZM184.995 128.391L174.495 134.469L164 128.356L174.504 122.283L184.995 128.391ZM163.512 128.068L173.997 122.039L163.512 115.922L153.017 121.995L163.512 128.068ZM163.005 115.688L152.5 121.761L142.005 115.639L152.505 109.561L163.005 115.688ZM141.502 115.409L152.007 109.336L141.512 103.263L131.007 109.341L141.502 115.409ZM141.01 102.984L130.505 109.062L120.01 102.916L130.515 96.843L141.01 102.984ZM119.508 102.711L130.012 96.6329L119.517 90.4817L109.013 96.5547L119.508 102.711ZM119.015 90.2814L108.515 96.3544L98.0152 90.1934L108.52 84.1204L119.015 90.2814ZM97.5178 90.0029L108.018 83.9298L97.5227 77.8568L87.0227 83.9347L97.5178 90.0029ZM97.0252 77.5783L86.5204 83.6513L76.0253 77.4757L86.5253 71.3978L97.0252 77.5783ZM229.482 153.504L239.986 147.431L229.486 141.362L218.986 147.435L229.482 153.504ZM228.989 141.079L218.484 147.157L207.989 141.074L218.494 135.001L228.989 141.079ZM207.487 140.805L217.992 134.728L207.496 128.64L196.992 134.713L207.487 140.805ZM206.994 128.376L196.494 134.449L185.994 128.352L196.499 122.278L206.994 128.376ZM185.497 128.097L195.997 122.024L185.502 115.951L175.002 122.029L185.497 128.097ZM185.004 115.673L174.499 121.746L164 115.634L174.499 109.556L185.004 115.673ZM163.512 115.346L174.007 109.321L163.512 103.199L153.017 109.272L163.512 115.346ZM163.024 102.906L152.519 108.984L142.024 102.911L152.529 96.8381L163.024 102.906ZM141.527 102.628L152.027 96.5547L141.532 90.4817L131.027 96.5547L141.527 102.628ZM141.029 90.2032L130.515 96.2616L120.015 90.1934L130.52 84.1155L141.029 90.2032ZM119.532 89.9247L130.032 83.8517L119.537 77.7786L109.037 83.8565L119.532 89.9247ZM119.039 77.5001L108.535 83.5732L98.0396 77.505L108.544 71.432L119.039 77.5001ZM97.5373 77.2265L108.042 71.1486L97.547 65.0804L87.0422 71.1535L97.5373 77.2265ZM250.989 141.064L240.484 147.142L229.989 141.069L240.494 134.996L250.989 141.064ZM229.486 140.786L239.991 134.713L229.496 128.64L218.991 134.713L229.486 140.786ZM228.994 128.361L218.494 134.42L207.994 128.352L218.499 122.274L228.994 128.361ZM207.496 128.083L217.996 122.01L207.501 115.937L197.001 122.015L207.496 128.083ZM207.004 115.658L196.499 121.736L186.004 115.663L196.504 109.59L207.004 115.658ZM185.502 115.385L196.007 109.307L185.511 103.239L175.007 109.312L185.502 115.385ZM185.009 102.955L174.504 109.028L164 102.906L174.504 96.8332L185.009 102.955ZM163.512 102.618L174.012 96.6036L163.512 90.4719L153.012 96.5499L163.512 102.618ZM163.014 90.2521L152.514 96.3251L142.019 90.2569L152.519 84.179L163.014 90.2521ZM141.517 89.8954L152.022 83.9005L141.522 77.7542L131.022 83.8272L141.517 89.8954ZM141.025 77.549L130.52 83.6269L120.025 77.5539L130.529 71.4808L141.025 77.549ZM119.522 77.1581L130.027 71.1974L119.532 65.012L109.027 71.0851L119.522 77.1581ZM119.03 64.8459L108.53 70.8066L98.0299 64.7335L108.535 58.6605L119.03 64.8459ZM251.491 140.776L261.991 134.703L251.496 128.63L240.991 134.708L251.491 140.776ZM250.993 128.352L240.494 134.425L229.998 128.356L240.498 122.278L250.993 128.352ZM229.496 128.058L240.001 122L229.501 115.912L219.001 121.985L229.496 128.058ZM229.004 115.648L218.499 121.726L208.004 115.653L218.509 109.58L229.004 115.648ZM207.501 115.336L218.006 109.297L207.511 103.19L197.006 109.263L207.501 115.336ZM207.009 102.945L196.504 109.018L186.009 102.906L196.514 96.8284L207.009 102.945ZM185.511 102.613L196.011 96.5938L185.516 90.467L175.012 96.545L185.511 102.613ZM185.014 90.2423L174.514 96.3153L164 90.1837L174.499 84.1106L185.014 90.2423ZM163.512 89.8954L174.022 83.8907L163.512 77.7493L153.017 83.8223L163.512 89.8954ZM163.024 77.5392L152.519 83.6171L142.024 77.5441L152.529 71.471L163.024 77.5392ZM141.522 77.1581L152.027 71.1877L141.532 65.0267L131.027 71.0997L141.522 77.1581ZM141.029 64.8361L130.529 70.8066L120.03 64.7384L130.534 58.6605L141.029 64.8361ZM119.532 64.455L130.032 58.4846L119.537 52.304L109.037 58.382L119.532 64.455ZM272.993 128.337L262.513 134.415L252.018 128.342L262.513 122.269L272.993 128.337ZM251.496 128.063L262.001 121.985L251.501 115.917L241.001 121.99L251.496 128.063ZM251.003 115.634L240.498 121.707L230.003 115.634L240.508 109.561L251.003 115.634ZM229.501 115.355L240.006 109.282L229.511 103.209L219.006 109.287L229.501 115.355ZM229.008 102.931L218.508 109.004L208.009 102.936L218.513 96.8577L229.008 102.931ZM207.511 102.652L218.011 96.5792L207.516 90.511L197.011 96.5841L207.511 102.652ZM207.019 90.2276L196.514 96.3056L186.019 90.2325L196.519 84.1595L207.019 90.2276ZM185.516 89.954L196.021 83.8761L185.526 77.7444L175.021 83.8175L185.516 89.954ZM185.024 77.5245L174.519 83.5097L164.024 77.4366L174.529 71.3636L185.024 77.5245ZM163.512 77.1581L174.026 71.173L163.512 65.0218L153.027 71.0997L163.512 77.1581ZM163.029 64.8215L152.529 70.8066L142.054 64.7384L152.558 58.6605L163.029 64.8215ZM141.532 64.455L152.032 58.4699L141.537 52.3089L131.037 58.382L141.532 64.455ZM141.039 52.1184L130.534 58.1035L120.039 52.0304L130.539 45.9574L141.039 52.1184ZM273.495 128.156L284 122.083L273.5 115.903L263 121.976L273.495 128.156ZM273.003 115.732L262.513 121.687L252.018 115.619L262.513 109.541L273.003 115.732ZM251.501 115.453L262.005 109.38L251.51 103.18L241.006 109.258L251.501 115.453ZM251.008 103.028L240.508 108.965L230.008 102.897L240.513 96.8235L251.008 103.028ZM229.511 102.755L240.011 96.6769L229.516 90.6087L219.016 96.6818L229.511 102.755ZM229.018 90.3253L218.513 96.4033L208.018 90.3302L218.518 84.2572L229.018 90.3253ZM207.516 90.0469L218.021 83.9738L207.526 77.9008L197.021 83.9738L207.516 90.0469ZM207.023 77.6223L196.519 83.5097L186.024 77.4415L196.528 71.3636L207.023 77.6223ZM185.526 77.1581L196.026 71.2707L185.531 65.012L175.026 71.0899L185.526 77.1581ZM185.029 64.9192L174.529 70.8066L164.029 64.7335L174.534 58.6605L185.029 64.9192ZM163.512 64.455L174.031 58.5676L163.517 52.3089L153.017 58.382L163.512 64.455ZM163.039 52.2161L152.534 58.1035L142.054 52.0109L152.558 45.9378L163.039 52.2161ZM141.537 51.9376L152.041 45.8646L141.566 39.5765L131.042 45.8694L141.537 51.9376Z" fill="url(#paint0_radial)"/>
<path d="M204.595 135.564L118.651 86.2041C117.445 85.5204 116.469 83.6541 116.469 82.0577V15.9247C116.469 14.3249 117.445 13.59 118.651 14.2839L204.595 63.6436C205.802 64.3272 206.778 66.1936 206.778 67.7899V133.923C206.791 135.523 205.815 136.258 204.595 135.564Z" fill="#B1B4C4"/>
<path d="M205.051 136.247L206.003 135.7L205.59 132.894L205.051 136.247Z" fill="#B1B4C4"/>
<path d="M116.312 14.6836L117.251 14.1436L118.598 14.9092C118.598 14.9092 117.161 15.1246 117.127 15.1178C117.093 15.1109 116.312 14.6836 116.312 14.6836Z" fill="#B1B4C4"/>
<path d="M203.82 136.032L117.862 86.6587C116.655 85.975 115.676 84.1087 115.676 82.5089V16.393C115.676 14.7932 116.655 14.0583 117.862 14.7522L203.82 64.1118C205.026 64.7955 206.002 66.6619 206.002 68.2616V134.378C206.002 135.974 205.026 136.716 203.82 136.032Z" fill="#E4E7F2"/>
<path d="M203.671 136.104L117.713 86.7441C116.507 86.0605 115.527 84.1941 115.527 82.5944V16.4613C115.527 14.865 116.507 14.1301 117.713 14.8205L203.671 64.1802C204.874 64.8639 205.854 66.7302 205.854 68.33V134.463C205.854 136.063 204.874 136.798 203.671 136.104Z" fill="#D6D8E5"/>
<path d="M204.671 132.08L116.613 81.5209L116.665 16.7346C116.665 16.0714 117.132 15.8014 117.696 16.133L203.654 65.4926C204.266 65.896 204.649 66.5647 204.685 67.2941L204.671 132.08Z" fill="white"/>
<path opacity="0.5" d="M204.644 132.084L116.613 81.5243L116.641 16.7346C116.641 16.0714 117.108 15.8014 117.672 16.133L203.63 65.4926C204.241 65.8964 204.624 66.5649 204.661 67.2941L204.644 132.084Z" fill="url(#paint1_linear)"/>
<path opacity="0.4" d="M138.838 174.532L52.8803 125.172C51.674 124.488 51.8252 123.271 53.224 122.471L110.808 89.4032C112.182 88.6067 114.306 88.5179 115.509 89.2118L201.471 138.571C202.674 139.255 202.522 140.472 201.127 141.272L143.54 174.34C142.148 175.137 140.041 175.225 138.838 174.532Z" fill="#D6D8E5"/>
<path d="M140.716 173.411L54.7514 124.068C53.5451 123.384 53.6963 122.167 55.0951 121.368L112.679 88.3028C114.053 87.5029 116.177 87.414 117.384 88.1079L203.342 137.468C204.548 138.151 204.397 139.368 202.998 140.168L145.421 173.219C144.029 174.016 141.923 174.104 140.716 173.411Z" fill="#B1B4C4"/>
<path d="M53.9414 122.937V121.323L55.7629 122.082L53.9414 122.937Z" fill="#B1B4C4"/>
<path d="M204.156 138.657V137.081L202.809 137.543L203.702 138.848L204.156 138.657Z" fill="#B1B4C4"/>
<path d="M140.716 172.054L54.7514 122.701C53.5451 122.017 53.6963 120.8 55.0951 120L112.679 86.9322C114.053 86.1323 116.177 86.0468 117.384 86.7407L203.342 136.1C204.548 136.784 204.397 138.001 202.998 138.801L145.421 171.859C144.029 172.659 141.923 172.748 140.716 172.054Z" fill="#E4E7F2"/>
<path d="M140.716 171.845L54.7514 122.485C53.5451 121.801 53.6963 120.581 55.0951 119.785L112.679 86.7164C114.053 85.9165 116.177 85.8311 117.384 86.5216L203.342 135.885C204.548 136.568 204.397 137.785 202.998 138.585L145.421 171.65C144.029 172.45 141.923 172.535 140.716 171.845Z" fill="#D6D8E5"/>
<path d="M111.083 97.8706L107.083 95.5735C106.739 95.3855 106.798 95.0574 107.172 94.842L110.994 92.6475C111.386 92.4307 111.858 92.4117 112.266 92.5962L116.27 94.8933C116.596 95.0813 116.555 95.4095 116.177 95.6248L112.358 97.8193C111.966 98.0362 111.493 98.0552 111.083 97.8706Z" fill="#2B303F"/>
<path d="M116.748 101.125L112.744 98.8241C112.417 98.6395 112.458 98.3113 112.836 98.0926L116.655 95.9015C117.048 95.6846 117.521 95.6656 117.93 95.8502L121.93 98.1473C122.274 98.3353 122.215 98.6634 121.841 98.8788L118.019 101.07C117.628 101.289 117.156 101.31 116.748 101.125Z" fill="#2B303F"/>
<path d="M122.478 104.416L118.478 102.116C118.134 101.928 118.192 101.6 118.567 101.384L122.389 99.1931C122.779 98.9736 123.252 98.9532 123.66 99.1384L127.664 101.439C128.008 101.623 127.949 101.952 127.571 102.17L123.753 104.362C123.36 104.577 122.888 104.598 122.478 104.416Z" fill="#2B303F"/>
<path d="M128.08 107.629L124.076 105.332C123.749 105.144 123.79 104.816 124.168 104.601L127.987 102.406C128.38 102.189 128.853 102.17 129.262 102.355L133.266 104.652C133.592 104.84 133.551 105.168 133.173 105.384L129.355 107.578C128.962 107.795 128.489 107.814 128.08 107.629Z" fill="#2B303F"/>
<path d="M133.747 110.884L129.743 108.587C129.399 108.399 129.458 108.071 129.836 107.855L133.654 105.661C134.047 105.444 134.52 105.425 134.929 105.609L138.929 107.907C139.256 108.095 139.215 108.423 138.837 108.638L135.018 110.833C134.627 111.049 134.155 111.068 133.747 110.884Z" fill="#2B303F"/>
<path d="M139.414 114.155L135.413 111.858C135.087 111.67 135.124 111.342 135.502 111.126L139.321 108.932C139.714 108.715 140.187 108.696 140.596 108.88L144.6 111.178C144.926 111.366 144.885 111.694 144.507 111.909L140.689 114.104C140.296 114.32 139.823 114.339 139.414 114.155Z" fill="#2B303F"/>
<path d="M145.08 117.392L141.076 115.095C140.749 114.907 140.79 114.579 141.168 114.364L144.987 112.169C145.38 111.952 145.853 111.933 146.262 112.118L150.262 114.415C150.589 114.603 150.548 114.931 150.173 115.146L146.351 117.337C145.961 117.557 145.488 117.577 145.08 117.392Z" fill="#2B303F"/>
<path d="M150.744 120.65L146.744 118.349C146.417 118.161 146.459 117.836 146.833 117.618L150.655 115.427C151.046 115.207 151.518 115.187 151.927 115.372L155.931 117.672C156.274 117.86 156.216 118.185 155.838 118.404L152.013 120.592C151.623 120.81 151.152 120.831 150.744 120.65Z" fill="#2B303F"/>
<path d="M156.412 123.897L152.408 121.6C152.081 121.412 152.122 121.084 152.5 120.869L156.319 118.678C156.711 118.458 157.184 118.438 157.594 118.623L161.594 120.923C161.921 121.108 161.88 121.436 161.505 121.655L157.687 123.846C157.294 124.063 156.821 124.082 156.412 123.897Z" fill="#2B303F"/>
<path d="M162.073 127.145L158.072 124.847C157.746 124.659 157.787 124.331 158.161 124.116L161.976 121.928C162.368 121.711 162.84 121.692 163.248 121.877L167.252 124.174C167.578 124.362 167.537 124.69 167.159 124.906L163.351 127.1C162.956 127.316 162.482 127.332 162.073 127.145Z" fill="#2B303F"/>
<path d="M167.74 130.405L163.736 128.108C163.409 127.92 163.451 127.592 163.829 127.377L167.647 125.182C168.04 124.965 168.513 124.946 168.922 125.131L172.926 127.428C173.252 127.616 173.211 127.944 172.833 128.16L169.015 130.354C168.622 130.571 168.149 130.59 167.74 130.405Z" fill="#2B303F"/>
<path d="M173.408 133.66L169.404 131.363C169.077 131.175 169.119 130.846 169.497 130.631L173.318 128.437C173.711 128.22 174.184 128.201 174.593 128.385L178.594 130.682C178.937 130.87 178.879 131.199 178.501 131.414L174.693 133.608C174.298 133.83 173.82 133.849 173.408 133.66Z" fill="#2B303F"/>
<path d="M179.073 136.914L175.072 134.613C174.729 134.425 174.784 134.1 175.162 133.882L178.98 131.69C179.372 131.472 179.845 131.452 180.255 131.636L184.259 133.936C184.585 134.124 184.544 134.449 184.166 134.668L180.348 136.859C179.956 137.078 179.482 137.099 179.073 136.914Z" fill="#2B303F"/>
<path d="M187.469 141.733L180.736 137.867C180.409 137.679 180.451 137.351 180.829 137.136L184.661 134.945C185.053 134.725 185.526 134.705 185.936 134.89L192.651 138.766C192.978 138.954 192.936 139.282 192.562 139.498L188.74 141.692C188.347 141.906 187.875 141.921 187.469 141.733Z" fill="#2B303F"/>
<path d="M113.997 105.849L109.993 103.558C109.649 103.37 109.708 103.042 110.086 102.827L113.904 100.632C114.297 100.416 114.77 100.397 115.179 100.581L119.179 102.875C119.506 103.063 119.465 103.391 119.09 103.606L115.268 105.801C114.876 106.017 114.404 106.034 113.997 105.849Z" fill="#2B303F"/>
<path d="M119.67 109.11L115.67 106.813C115.343 106.625 115.384 106.297 115.759 106.081L119.581 103.9C119.973 103.684 120.444 103.665 120.852 103.849L124.86 106.133C125.186 106.321 125.145 106.649 124.767 106.864L120.949 109.059C120.555 109.277 120.08 109.296 119.67 109.11Z" fill="#2B303F"/>
<path d="M125.348 112.367L121.344 110.07C121.001 109.882 121.059 109.554 121.437 109.339L125.255 107.144C125.648 106.927 126.121 106.908 126.531 107.093L130.531 109.39C130.857 109.578 130.816 109.906 130.442 110.121L126.62 112.316C126.228 112.533 125.756 112.552 125.348 112.367Z" fill="#2B303F"/>
<path d="M131.021 115.628L127.017 113.328C126.691 113.143 126.732 112.815 127.11 112.596L130.928 110.395C131.321 110.177 131.793 110.157 132.203 110.34L136.2 112.651C136.527 112.839 136.485 113.164 136.107 113.383L132.289 115.574C131.899 115.791 131.428 115.811 131.021 115.628Z" fill="#2B303F"/>
<path d="M136.651 118.862L132.65 116.548C132.324 116.36 132.365 116.035 132.74 115.816L136.561 113.625C136.952 113.406 137.425 113.385 137.833 113.571L141.837 115.871C142.18 116.056 142.122 116.384 141.744 116.603L137.919 118.807C137.528 119.023 137.058 119.043 136.651 118.862Z" fill="#2B303F"/>
<path d="M142.33 122.12L138.326 119.823C137.999 119.635 138.04 119.306 138.418 119.091L142.237 116.89C142.63 116.673 143.103 116.654 143.512 116.838L147.512 119.136C147.839 119.324 147.798 119.652 147.423 119.867L143.601 122.062C143.211 122.281 142.739 122.302 142.33 122.12Z" fill="#2B303F"/>
<path d="M148.005 125.377L144.001 123.08C143.675 122.892 143.716 122.564 144.094 122.349L147.913 120.158C148.304 119.938 148.778 119.918 149.188 120.103L153.191 122.403C153.518 122.588 153.477 122.916 153.099 123.135L149.28 125.326C148.887 125.543 148.415 125.562 148.005 125.377Z" fill="#2B303F"/>
<path d="M153.678 128.638L149.677 126.341C149.351 126.153 149.392 125.825 149.77 125.61L153.588 123.415C153.98 123.198 154.452 123.179 154.86 123.364L158.864 125.661C159.19 125.849 159.149 126.177 158.771 126.392L154.953 128.587C154.56 128.804 154.087 128.823 153.678 128.638Z" fill="#2B303F"/>
<path d="M159.356 131.896L155.352 129.598C155.009 129.41 155.067 129.082 155.445 128.867L159.263 126.672C159.656 126.456 160.129 126.437 160.538 126.621L164.539 128.918C164.865 129.106 164.827 129.434 164.449 129.65L160.631 131.844C160.238 132.061 159.765 132.08 159.356 131.896Z" fill="#2B303F"/>
<path d="M165.03 135.157L161.029 132.856C160.703 132.672 160.744 132.344 161.118 132.125L164.94 129.934C165.332 129.718 165.803 129.697 166.212 129.879L170.226 132.18C170.553 132.368 170.511 132.696 170.133 132.911L166.315 135.102C165.92 135.325 165.442 135.346 165.03 135.157Z" fill="#2B303F"/>
<path d="M170.708 138.425L166.705 136.128C166.378 135.94 166.419 135.612 166.797 135.396L170.616 133.202C171.009 132.985 171.481 132.966 171.891 133.15L175.891 135.448C176.218 135.636 176.176 135.964 175.802 136.179L171.98 138.374C171.588 138.59 171.116 138.609 170.708 138.425Z" fill="#2B303F"/>
<path d="M176.382 141.675L172.382 139.375C172.055 139.187 172.093 138.862 172.471 138.643L176.289 136.452C176.682 136.234 177.155 136.214 177.565 136.397L181.568 138.698C181.895 138.886 181.854 139.211 181.476 139.429L177.657 141.621C177.265 141.84 176.792 141.86 176.382 141.675Z" fill="#2B303F"/>
<path d="M108.321 102.591L101.592 98.7251C101.265 98.5371 101.306 98.2124 101.681 97.9936L105.503 95.8025C105.893 95.5829 106.366 95.5626 106.774 95.7478L113.521 99.6138C113.847 99.8019 113.806 100.13 113.428 100.345L109.596 102.533C109.204 102.752 108.731 102.774 108.321 102.591Z" fill="#2B303F"/>
<path d="M187.195 141.942L183.194 139.645C182.821 139.455 182.379 139.455 182.005 139.645L177.97 141.962C177.627 142.15 177.627 142.455 177.97 142.646L178.29 142.831C178.592 143.002 178.589 143.285 178.29 143.46L174.008 145.907C173.664 146.099 173.664 146.403 174.008 146.591L176.554 148.054C176.927 148.242 177.368 148.242 177.74 148.054L181.734 145.764L182.559 145.288L183.153 144.947L183.751 144.605L187.188 142.632C187.521 142.434 187.521 142.13 187.195 141.942Z" fill="#2B303F"/>
<path d="M89.1381 110.498L85.1377 108.2C84.794 108.012 84.8524 107.684 85.227 107.469L89.0488 105.268C89.4404 105.051 89.9123 105.032 90.3204 105.216L94.3243 107.513C94.6508 107.701 94.6095 108.03 94.2315 108.245L90.4132 110.439C90.0214 110.659 89.5484 110.68 89.1381 110.498Z" fill="#2B303F"/>
<path d="M94.7866 113.741L90.7861 111.444C90.4424 111.256 90.5009 110.928 90.8755 110.713L94.6972 108.518C95.0889 108.301 95.5608 108.282 95.9688 108.467L99.9727 110.764C100.299 110.952 100.258 111.28 99.8799 111.495L96.0616 113.69C95.6687 113.907 95.1958 113.926 94.7866 113.741Z" fill="#2B303F"/>
<path d="M100.44 116.985L96.4396 114.688C96.0959 114.5 96.1509 114.172 96.529 113.957L100.347 111.762C100.74 111.545 101.213 111.526 101.622 111.711L105.616 114.008C105.942 114.196 105.901 114.524 105.523 114.74L101.705 116.934C101.315 117.148 100.846 117.167 100.44 116.985Z" fill="#2B303F"/>
<path d="M148.555 144.615L144.551 142.315C144.208 142.13 144.266 141.802 144.644 141.583L148.463 139.392C148.855 139.174 149.328 139.154 149.738 139.337L153.731 141.638C154.075 141.826 154.016 142.151 153.638 142.369L149.827 144.578C149.433 144.792 148.961 144.806 148.555 144.615Z" fill="#2B303F"/>
<path d="M154.201 147.859L150.2 145.562C149.856 145.374 149.915 145.046 150.29 144.83L154.111 142.636C154.503 142.419 154.975 142.4 155.383 142.585L159.387 144.882C159.73 145.07 159.672 145.398 159.294 145.613L155.476 147.808C155.083 148.024 154.61 148.044 154.201 147.859Z" fill="#2B303F"/>
<path d="M159.85 151.103L155.849 148.806C155.523 148.618 155.564 148.29 155.939 148.074L159.761 145.88C160.152 145.663 160.624 145.644 161.032 145.829L165.036 148.126C165.38 148.314 165.321 148.642 164.943 148.857L161.125 151.052C160.732 151.269 160.259 151.288 159.85 151.103Z" fill="#2B303F"/>
<path d="M165.502 154.347L161.502 152.05C161.175 151.862 161.217 151.533 161.591 151.318L165.416 149.124C165.808 148.907 166.28 148.888 166.688 149.072L170.692 151.369C171.035 151.557 170.977 151.886 170.599 152.101L166.791 154.295C166.394 154.517 165.915 154.536 165.502 154.347Z" fill="#2B303F"/>
<path d="M107.541 121.067L102.083 117.932C101.757 117.744 101.798 117.416 102.176 117.2L105.995 115.006C106.387 114.789 106.86 114.77 107.27 114.955L112.727 118.089C113.071 118.277 113.013 118.602 112.634 118.821L108.816 121.012C108.424 121.231 107.951 121.252 107.541 121.067Z" fill="#2B303F"/>
<path d="M142.904 141.371L137.446 138.237C137.103 138.049 137.161 137.72 137.536 137.505L141.357 135.311C141.749 135.094 142.221 135.075 142.629 135.259L148.087 138.394C148.413 138.582 148.372 138.907 147.997 139.125L144.176 141.316C143.785 141.536 143.312 141.556 142.904 141.371Z" fill="#2B303F"/>
<path d="M135.797 137.29L109.193 122.017C108.867 121.829 108.908 121.501 109.283 121.285L113.104 119.091C113.496 118.874 113.968 118.855 114.376 119.04L140.984 134.323C141.31 134.511 141.269 134.839 140.891 135.054L137.073 137.249C136.678 137.462 136.205 137.477 135.797 137.29Z" fill="#2B303F"/>
<path d="M110.045 109.889L106.044 107.592C105.718 107.404 105.759 107.076 106.137 106.861L109.956 104.666C110.347 104.449 110.819 104.43 111.227 104.615L115.238 106.912C115.582 107.1 115.523 107.428 115.145 107.643L111.327 109.838C110.932 110.057 110.456 110.076 110.045 109.889Z" fill="#2B303F"/>
<path d="M115.705 113.129L111.705 110.829C111.378 110.641 111.42 110.316 111.794 110.097L115.616 107.906C116.007 107.688 116.479 107.668 116.888 107.852L120.891 110.152C121.235 110.34 121.177 110.665 120.799 110.884L116.98 113.075C116.589 113.294 116.115 113.315 115.705 113.129Z" fill="#2B303F"/>
<path d="M121.364 116.387L117.36 114.09C117.016 113.902 117.075 113.574 117.453 113.359L121.271 111.164C121.664 110.947 122.137 110.928 122.546 111.113L126.547 113.41C126.89 113.598 126.835 113.926 126.457 114.141L122.639 116.336C122.246 116.553 121.773 116.572 121.364 116.387Z" fill="#2B303F"/>
<path d="M127.024 119.624L123.02 117.327C122.676 117.139 122.735 116.811 123.113 116.595L126.921 114.415C127.314 114.198 127.787 114.179 128.196 114.363L132.196 116.66C132.54 116.848 132.482 117.177 132.107 117.392L128.296 119.586C127.902 119.799 127.43 119.813 127.024 119.624Z" fill="#2B303F"/>
<path d="M132.681 122.889L128.681 120.592C128.337 120.404 128.395 120.075 128.77 119.86L132.592 117.666C132.983 117.449 133.455 117.43 133.863 117.614L137.867 119.911C138.211 120.099 138.152 120.428 137.774 120.643L133.956 122.837C133.563 123.054 133.09 123.073 132.681 122.889Z" fill="#2B303F"/>
<path d="M138.342 126.139L134.342 123.839C133.998 123.651 134.053 123.326 134.431 123.107L138.263 120.916C138.655 120.697 139.129 120.676 139.538 120.862L143.542 123.162C143.869 123.35 143.828 123.675 143.449 123.894L139.631 126.085C139.236 126.309 138.756 126.329 138.342 126.139Z" fill="#2B303F"/>
<path d="M144.001 129.387L139.998 127.09C139.671 126.902 139.712 126.574 140.09 126.358L143.909 124.164C144.302 123.947 144.774 123.928 145.184 124.112L149.184 126.409C149.528 126.597 149.469 126.926 149.095 127.141L145.273 129.335C144.881 129.552 144.409 129.571 144.001 129.387Z" fill="#2B303F"/>
<path d="M149.665 132.638L145.662 130.341C145.335 130.153 145.376 129.825 145.754 129.609L149.573 127.415C149.966 127.198 150.439 127.179 150.848 127.363L154.848 129.66C155.175 129.848 155.133 130.177 154.755 130.392L150.937 132.586C150.545 132.803 150.074 132.822 149.665 132.638Z" fill="#2B303F"/>
<path d="M155.319 135.888L151.322 133.591C150.996 133.403 151.037 133.075 151.411 132.86L155.233 130.665C155.625 130.448 156.097 130.429 156.505 130.614L160.509 132.911C160.835 133.099 160.794 133.427 160.416 133.642L156.598 135.837C156.204 136.055 155.729 136.074 155.319 135.888Z" fill="#2B303F"/>
<path d="M160.982 139.139L156.978 136.838C156.652 136.65 156.693 136.326 157.071 136.107L160.889 133.916C161.281 133.696 161.755 133.676 162.164 133.861L166.168 136.162C166.495 136.346 166.453 136.674 166.075 136.893L162.257 139.084C161.865 139.302 161.392 139.322 160.982 139.139Z" fill="#2B303F"/>
<path d="M166.642 142.386L162.638 140.089C162.312 139.901 162.353 139.573 162.731 139.358L166.549 137.163C166.942 136.946 167.415 136.927 167.824 137.112L171.825 139.409C172.168 139.597 172.11 139.925 171.735 140.14L167.914 142.335C167.522 142.552 167.05 142.571 166.642 142.386Z" fill="#2B303F"/>
<path d="M172.287 145.637L168.287 143.34C167.96 143.152 168.001 142.824 168.379 142.609L172.198 140.414C172.589 140.197 173.061 140.178 173.469 140.363L177.473 142.66C177.8 142.848 177.758 143.176 177.38 143.391L173.572 145.603C173.174 145.818 172.696 145.831 172.287 145.637Z" fill="#2B303F"/>
<path d="M104.385 106.635L96.1061 101.884C95.7624 101.696 95.8209 101.367 96.1989 101.152L100.017 98.9576C100.41 98.7408 100.883 98.7217 101.292 98.9063L109.568 103.658C109.912 103.846 109.853 104.174 109.479 104.389L105.657 106.584C105.265 106.801 104.793 106.82 104.385 106.635Z" fill="#2B303F"/>
<path d="M101.746 111.42L97.7451 109.13C97.4186 108.942 97.4564 108.617 97.8345 108.398L101.653 106.207C102.045 105.988 102.518 105.967 102.928 106.153L106.932 108.453C107.258 108.638 107.217 108.966 106.839 109.185L103.021 111.376C102.627 111.59 102.154 111.607 101.746 111.42Z" fill="#2B303F"/>
<path d="M107.404 114.678L103.4 112.381C103.073 112.193 103.115 111.865 103.493 111.649L107.311 109.455C107.704 109.238 108.177 109.219 108.586 109.403L112.586 111.7C112.93 111.888 112.872 112.217 112.497 112.432L108.675 114.627C108.284 114.843 107.812 114.862 107.404 114.678Z" fill="#2B303F"/>
<path d="M113.062 117.915L109.051 115.628C108.708 115.44 108.766 115.115 109.144 114.897L112.963 112.706C113.355 112.488 113.828 112.467 114.238 112.651L118.241 114.951C118.585 115.139 118.527 115.464 118.149 115.683L114.33 117.874C113.938 118.087 113.468 118.102 113.062 117.915Z" fill="#2B303F"/>
<path d="M118.72 121.176L114.719 118.879C114.376 118.691 114.434 118.363 114.812 118.148L118.63 115.953C119.022 115.736 119.494 115.717 119.902 115.902L123.906 118.199C124.232 118.387 124.191 118.715 123.813 118.93L119.995 121.125C119.602 121.342 119.129 121.361 118.72 121.176Z" fill="#2B303F"/>
<path d="M124.379 124.427L120.392 122.13C120.066 121.942 120.107 121.614 120.485 121.398L124.303 119.204C124.696 118.987 125.169 118.968 125.578 119.152L129.579 121.45C129.905 121.638 129.867 121.966 129.489 122.181L125.671 124.372C125.275 124.598 124.793 124.618 124.379 124.427Z" fill="#2B303F"/>
<path d="M130.037 127.674L126.037 125.377C125.71 125.189 125.752 124.861 126.126 124.646L129.948 122.451C130.34 122.234 130.812 122.215 131.22 122.4L135.224 124.697C135.55 124.885 135.509 125.213 135.131 125.429L131.312 127.623C130.92 127.84 130.447 127.859 130.037 127.674Z" fill="#2B303F"/>
<path d="M135.697 130.925L131.693 128.628C131.366 128.44 131.408 128.112 131.786 127.896L135.604 125.702C135.997 125.485 136.47 125.466 136.879 125.65L140.879 127.948C141.206 128.136 141.165 128.464 140.79 128.679L136.972 130.874C136.579 131.09 136.106 131.109 135.697 130.925Z" fill="#2B303F"/>
<path d="M141.358 134.176L137.357 131.875C137.031 131.687 137.072 131.363 137.447 131.144L141.268 128.953C141.659 128.733 142.132 128.713 142.54 128.898L146.544 131.199C146.87 131.383 146.829 131.711 146.451 131.93L142.633 134.121C142.24 134.339 141.767 134.36 141.358 134.176Z" fill="#2B303F"/>
<path d="M147.013 137.423L143.009 135.126C142.683 134.938 142.724 134.61 143.102 134.394L146.92 132.2C147.313 131.983 147.786 131.964 148.195 132.149L152.196 134.446C152.522 134.634 152.481 134.962 152.106 135.177L148.285 137.372C147.893 137.588 147.421 137.607 147.013 137.423Z" fill="#2B303F"/>
<path d="M152.67 140.674L148.67 138.373C148.343 138.189 148.384 137.861 148.759 137.642L152.581 135.451C152.972 135.233 153.444 135.212 153.852 135.396L157.853 137.696C158.179 137.884 158.138 138.209 157.76 138.428L153.942 140.619C153.551 140.838 153.079 140.858 152.67 140.674Z" fill="#2B303F"/>
<path d="M158.33 143.921L154.326 141.624C153.999 141.436 154.04 141.108 154.418 140.892L158.237 138.698C158.63 138.481 159.103 138.462 159.512 138.647L163.512 140.944C163.839 141.132 163.798 141.46 163.423 141.675L159.601 143.87C159.209 144.086 158.738 144.106 158.33 143.921Z" fill="#2B303F"/>
<path d="M170.993 151.195L159.995 144.875C159.669 144.687 159.706 144.359 160.084 144.143L163.903 141.949C164.296 141.732 164.769 141.713 165.178 141.898L176.176 148.218C176.502 148.402 176.461 148.731 176.083 148.949L172.265 151.141C171.873 151.357 171.402 151.378 170.993 151.195Z" fill="#2B303F"/>
<path d="M96.0875 108.18L90.6299 105.045C90.2862 104.857 90.3446 104.529 90.7192 104.314L94.541 102.123C94.9316 101.903 95.4043 101.883 95.8126 102.068L101.27 105.203C101.597 105.391 101.555 105.719 101.181 105.934L97.366 108.129C96.9725 108.348 96.4975 108.367 96.0875 108.18Z" fill="#2B303F"/>
<path d="M193.152 138.469L112.786 92.3224C112.442 92.1378 112.501 91.8097 112.879 91.5909L114.789 90.4971C115.181 90.2792 115.652 90.2589 116.061 90.4424L196.427 136.589C196.754 136.777 196.713 137.102 196.335 137.32L194.427 138.424C194.033 138.639 193.56 138.656 193.152 138.469Z" fill="#2B303F"/>
<path d="M143.366 143.716C143.251 143.965 143.055 144.167 142.809 144.29L120.697 156.989C119.942 157.406 119.033 157.443 118.247 157.088L80.4417 135.386C80.2801 135.302 80.1499 135.169 80.0705 135.006C79.933 134.664 80.1255 134.285 80.6273 133.998L102.743 121.296C103.498 120.878 104.407 120.841 105.194 121.196L142.998 142.899C143.315 143.035 143.475 143.39 143.366 143.716Z" fill="#B1B4C4"/>
<path d="M143.366 143.716C143.251 143.965 143.055 144.167 142.809 144.29L120.697 156.989C119.942 157.406 119.033 157.443 118.246 157.088L80.4415 135.386C80.2799 135.302 80.1497 135.169 80.0703 135.006C80.1875 134.76 80.3832 134.559 80.6271 134.435L102.743 121.736C103.497 121.319 104.406 121.281 105.193 121.634L142.998 143.34C143.159 143.422 143.288 143.554 143.366 143.716Z" fill="#C3C6D1"/>
<path d="M199.272 134.969L118.906 88.8222C118.547 88.5582 118.334 88.1414 118.332 87.6976V86.7575C118.332 86.3234 118.597 86.1252 118.923 86.3132L199.289 132.46C199.655 132.719 199.874 133.135 199.881 133.581V134.521C199.863 134.958 199.599 135.157 199.272 134.969Z" fill="#2B303F"/>
<path d="M131.049 84.2656L123.109 79.7159C122.116 79.1451 121.309 77.6103 121.309 76.2977V67.8306C121.309 66.5112 122.116 65.9061 123.109 66.4633L131.049 71.0267C132.045 71.5975 132.849 73.1323 132.849 74.445V82.912C132.836 84.2314 132.031 84.8365 131.049 84.2656Z" fill="#E9EAF2"/>
<path d="M131.015 64.8742L123.09 60.3245C122.097 59.7536 121.289 57.419 121.289 56.2773V46.3917C121.289 45.0722 122.097 44.4672 123.09 45.0244L131.015 49.5741C132.012 50.1449 132.816 51.6797 132.816 52.9923V62.8779C132.816 64.0401 132.012 65.445 131.015 64.8742Z" fill="#E9EAF2"/>
<path fill-rule="evenodd" clip-rule="evenodd" d="M124.172 53.228C124.172 55.0807 125.485 57.3436 127.097 58.27C128.712 59.1963 130.025 58.4409 130.025 56.5882C130.025 54.7355 128.708 52.4726 127.097 51.5463C125.485 50.6199 124.172 51.3753 124.172 53.228ZM124.921 53.6587C124.921 52.2812 125.897 51.724 127.097 52.4077C128.386 53.2433 129.196 54.6422 129.276 56.1712C129.276 57.5487 128.299 58.1025 127.097 57.4188C125.809 56.5831 125.001 55.1858 124.921 53.6587Z" fill="url(#paint2_linear)"/>
<path d="M127.901 56.8993L126.574 54.8004V53.0537L127.323 53.4844V54.8415L128.396 56.5335L127.901 56.8993Z" fill="url(#paint3_linear)"/>
<path d="M131.004 43.9647L123.078 39.415C122.085 38.8407 121.277 36.2702 121.277 35.1251V26.0257C121.277 24.884 122.085 24.4191 123.078 25.0002L131.004 29.5533C132.067 30.2415 132.736 31.3935 132.804 32.6537V41.7565C132.804 42.8879 132 44.5355 131.004 43.9647Z" fill="#E9EAF2"/>
<path fill-rule="evenodd" clip-rule="evenodd" d="M128.66 33.002L129.348 33.3985V33.3883C129.692 33.6077 129.91 33.9772 129.935 34.383V37.374C129.935 37.75 129.674 37.897 129.358 37.7158L124.746 35.0666C124.407 34.8457 124.194 34.4777 124.172 34.0753V31.0946C124.172 30.7186 124.43 30.5682 124.746 30.7528L125.433 31.1493C125.469 31.1774 125.517 31.1872 125.561 31.1758C125.605 31.1644 125.642 31.1332 125.66 31.0912L125.839 30.5785C125.87 30.4896 125.969 30.4657 126.066 30.5203L128.025 31.645C128.136 31.7212 128.217 31.8336 128.255 31.9629L128.434 32.6841C128.468 32.8136 128.549 32.9264 128.66 33.002ZM126.179 33.5558C126.179 33.0054 126.564 32.7832 127.042 33.0567C127.552 33.3887 127.873 33.9417 127.908 34.5471C127.908 35.094 127.519 35.3162 127.042 35.0427C126.532 34.7126 126.211 34.16 126.179 33.5558ZM127.042 35.7161C126.192 35.1635 125.658 34.2423 125.602 33.2344C125.602 32.3184 126.248 31.9492 127.042 32.4072C127.893 32.9579 128.428 33.8802 128.482 34.8889C128.482 35.7913 127.839 36.1639 127.042 35.7058V35.7161ZM128.946 34.0651C128.954 34.2041 129.028 34.331 129.145 34.4069V34.3967C129.258 34.4616 129.348 34.4103 129.348 34.2907C129.339 34.1511 129.264 34.024 129.145 33.9489C129.035 33.8839 128.946 33.9352 128.946 34.0651Z" fill="url(#paint4_linear)"/>
<path d="M129.543 75.9903C129.543 77.5319 127.113 79.535 127.113 79.535C127.113 79.535 124.68 74.7495 124.68 73.1976C124.68 71.6457 125.769 71.0304 127.113 71.7995C128.548 72.7316 129.45 74.2881 129.543 75.9903Z" fill="url(#paint5_linear)"/>
<path d="M128.238 76.4247C128.859 76.0679 128.86 74.9119 128.239 73.8427C127.618 72.7734 126.611 72.1959 125.99 72.5527C125.369 72.9095 125.368 74.0655 125.989 75.1348C126.61 76.204 127.616 76.7815 128.238 76.4247Z" fill="#E9EAF2"/>
<path d="M187.109 96.7216L139.128 69.167C138.317 68.7056 137.664 67.4579 137.664 66.388V34.3145C137.664 33.2446 138.317 32.7523 139.128 33.2172L187.109 60.7684C187.917 61.2333 188.57 62.4775 188.57 63.5508V95.6209C188.57 96.6943 187.917 97.1865 187.109 96.7216Z" fill="#E9EAF2"/>
<path d="M181.568 73.4057L144.379 52.0518C143.478 51.5323 142.746 50.1445 142.746 48.9515V46.5348C142.746 45.3384 143.478 44.7915 144.379 45.3076L181.568 66.6615C182.469 67.1776 183.197 68.5655 183.197 69.7618V72.1786C183.197 73.3749 182.469 73.9219 181.568 73.4057Z" fill="white"/>
<path d="M161.343 72.6572L144.379 62.9151C143.478 62.399 142.746 61.0112 142.746 59.8148V57.4117C142.746 56.2153 143.478 55.6684 144.379 56.1846L161.343 65.9266C162.243 66.4428 162.972 67.8306 162.972 69.027V71.4266C162.972 72.623 162.243 73.1733 161.343 72.6572Z" fill="url(#paint6_linear)"/>
<path d="M196.987 103.777C196.987 103.777 178.899 107.742 164.275 91.5875C149.652 75.4328 137.723 77.5043 137.723 77.5043V87.5881L196.987 121.617V103.777Z" fill="url(#paint7_linear)"/>
<path d="M196.987 103.777C196.987 103.777 178.899 107.742 164.275 91.5875C149.652 75.4328 137.723 77.5043 137.723 77.5043" stroke="#CCCEDD" stroke-width="1.06"/>
<path d="M207.76 110.607L179.244 94.0867C177.451 93.0589 176 90.2666 176 87.8718V42.8495C176 40.4512 177.451 39.3549 179.244 40.3896L207.76 56.9136C209.549 57.9414 211 60.7337 211 63.1285V108.158C211 110.556 209.549 111.645 207.76 110.607Z" fill="#211B49"/>
<path d="M209 111L210 110.458L209.325 109L209 111Z" fill="#211B49"/>
<path d="M176 40.6062C176.353 40.3676 176.725 40.1648 177.109 40L178 42L176 40.6062Z" fill="#211B49"/>
<path d="M206.76 110.609L178.24 94.0784C176.451 93.0506 175 90.2583 175 87.8634V42.851C175 40.4527 176.451 39.3529 178.24 40.391L206.76 56.9152C208.549 57.9431 210 60.7319 210 63.1268V108.15C210 110.544 208.549 111.648 206.76 110.609Z" fill="url(#paint8_linear)"/>
<path d="M183 50L178 46.9228V45L183 48.0772V50Z" fill="white"/>
<path d="M207 63L185 49.9197V48L207 61.0767V63Z" fill="white"/>
<path d="M183 56L178 52.9228V51L183 54.0772V56Z" fill="white"/>
<path d="M199 65L184 56.8182V55L199 63.1818V65Z" fill="white"/>
<path d="M183 59L178 55.9242V54L183 57.0758V59Z" fill="white"/>
<path d="M202 70L184 59.8181V58L202 68.1819V70Z" fill="white"/>
<path d="M183 62L178 58.9228V57L183 60.0772V62Z" fill="white"/>
<path d="M197 70L184 62.8369V61L197 68.1631V70Z" fill="white"/>
<path d="M183 53L178 49.9228V48L183 51.0772V53Z" fill="white"/>
<path d="M195 60L184 53.0448V51L195 57.9515V60Z" fill="white"/>
<path d="M183 65L178 61.9228V60L183 63.0772V65Z" fill="white"/>
<path d="M191 69L184 65V63L191 67V69Z" fill="white"/>
<path d="M183 71L178 67.9242V66L183 69.0794V71Z" fill="white"/>
<path d="M205 83L184 70.918V69L205 81.082V83Z" fill="white"/>
<path d="M183 74L178 70.9228V69L183 72.0772V74Z" fill="white"/>
<path d="M190 78L184 74.7244V73L190 76.2756V78Z" fill="white"/>
<path d="M183 77L178 73.9228V72L183 75.0772V77Z" fill="white"/>
<path d="M202 88L184 77.8153V76L202 86.1814V88Z" fill="white"/>
<path d="M183 68L178 64.9228V63L183 66.0772V68Z" fill="white"/>
<path d="M201 79L184 68.9044V67L201 77.0956V79Z" fill="white"/>
<path d="M183 80L178 76.9228V75L183 78.0772V80Z" fill="white"/>
<path d="M187 82L184 80.7639V79L187 80.2361V82Z" fill="white"/>
<path d="M183 86L178 82.9242V81L183 84.0794V86Z" fill="white"/>
<path d="M188 89L184 86.7397V85L188 87.2603V89Z" fill="white"/>
<path d="M183 89L178 85.9228V84L183 87.0772V89Z" fill="white"/>
<path d="M195 96L184 89.0456V87L195 93.9544V96Z" fill="white"/>
<path d="M183 92L178 88.9228V87L183 90.0772V92Z" fill="white"/>
<path d="M201 103L184 92.8746V91L201 101.125V103Z" fill="white"/>
<path d="M183 83L178 79.9228V78L183 81.0772V83Z" fill="white"/>
<path d="M207 96L185 82.9228V81L207 94.0737V96Z" fill="white"/>
<path d="M62.5365 76.4397L59.3676 74.8186L52.7276 78.6287C51.2231 79.4946 50 78.795 50 77.0597V69.8482C50.1041 67.9344 51.1172 66.1847 52.7276 65.1376L92.2724 42.3707C93.7769 41.5047 95 42.2079 95 43.9397V51.1754C94.8959 53.0892 93.8828 54.8389 92.2724 55.886L65.6845 71.1748" fill="#B1B4C4"/>
<path d="M93.6174 42L95 42.635L93.8296 44L93 42.4927L93.6174 42Z" fill="#B1B4C4"/>
<path d="M62 76.2255L63.9956 77L64 75.3404L62.2335 75L62 76.2255Z" fill="#B1B4C4"/>
<path d="M52.6528 79.9862C52.708 80.1054 51.0596 79.4168 51.0012 79.3241C50.9428 79.2314 53 78 53 78L52.6528 79.9862Z" fill="#B1B4C4"/>
<path d="M67.6936 71.1693L94.2733 55.8695C95.8819 54.8211 96.8943 53.072 97 51.1586V43.9365C97 42.2046 95.7773 41.5118 94.2733 42.3639L54.7267 65.1318C53.1177 66.1798 52.1052 67.9291 52 69.8426V77.0648C52 78.7967 53.2227 79.4895 54.7267 78.6339L61.3647 74.8236L64.5465 76.4482L67.6936 71.1693Z" fill="#E9EAF2"/>
<path d="M93 49.4799L55 71V68.5235L93 47V49.4799Z" fill="url(#paint9_linear)"/>
<path d="M79 61.3946L55 75V72.6054L79 59V61.3946Z" fill="url(#paint10_linear)"/>
</g>
<defs>
<radialGradient id="paint0_radial" cx="0" cy="0" r="1" gradientUnits="userSpaceOnUse" gradientTransform="translate(141.5 118.685) rotate(-25.9003) scale(104.749 85.5823)">
<stop stop-color="#0F72CD"/>
<stop offset="1" stop-color="#EFF3F9"/>
<stop offset="1" stop-color="#F4F6FA"/>
</radialGradient>
<linearGradient id="paint1_linear" x1="185.28" y1="103.056" x2="185.28" y2="37.3026" gradientUnits="userSpaceOnUse">
<stop offset="0.21" stop-color="white" stop-opacity="0.01"/>
<stop offset="1" stop-color="white" stop-opacity="0.2"/>
</linearGradient>
<linearGradient id="paint2_linear" x1="124.172" y1="58.6644" x2="130.025" y2="58.6644" gradientUnits="userSpaceOnUse">
<stop stop-color="#0E6CC9"/>
<stop offset="1" stop-color="#1DB4FF"/>
</linearGradient>
<linearGradient id="paint3_linear" x1="126.574" y1="56.8985" x2="128.396" y2="56.8985" gradientUnits="userSpaceOnUse">
<stop stop-color="#0E6CC9"/>
<stop offset="1" stop-color="#1DB4FF"/>
</linearGradient>
<linearGradient id="paint4_linear" x1="124.172" y1="37.7916" x2="129.935" y2="37.7916" gradientUnits="userSpaceOnUse">
<stop stop-color="#0E6CC9"/>
<stop offset="1" stop-color="#1DB4FF"/>
</linearGradient>
<linearGradient id="paint5_linear" x1="124.68" y1="79.5335" x2="129.543" y2="79.5335" gradientUnits="userSpaceOnUse">
<stop stop-color="#0E6CC9"/>
<stop offset="1" stop-color="#1DB4FF"/>
</linearGradient>
<linearGradient id="paint6_linear" x1="142.747" y1="72.8477" x2="162.971" y2="72.8477" gradientUnits="userSpaceOnUse">
<stop stop-color="#0E6CC9"/>
<stop offset="1" stop-color="#1DB4FF"/>
</linearGradient>
<linearGradient id="paint7_linear" x1="155.832" y1="86.0663" x2="155.832" y2="103.834" gradientUnits="userSpaceOnUse">
<stop stop-color="#E9EAF2" stop-opacity="0.8"/>
<stop offset="1" stop-color="#E9EAF2" stop-opacity="0.01"/>
</linearGradient>
<linearGradient id="paint8_linear" x1="175.002" y1="110.986" x2="209.999" y2="110.986" gradientUnits="userSpaceOnUse">
<stop stop-color="#0E6CC9"/>
<stop offset="1" stop-color="#1DB4FF"/>
</linearGradient>
<linearGradient id="paint9_linear" x1="55.0023" y1="70.9954" x2="92.9988" y2="70.9954" gradientUnits="userSpaceOnUse">
<stop stop-color="#0E6CC9"/>
<stop offset="1" stop-color="#1DB4FF"/>
</linearGradient>
<linearGradient id="paint10_linear" x1="55.0015" y1="74.9969" x2="78.9992" y2="74.9969" gradientUnits="userSpaceOnUse">
<stop stop-color="#0E6CC9"/>
<stop offset="1" stop-color="#1DB4FF"/>
</linearGradient>
</defs>
</svg>
