<svg width="285" height="209" viewBox="0 0 285 209" fill="none" xmlns="http://www.w3.org/2000/svg">
<mask id="mask0" mask-type="alpha" maskUnits="userSpaceOnUse" x="0" y="0" width="285" height="209">
<rect width="285" height="209" fill="#C4C4C4"/>
</mask>
<g mask="url(#mask0)">
<path opacity="0.42148" fill-rule="evenodd" clip-rule="evenodd" d="M141.454 206L-2 123.024L141.566 40L285 122.976L141.454 206ZM141.454 205.404L151.958 199.326L141.459 193.258L130.959 199.331L141.454 205.404ZM140.961 192.974L130.456 199.052L119.961 192.974L130.466 186.901L140.961 192.974ZM119.459 192.696L129.964 186.623L119.469 180.55L108.964 186.623L119.459 192.696ZM118.966 180.271L108.466 186.344L97.9665 180.271L108.471 174.193L118.966 180.271ZM97.469 179.978L107.969 173.92L97.4739 167.842L86.974 173.92L97.469 179.978ZM96.9765 167.568L86.457 173.622L75.9766 167.568L86.457 161.476L96.9765 167.568ZM75.4743 167.26L85.9791 161.217L75.484 155.114L64.9987 161.187L75.4743 167.26ZM74.9817 154.865L64.4769 160.899L53.9818 154.826L64.511 148.753L74.9817 154.865ZM53.4844 154.538L63.9843 148.514L53.4892 142.392L42.9844 148.47L53.4844 154.538ZM52.9869 142.162L42.487 148.177L31.987 142.108L42.4919 136.03L52.9869 142.162ZM31.4896 141.815L41.9895 135.811L31.4945 129.674L20.9945 135.747L31.4896 141.815ZM30.997 129.459L20.4922 135.537L9.99715 129.464L20.502 123.391L30.997 129.459ZM9.49483 129.185L19.9996 123.107L9.50458 117.039L-1.00024 123.112L9.49483 129.185ZM162.961 192.974L152.456 199.048L141.961 192.974L152.466 186.901L162.961 192.974ZM141.459 192.696L151.963 186.623L141.468 180.545L130.963 186.623L141.459 192.696ZM140.966 180.271L130.466 186.344L119.966 180.271L130.471 174.193L140.966 180.271ZM119.469 179.978L129.969 173.92L119.474 167.847L108.974 173.92L119.469 179.978ZM118.976 167.568L108.471 173.646L97.9762 167.568L108.476 161.495L118.976 167.568ZM97.4739 167.29L107.979 161.217L97.4836 155.144L86.9788 161.217L97.4739 167.29ZM96.9813 154.865L86.457 160.894L75.9814 154.826L86.4863 148.748L96.9813 154.865ZM75.484 154.533L85.9839 148.514L75.5035 142.387L64.9987 148.465L75.484 154.533ZM74.9866 142.162L64.511 148.172L53.9916 142.103L64.511 136.03L74.9866 142.162ZM53.4892 141.815L63.994 135.811L53.4941 129.669L42.9942 135.742L53.4892 141.815ZM52.9967 129.459L42.4919 135.454L31.9968 129.381L42.5016 123.308L52.9967 129.459ZM31.4945 129.093L41.9993 123.107L31.5042 116.946L20.9994 123.02L31.4945 129.093ZM31.0019 116.756L20.502 122.829L10.002 116.761L20.5068 110.683L31.0019 116.756ZM163.463 192.691L173.963 186.623L163.468 180.545L152.963 186.623L163.463 192.691ZM162.966 180.271L152.466 186.349L141.971 180.271L152.471 174.198L162.966 180.271ZM141.468 179.973L151.973 173.92L141.473 167.847L130.973 173.92L141.468 179.973ZM140.976 167.568L130.471 173.641L119.976 167.568L130.481 161.495L140.976 167.568ZM119.474 167.251L129.978 161.217L119.483 155.105L108.978 161.183L119.474 167.251ZM118.981 154.865L108.476 160.938L97.9811 154.87L108.486 148.792L118.981 154.865ZM97.4836 154.587L107.984 148.514L97.4885 142.441L86.9837 148.519L97.4836 154.587ZM96.9862 142.162L86.4863 148.172L75.9912 142.099L86.4911 136.026L96.9862 142.162ZM75.4889 141.81L85.9937 135.811L75.4986 129.664L64.9987 135.737L75.4889 141.81ZM74.9963 129.459L64.511 135.449L53.9964 129.376L64.511 123.303L74.9963 129.459ZM53.4941 129.088L64.0233 123.015L53.5039 116.942L42.9991 123.02L53.4941 129.088ZM53.0259 116.663L42.5016 122.726L32.0017 116.658L42.5065 110.58L53.0259 116.663ZM31.5042 116.37L42.0285 110.312L31.5091 104.224L21.0092 110.297L31.5042 116.37ZM184.97 180.271L174.465 186.33L163.97 180.271L174.47 174.198L184.97 180.271ZM163.473 179.993L173.978 173.92L163.473 167.847L152.973 173.92L163.473 179.993ZM162.98 167.568L152.475 173.641L141.98 167.573L152.485 161.495L162.98 167.568ZM141.478 167.29L151.983 161.217L141.488 155.144L130.983 161.222L141.478 167.29ZM140.985 154.865L130.486 160.938L119.981 154.816L130.486 148.743L140.985 154.865ZM119.488 154.592L129.988 148.514L119.493 142.445L108.988 148.519L119.488 154.592ZM118.991 142.162L108.491 148.24L97.9957 142.167L108.496 136.094L118.991 142.162ZM97.4934 141.884L107.998 135.811L97.4934 129.659L86.9935 135.732L97.4934 141.884ZM97.0008 129.459L86.496 135.532L75.9961 129.376L86.5009 123.298L97.0008 129.459ZM75.4938 129.083L86.0035 123.107L75.5035 116.937L64.9987 123.015L75.4938 129.083ZM75.0061 116.756L64.511 122.726L54.0013 116.653L64.511 110.58L75.0061 116.756ZM53.5039 116.365L64.0233 110.287L53.5087 104.219L43.0088 110.292L53.5039 116.365ZM53.0308 103.936L42.5065 110.004L32.0114 103.931L42.5114 97.8577L53.0308 103.936ZM185.458 179.964L195.972 173.891L185.458 167.817L174.973 173.92L185.458 179.964ZM184.975 167.539L174.47 173.612L164 167.534L174.504 161.456L184.975 167.539ZM163.473 167.26L173.978 161.187L163.483 155.1L152.978 161.173L163.473 167.26ZM162.98 154.836L152.48 160.914L141.98 154.841L152.485 148.768L162.98 154.836ZM141.483 154.523L151.983 148.484L141.488 142.377L130.988 148.45L141.483 154.523ZM140.99 142.133L130.486 148.206L119.99 142.133L130.49 136.06L140.99 142.133ZM119.488 141.854L129.993 135.781L119.498 129.708L108.993 135.786L119.488 141.854ZM118.996 129.43L108.491 135.503L97.9957 129.435L108.501 123.357L118.996 129.43ZM97.4934 129.156L107.998 123.078L97.5032 116.937L86.9983 123.01L97.4934 129.156ZM97.0008 116.727L86.5009 122.805L76.001 116.648L86.5058 110.575L97.0008 116.727ZM75.5035 116.36L86.0035 110.375L75.4986 104.214L64.9987 110.287L75.5035 116.36ZM75.0109 104.024L64.511 109.999L54.0111 103.931L64.511 97.8528L75.0109 104.024ZM53.5087 103.638L64.0233 97.5645L53.5185 91.4915L43.0137 97.5694L53.5087 103.638ZM206.975 167.524L196.47 173.597L185.975 167.529L196.48 161.451L206.975 167.524ZM185.458 167.241L195.977 161.173L185.482 155.095L174.977 161.168L185.458 167.241ZM184.98 154.821L174.48 160.899L164 154.807L174.504 148.734L184.98 154.821ZM163.483 154.543L173.987 148.47L163.512 142.372L152.988 148.47L163.483 154.543ZM162.99 142.118L152.485 148.191L141.99 142.123L152.49 136.045L162.99 142.118ZM141.488 141.84L151.993 135.767L141.498 129.694L130.993 135.771L141.488 141.84ZM140.995 129.415L130.49 135.493L119.995 129.42L130.5 123.347L140.995 129.415ZM119.498 129.141L129.998 123.064L119.503 116.995L108.998 123.068L119.498 129.141ZM119 116.712L108.501 122.717L98.0055 116.644L108.505 110.571L119 116.712ZM97.5032 116.433L108.008 110.36L97.508 104.287L87.0081 110.365L97.5032 116.433ZM97.0106 104.009L86.5058 109.994L76.0107 103.926L86.5155 97.8479L97.0106 104.009ZM75.5084 103.633L86.0132 97.6573L75.5035 91.4866L64.9987 97.5645L75.5084 103.633ZM75.0158 91.3058L64.511 97.2763L54.0159 91.2032L64.511 85.1301L75.0158 91.3058ZM207.477 167.236L217.977 161.158L207.482 155.09L196.977 161.163L207.477 167.236ZM206.98 154.807L196.48 160.875L185.985 154.802L196.484 148.729L206.98 154.807ZM185.482 154.528L195.987 148.455L185.487 142.382L174.987 148.46L185.482 154.528ZM184.99 142.103L174.485 148.152L164 142.084L174.504 136.006L184.99 142.103ZM163.512 141.796L173.992 135.752L163.512 129.65L153.017 135.723L163.512 141.796ZM162.995 129.4L152.49 135.434L141.995 129.361L152.5 123.288L162.995 129.4ZM141.498 129.127L151.997 123.049L141.502 116.981L130.998 123.054L141.498 129.127ZM141 116.697L130.5 122.77L120.005 116.697L130.505 110.624L141 116.697ZM119.503 116.419L130.008 110.346L119.508 104.273L109.008 110.351L119.503 116.419ZM119.01 103.994L108.505 110.067L98.0103 103.999L108.515 97.9212L119.01 103.994ZM97.508 103.721L108.013 97.6427L97.5178 91.5745L87.013 97.6476L97.508 103.721ZM97.0155 91.2911L86.5155 97.3691L76.0156 91.1983L86.5204 85.1253L97.0155 91.2911ZM75.5181 90.9101L86.0181 84.9396L75.523 78.764L65.0231 84.837L75.5181 90.9101ZM228.979 154.797L218.479 160.87L207.984 154.802L218.484 148.724L228.979 154.797ZM207.482 154.518L217.987 148.445L207.487 142.372L196.987 148.45L207.482 154.518ZM206.989 142.094L196.484 148.172L185.989 142.099L196.494 136.026L206.989 142.094ZM185.487 141.82L195.992 135.742L185.497 129.674L174.992 135.747L185.487 141.82ZM184.995 129.391L174.495 135.469L164 129.356L174.504 123.283L184.995 129.391ZM163.512 129.068L173.997 123.039L163.512 116.922L153.017 122.995L163.512 129.068ZM163.005 116.688L152.5 122.761L142.005 116.639L152.505 110.561L163.005 116.688ZM141.502 116.409L152.007 110.336L141.512 104.263L131.007 110.341L141.502 116.409ZM141.01 103.984L130.505 110.062L120.01 103.916L130.515 97.843L141.01 103.984ZM119.508 103.711L130.012 97.6329L119.517 91.4817L109.013 97.5547L119.508 103.711ZM119.015 91.2814L108.515 97.3544L98.0152 91.1934L108.52 85.1204L119.015 91.2814ZM97.5178 91.0029L108.018 84.9298L97.5227 78.8568L87.0227 84.9347L97.5178 91.0029ZM97.0252 78.5783L86.5204 84.6513L76.0253 78.4757L86.5253 72.3978L97.0252 78.5783ZM229.482 154.504L239.986 148.431L229.486 142.362L218.986 148.435L229.482 154.504ZM228.989 142.079L218.484 148.157L207.989 142.074L218.494 136.001L228.989 142.079ZM207.487 141.805L217.992 135.728L207.496 129.64L196.992 135.713L207.487 141.805ZM206.994 129.376L196.494 135.449L185.994 129.352L196.499 123.278L206.994 129.376ZM185.497 129.097L195.997 123.024L185.502 116.951L175.002 123.029L185.497 129.097ZM185.004 116.673L174.499 122.746L164 116.634L174.499 110.556L185.004 116.673ZM163.512 116.346L174.007 110.321L163.512 104.199L153.017 110.272L163.512 116.346ZM163.024 103.906L152.519 109.984L142.024 103.911L152.529 97.8381L163.024 103.906ZM141.527 103.628L152.027 97.5547L141.532 91.4817L131.027 97.5547L141.527 103.628ZM141.029 91.2032L130.515 97.2616L120.015 91.1934L130.52 85.1155L141.029 91.2032ZM119.532 90.9247L130.032 84.8517L119.537 78.7786L109.037 84.8565L119.532 90.9247ZM119.039 78.5001L108.535 84.5732L98.0396 78.505L108.544 72.432L119.039 78.5001ZM97.5373 78.2265L108.042 72.1486L97.547 66.0804L87.0422 72.1535L97.5373 78.2265ZM250.989 142.064L240.484 148.142L229.989 142.069L240.494 135.996L250.989 142.064ZM229.486 141.786L239.991 135.713L229.496 129.64L218.991 135.713L229.486 141.786ZM228.994 129.361L218.494 135.42L207.994 129.352L218.499 123.274L228.994 129.361ZM207.496 129.083L217.996 123.01L207.501 116.937L197.001 123.015L207.496 129.083ZM207.004 116.658L196.499 122.736L186.004 116.663L196.504 110.59L207.004 116.658ZM185.502 116.385L196.007 110.307L185.511 104.239L175.007 110.312L185.502 116.385ZM185.009 103.955L174.504 110.028L164 103.906L174.504 97.8332L185.009 103.955ZM163.512 103.618L174.012 97.6036L163.512 91.4719L153.012 97.5499L163.512 103.618ZM163.014 91.2521L152.514 97.3251L142.019 91.2569L152.519 85.179L163.014 91.2521ZM141.517 90.8954L152.022 84.9005L141.522 78.7542L131.022 84.8272L141.517 90.8954ZM141.025 78.549L130.52 84.6269L120.025 78.5539L130.529 72.4808L141.025 78.549ZM119.522 78.1581L130.027 72.1974L119.532 66.012L109.027 72.0851L119.522 78.1581ZM119.03 65.8459L108.53 71.8066L98.0299 65.7335L108.535 59.6605L119.03 65.8459ZM251.491 141.776L261.991 135.703L251.496 129.63L240.991 135.708L251.491 141.776ZM250.993 129.352L240.494 135.425L229.998 129.356L240.498 123.278L250.993 129.352ZM229.496 129.058L240.001 123L229.501 116.912L219.001 122.985L229.496 129.058ZM229.004 116.648L218.499 122.726L208.004 116.653L218.509 110.58L229.004 116.648ZM207.501 116.336L218.006 110.297L207.511 104.19L197.006 110.263L207.501 116.336ZM207.009 103.945L196.504 110.018L186.009 103.906L196.514 97.8284L207.009 103.945ZM185.511 103.613L196.011 97.5938L185.516 91.467L175.012 97.545L185.511 103.613ZM185.014 91.2423L174.514 97.3153L164 91.1837L174.499 85.1106L185.014 91.2423ZM163.512 90.8954L174.022 84.8907L163.512 78.7493L153.017 84.8223L163.512 90.8954ZM163.024 78.5392L152.519 84.6171L142.024 78.5441L152.529 72.471L163.024 78.5392ZM141.522 78.1581L152.027 72.1877L141.532 66.0267L131.027 72.0997L141.522 78.1581ZM141.029 65.8361L130.529 71.8066L120.03 65.7384L130.534 59.6605L141.029 65.8361ZM119.532 65.455L130.032 59.4846L119.537 53.304L109.037 59.382L119.532 65.455ZM272.993 129.337L262.513 135.415L252.018 129.342L262.513 123.269L272.993 129.337ZM251.496 129.063L262.001 122.985L251.501 116.917L241.001 122.99L251.496 129.063ZM251.003 116.634L240.498 122.707L230.003 116.634L240.508 110.561L251.003 116.634ZM229.501 116.355L240.006 110.282L229.511 104.209L219.006 110.287L229.501 116.355ZM229.008 103.931L218.508 110.004L208.009 103.936L218.513 97.8577L229.008 103.931ZM207.511 103.652L218.011 97.5792L207.516 91.511L197.011 97.5841L207.511 103.652ZM207.019 91.2276L196.514 97.3056L186.019 91.2325L196.519 85.1595L207.019 91.2276ZM185.516 90.954L196.021 84.8761L185.526 78.7444L175.021 84.8175L185.516 90.954ZM185.024 78.5245L174.519 84.5097L164.024 78.4366L174.529 72.3636L185.024 78.5245ZM163.512 78.1581L174.026 72.173L163.512 66.0218L153.027 72.0997L163.512 78.1581ZM163.029 65.8215L152.529 71.8066L142.054 65.7384L152.558 59.6605L163.029 65.8215ZM141.532 65.455L152.032 59.4699L141.537 53.3089L131.037 59.382L141.532 65.455ZM141.039 53.1184L130.534 59.1035L120.039 53.0304L130.539 46.9574L141.039 53.1184ZM273.495 129.156L284 123.083L273.5 116.903L263 122.976L273.495 129.156ZM273.003 116.732L262.513 122.687L252.018 116.619L262.513 110.541L273.003 116.732ZM251.501 116.453L262.005 110.38L251.51 104.18L241.006 110.258L251.501 116.453ZM251.008 104.028L240.508 109.965L230.008 103.897L240.513 97.8235L251.008 104.028ZM229.511 103.755L240.011 97.6769L229.516 91.6087L219.016 97.6818L229.511 103.755ZM229.018 91.3253L218.513 97.4033L208.018 91.3302L218.518 85.2572L229.018 91.3253ZM207.516 91.0469L218.021 84.9738L207.526 78.9008L197.021 84.9738L207.516 91.0469ZM207.023 78.6223L196.519 84.5097L186.024 78.4415L196.528 72.3636L207.023 78.6223ZM185.526 78.1581L196.026 72.2707L185.531 66.012L175.026 72.0899L185.526 78.1581ZM185.029 65.9192L174.529 71.8066L164.029 65.7335L174.534 59.6605L185.029 65.9192ZM163.512 65.455L174.031 59.5676L163.517 53.3089L153.017 59.382L163.512 65.455ZM163.039 53.2161L152.534 59.1035L142.054 53.0109L152.558 46.9378L163.039 53.2161ZM141.537 52.9376L152.041 46.8646L141.566 40.5765L131.042 46.8694L141.537 52.9376Z" fill="url(#paint0_radial)"/>
<path opacity="0.4" d="M93.775 106.011L94.1132 105.425L177.142 153.356L176.804 153.942L93.775 106.011Z" fill="#D6D8E5"/>
<path opacity="0.4" d="M178 120L149 103.5L178 87L207 103.5L178 120Z" fill="#D6D8E5"/>
<path d="M206.292 99.3908L181 85L155.711 99.3908L152 97.2815V101.5L181 118L210 101.5V97.2815L206.292 99.3908Z" fill="#D5D6E0"/>
<path d="M181 114L152 97.5L181 81L210 97.5L181 114Z" fill="#E9EAF4"/>
<path d="M179.998 62L156 47.9981L179.998 34L204 47.9981L179.998 62Z" fill="#E9EAF4"/>
<path d="M156 48V97.9798L180 112V62.0202L156 48Z" fill="#DFE0EA"/>
<path d="M181 112L205 97.9798V48L181 62.0202V112Z" fill="#D5D6E0"/>
<path d="M190 68.6667L185 71V66.3333L190 64V68.6667Z" fill="#2B303F"/>
<path d="M203 59.9339L191 67V62.0661L203 55V59.9339Z" fill="#2B303F"/>
<path d="M190 74.6667L185 77V72.3333L190 70V74.6667Z" fill="#2B303F"/>
<path d="M203 67.93L191 75V70.0623L203 63V67.93Z" fill="#2B303F"/>
<path d="M190 81.6667L185 84V79.3333L190 77V81.6667Z" fill="#2B303F"/>
<path d="M203 73.9339L191 81V76.0661L203 69V73.9339Z" fill="#2B303F"/>
<path d="M190 88.6667L185 91V86.3333L190 84V88.6667Z" fill="#2B303F"/>
<path d="M203 80.9339L191 88V83.0661L203 76V80.9339Z" fill="#2B303F"/>
<path d="M190 95.6642L185 98V93.3321L190 91V95.6642Z" fill="#2B303F"/>
<path d="M203 88.9339L191 96V91.0661L203 84V88.9339Z" fill="#2B303F"/>
<path d="M164 63L160 60.6667V56L164 58.3333V63Z" fill="#2B303F"/>
<path d="M177 71L165 63.9347V59L177 66.0692V71Z" fill="#2B303F"/>
<path d="M164 70L160 67.6654V63L164 65.3309V70Z" fill="#2B303F"/>
<path d="M177 78L165 70.9308V66L177 73.0653V78Z" fill="#2B303F"/>
<path d="M164 77L160 74.6654V70L164 72.3346V77Z" fill="#2B303F"/>
<path d="M177 85L165 77.9347V73L177 80.0653V85Z" fill="#2B303F"/>
<path d="M164 84L160 81.6667V77L164 79.3333V84Z" fill="#2B303F"/>
<path d="M177 92L165 84.9347V80L177 87.0653V92Z" fill="#2B303F"/>
<path d="M164 91L160 88.6667V84L164 86.3333V91Z" fill="#2B303F"/>
<path d="M177 98L165 90.9347V86L177 93.0653V98Z" fill="#2B303F"/>
<path d="M156 94.4847L179.998 107.998L204 94V97.2354L179.998 111L156 97.2354V94.4847Z" fill="url(#paint1_linear)"/>
<path d="M180.79 49C180.268 49.1168 179.725 49.1168 179.202 49L178 49.6746C179.296 50.1085 180.704 50.1085 182 49.6746L180.79 49Z" fill="#2B303F"/>
<path d="M182 47.395L183.354 48C183.761 47.764 184 47.3935 184 47C184 46.6065 183.761 46.236 183.354 46L182.004 46.6017C182.231 46.8375 182.229 47.1607 182 47.395Z" fill="#2B303F"/>
<path d="M179.195 46C179.717 45.8855 180.26 45.8855 180.782 46L182 45.3242C180.704 44.8919 179.296 44.8919 178 45.3242L179.195 46Z" fill="#2B303F"/>
<path d="M179 46.6017L177.65 46C177.241 46.2352 177 46.606 177 47C177 47.394 177.241 47.7648 177.65 48L179 47.3983C178.77 47.1626 178.77 46.8374 179 46.6017Z" fill="#2B303F"/>
<path d="M184 49.281L185.357 50C187.548 48.5335 187.548 46.4665 185.357 45L184 45.723C185.452 46.781 185.452 48.219 184 49.281Z" fill="#2B303F"/>
<path d="M183.852 50C182.017 50.9637 179.987 50.9637 178.151 50L177 50.912C179.562 52.3627 182.438 52.3627 185 50.912L183.852 50Z" fill="#2B303F"/>
<path d="M178.151 45C179.986 44.0367 182.014 44.0367 183.849 45L185 44.0863C182.437 42.6379 179.563 42.6379 177 44.0863L178.151 45Z" fill="#2B303F"/>
<path d="M177 45.719L175.63 45C173.457 46.4665 173.457 48.5335 175.63 50L177 49.281C175.581 48.219 175.554 46.781 177 45.719Z" fill="#2B303F"/>
<path d="M187 49.3335L188.365 50C191.878 47.9853 191.878 45.0185 188.365 43L187 43.6665C189.767 45.3041 189.762 47.6806 187 49.3335Z" fill="#2B303F"/>
<path d="M185.846 50C183.026 51.3799 178.951 51.3799 176.131 50L175 50.688C178.457 52.4373 183.543 52.4373 187 50.688L185.846 50Z" fill="#2B303F"/>
<path d="M176.154 43C178.977 41.6222 183.049 41.6222 185.869 43L187 42.3131C183.543 40.5623 178.457 40.5623 175 42.3131L176.154 43Z" fill="#2B303F"/>
<path d="M175 43.6665L173.635 43C170.122 45.0185 170.122 47.9853 173.635 50L175 49.3335C172.238 47.6882 172.238 45.3118 175 43.6665Z" fill="#2B303F"/>
<path opacity="0.4" d="M87 121L58 104.5L87 88L116 104.5L87 121Z" fill="#D6D8E5"/>
<path d="M115.289 101.389L90 87L64.7113 101.389L61 99.2792V103.502L90 120L119 103.502V99.2792L115.289 101.389Z" fill="#D5D6E0"/>
<path d="M90 116L61 99.5L90 83L119 99.5L90 116Z" fill="#E9EAF4"/>
<path d="M89.9981 64L66 49.9981L89.9981 36L114 49.9981L89.9981 64Z" fill="#E9EAF4"/>
<path d="M66 49V98.9798L90 113V63.0202L66 49Z" fill="#DFE0EA"/>
<path d="M90 113L114 98.9798V49L90 63.0202V113Z" fill="#D5D6E0"/>
<path d="M99 69.6667L94 72V67.3333L99 65V69.6667Z" fill="#2B303F"/>
<path d="M111 61.9361L99 69V64.0639L111 57V61.9361Z" fill="#2B303F"/>
<path d="M99 76.6667L94 79V74.3333L99 72V76.6667Z" fill="#2B303F"/>
<path d="M111 68.9339L99 76V71.0661L111 64V68.9339Z" fill="#2B303F"/>
<path d="M99 83.6667L94 86V81.3333L99 79V83.6667Z" fill="#2B303F"/>
<path d="M111 76.9339L99 84V79.0661L111 72V76.9339Z" fill="#2B303F"/>
<path d="M99 91.6667L94 94V89.3333L99 87V91.6667Z" fill="#2B303F"/>
<path d="M111 82.9339L99 90V85.0661L111 78V82.9339Z" fill="#2B303F"/>
<path d="M99 97.6667L94 100V95.3333L99 93V97.6667Z" fill="#2B303F"/>
<path d="M111 90.9339L99 98V93.0661L111 86V90.9339Z" fill="#2B303F"/>
<path d="M73 65L69 62.6667V58L73 60.3333V65Z" fill="#2B303F"/>
<path d="M86 73L74 65.9347V61L86 68.0692V73Z" fill="#2B303F"/>
<path d="M73 72L69 69.6654V65L73 67.3346V72Z" fill="#2B303F"/>
<path d="M86 80L74 72.9347V68L86 75.0653V80Z" fill="#2B303F"/>
<path d="M73 79L69 76.6667V72L73 74.3333V79Z" fill="#2B303F"/>
<path d="M86 87L74 79.9347V75L86 82.0653V87Z" fill="#2B303F"/>
<path d="M73 86L69 83.6667V79L73 81.3333V86Z" fill="#2B303F"/>
<path d="M86 94L74 86.9347V82L86 89.0653V94Z" fill="#2B303F"/>
<path d="M73 93L69 90.6667V86L73 88.3333V93Z" fill="#2B303F"/>
<path d="M86 101L74 93.9347V89L86 96.0692V101Z" fill="#2B303F"/>
<path d="M66 96.4847L89.9981 110.001L114 96V99.2354L89.9981 113L66 99.2354V96.4847Z" fill="url(#paint2_linear)"/>
<path d="M89.7912 51C89.2691 51.1149 88.7271 51.1149 88.205 51L87 51.6746C88.296 52.1085 89.704 52.1085 91 51.6746L89.7912 51Z" fill="#2B303F"/>
<path d="M92 49.39L93.3633 50C93.7647 49.7616 94 49.3919 94 49C94 48.6081 93.7647 48.2384 93.3633 48L92.0043 48.6067C92.2218 48.841 92.2201 49.1571 92 49.39Z" fill="#2B303F"/>
<path d="M88.2088 48C88.7309 47.8849 89.2729 47.8849 89.795 48L91 47.3244C89.7037 46.8919 88.2963 46.8919 87 47.3244L88.2088 48Z" fill="#2B303F"/>
<path d="M86.9957 48.6067L85.638 48C85.2358 48.2384 85 48.6081 85 49C85 49.3919 85.2358 49.7616 85.638 50L87 49.3933C86.7774 49.1598 86.7756 48.8417 86.9957 48.6067Z" fill="#2B303F"/>
<path d="M94.0225 51.281L95.3698 52C97.5434 50.5335 97.5434 48.4665 95.3698 47L94 47.723C95.4506 48.7851 95.4506 50.219 94.0225 51.281Z" fill="#2B303F"/>
<path d="M92.8296 51C90.9952 51.9614 88.967 51.9614 87.1326 51L86 51.912C88.5619 53.3627 91.4381 53.3627 94 51.912L92.8296 51Z" fill="#2B303F"/>
<path d="M87.1515 47C88.9859 46.0392 91.0141 46.0392 92.8485 47L94 46.0835C91.4373 44.6388 88.5627 44.6388 86 46.0835L87.1515 47Z" fill="#2B303F"/>
<path d="M86 47.7155L84.6302 47C82.4566 48.4636 82.4566 50.5323 84.6302 52L86 51.2805C84.5584 50.2175 84.5539 48.7784 86 47.7155Z" fill="#2B303F"/>
<path d="M95 51.3335L96.3652 52C99.8783 49.9853 99.8783 47.0185 96.3652 45L95 45.6665C97.7622 47.3118 97.7622 49.6921 95 51.3335Z" fill="#2B303F"/>
<path d="M94.8464 52C92.0226 53.3799 87.951 53.3799 85.131 52L84 52.688C87.4571 54.4373 92.5429 54.4373 96 52.688L94.8464 52Z" fill="#2B303F"/>
<path d="M85.1536 46C87.9774 44.6261 92.049 44.6222 94.869 46L96 45.3131C92.5429 43.5623 87.4571 43.5623 84 45.3131L85.1536 46Z" fill="#2B303F"/>
<path d="M84 45.6665L82.6348 45C79.1217 47.0185 79.1217 49.9853 82.6348 52L84 51.3335C81.2378 49.6921 81.2378 47.3156 84 45.6665Z" fill="#2B303F"/>
<path opacity="0.4" d="M131 146L102 129.5L131 113L160 129.5L131 146Z" fill="#D6D8E5"/>
<path d="M159.289 126.391L134 112L108.711 126.391L105 124.282V128.5L134 145L163 128.504V124.282L159.289 126.391Z" fill="#D5D6E0"/>
<path d="M134 141L105 124.5L134 108L163 124.5L134 141Z" fill="#E9EAF4"/>
<path d="M133 89L109 74.9981L133 61L157 75.0019L133 89Z" fill="#E9EAF4"/>
<path d="M109 75V124.98L133 139V89.0202L109 75Z" fill="#DFE0EA"/>
<path d="M133 139L157 124.983V75L133 89.0172V139Z" fill="#D5D6E0"/>
<path d="M142 94.6667L137 97V92.3333L142 90V94.6667Z" fill="#2B303F"/>
<path d="M156 87.9339L144 95V90.0661L156 83V87.9339Z" fill="#2B303F"/>
<path d="M142 102.667L137 105V100.333L142 98V102.667Z" fill="#2B303F"/>
<path d="M156 93.9339L144 101V96.0661L156 89V93.9339Z" fill="#2B303F"/>
<path d="M142 108.667L137 111V106.333L142 104V108.667Z" fill="#2B303F"/>
<path d="M156 101.934L144 109V104.066L156 97V101.934Z" fill="#2B303F"/>
<path d="M142 116.667L137 119V114.333L142 112V116.667Z" fill="#2B303F"/>
<path d="M156 107.934L144 115V110.066L156 103V107.934Z" fill="#2B303F"/>
<path d="M142 122.667L137 125V120.333L142 118V122.667Z" fill="#2B303F"/>
<path d="M156 114.934L144 122V117.066L156 110V114.934Z" fill="#2B303F"/>
<path d="M117 90L113 87.6654V83L117 85.3309V90Z" fill="#2B303F"/>
<path d="M130 98L118 90.9324V86L130 93.0676V98Z" fill="#2B303F"/>
<path d="M117 97L113 94.6654V90L117 92.3346V97Z" fill="#2B303F"/>
<path d="M130 105L118 97.9347V93L130 100.065V105Z" fill="#2B303F"/>
<path d="M117 104L113 101.667V97L117 99.3333V104Z" fill="#2B303F"/>
<path d="M130 112L118 104.935V100L130 107.065V112Z" fill="#2B303F"/>
<path d="M117 111L113 108.667V104L117 106.333V111Z" fill="#2B303F"/>
<path d="M130 119L118 111.935V107L130 114.065V119Z" fill="#2B303F"/>
<path d="M117 119L113 116.667V112L117 114.333V119Z" fill="#2B303F"/>
<path d="M130 126L118 118.935V114L130 121.069V126Z" fill="#2B303F"/>
<path d="M109 122.485L133 136.001L157 122V125.239L133 139L109 125.235V122.485Z" fill="url(#paint3_linear)"/>
<path d="M133.791 75C133.269 75.1149 132.727 75.1149 132.205 75L131 75.6746C132.296 76.1085 133.704 76.1085 135 75.6746L133.791 75Z" fill="#2B303F"/>
<path d="M135 75.39L136.363 76C136.765 75.7616 137 75.3919 137 75C137 74.6081 136.765 74.2384 136.363 74L135.004 74.6067C135.222 74.841 135.22 75.1571 135 75.39Z" fill="#2B303F"/>
<path d="M132.201 73C132.723 72.8866 133.265 72.8866 133.787 73L135 72.3196C133.704 71.8935 132.296 71.8935 131 72.3196L132.201 73Z" fill="#2B303F"/>
<path d="M132 74.6067L130.637 74C130.235 74.2384 130 74.6081 130 75C130 75.3919 130.235 75.7616 130.637 76L131.996 75.3933C131.776 75.1583 131.778 74.8402 132 74.6067Z" fill="#2B303F"/>
<path d="M137.022 76.281L138.37 77C140.543 75.5335 140.543 73.4665 138.37 72L137 72.723C138.46 73.7851 138.464 75.219 137.022 76.281Z" fill="#2B303F"/>
<path d="M136.849 76C135.014 76.9614 132.986 76.9614 131.151 76L130 76.912C132.562 78.3627 135.438 78.3627 138 76.912L136.849 76Z" fill="#2B303F"/>
<path d="M131.151 72C132.986 71.0367 135.014 71.0367 136.849 72L138 71.0863C135.437 69.6379 132.563 69.6379 130 71.0863L131.151 72Z" fill="#2B303F"/>
<path d="M129.978 72.7155L128.63 72C126.457 73.4636 126.457 75.5323 128.63 77L130 76.2805C128.558 75.2175 128.558 73.7621 129.978 72.7155Z" fill="#2B303F"/>
<path d="M139 77.3335L140.365 78C143.878 75.9853 143.878 73.0185 140.365 71L139 71.6665C141.762 73.3118 141.762 75.6882 139 77.3335Z" fill="#2B303F"/>
<path d="M138.846 77C136.023 78.3799 131.951 78.3799 129.131 77L128 77.688C131.457 79.4373 136.543 79.4373 140 77.688L138.846 77Z" fill="#2B303F"/>
<path d="M129.154 71C131.977 69.6261 136.049 69.6222 138.869 71L140 70.3131C136.543 68.5623 131.457 68.5623 128 70.3131L129.154 71Z" fill="#2B303F"/>
<path d="M128 71.6665L126.635 71C123.122 73.0185 123.122 75.9853 126.635 78L128 77.3335C125.238 75.6882 125.238 73.3156 128 71.6665Z" fill="#2B303F"/>
<path opacity="0.4" d="M178 174L149 157.5L178 141L207 157.5L178 174Z" fill="#D6D8E5"/>
<path d="M206.292 153.387L181 139L155.711 153.387L152 151.278V155.5L181 172L210 155.5V151.278L206.292 153.387Z" fill="#D5D6E0"/>
<path d="M181 168L152 151.5L181 135L210 151.5L181 168Z" fill="#E9EAF4"/>
<path d="M181 116L157 102.002L181 88L205 102.002L181 116Z" fill="#E9EAF4"/>
<path d="M156 102V151.979L180 166V116.017L156 102Z" fill="#DFE0EA"/>
<path d="M181 166L205 151.983V102L181 116.017V166Z" fill="#D5D6E0"/>
<path d="M190 122.667L185 125V120.333L190 118V122.667Z" fill="#2B303F"/>
<path d="M203 114.934L191 122V117.066L203 110V114.934Z" fill="#2B303F"/>
<path d="M190 128.667L185 131V126.333L190 124V128.667Z" fill="#2B303F"/>
<path d="M203 121.934L191 129V124.066L203 117V121.934Z" fill="#2B303F"/>
<path d="M190 136.667L185 139V134.333L190 132V136.667Z" fill="#2B303F"/>
<path d="M203 127.934L191 135V130.066L203 123V127.934Z" fill="#2B303F"/>
<path d="M190 142.667L185 145V140.333L190 138V142.667Z" fill="#2B303F"/>
<path d="M203 135.934L191 143V138.066L203 131V135.934Z" fill="#2B303F"/>
<path d="M190 150.667L185 153V148.333L190 146V150.667Z" fill="#2B303F"/>
<path d="M203 142.934L191 150V145.066L203 138V142.934Z" fill="#2B303F"/>
<path d="M164 118L160 115.665V111L164 113.335V118Z" fill="#2B303F"/>
<path d="M177 125L165 117.931V113L177 120.065V125Z" fill="#2B303F"/>
<path d="M164 124L160 121.669V117L164 119.335V124Z" fill="#2B303F"/>
<path d="M177 133L165 125.935V121L177 128.065V133Z" fill="#2B303F"/>
<path d="M164 131L160 128.667V124L164 126.333V131Z" fill="#2B303F"/>
<path d="M177 139L165 131.935V127L177 134.065V139Z" fill="#2B303F"/>
<path d="M164 139L160 136.667V132L164 134.333V139Z" fill="#2B303F"/>
<path d="M177 146L165 138.935V134L177 141.069V146Z" fill="#2B303F"/>
<path d="M164 145L160 142.667V138L164 140.333V145Z" fill="#2B303F"/>
<path d="M177 153L165 145.935V141L177 148.069V153Z" fill="#2B303F"/>
<path d="M157 148.489L181 162.001L205 148V151.239L181 165L157 151.235V148.489Z" fill="url(#paint4_linear)"/>
<path d="M180.791 103C180.269 103.117 179.727 103.117 179.205 103L178 103.675C179.296 104.108 180.704 104.108 182 103.675L180.791 103Z" fill="#2B303F"/>
<path d="M182 101.395L183.354 102C183.761 101.764 184 101.394 184 101C184 100.606 183.761 100.236 183.354 100L182 100.602C182.228 100.837 182.228 101.16 182 101.395Z" fill="#2B303F"/>
<path d="M179.206 100C179.729 99.8833 180.271 99.8833 180.794 100L182 99.3222C180.703 98.8926 179.297 98.8926 178 99.3222L179.206 100Z" fill="#2B303F"/>
<path d="M179 100.602L177.646 100C177.239 100.236 177 100.606 177 101C177 101.394 177.239 101.764 177.646 102L178.996 101.398C178.767 101.162 178.769 100.837 179 100.602Z" fill="#2B303F"/>
<path d="M184.022 103.28L185.37 104C187.543 102.536 187.543 100.464 185.37 99L184 99.7195C185.464 100.783 185.464 102.222 184.022 103.28Z" fill="#2B303F"/>
<path d="M183.852 104C182.017 104.961 179.987 104.961 178.151 104L177 104.917C179.563 106.361 182.437 106.361 185 104.917L183.852 104Z" fill="#2B303F"/>
<path d="M178.17 99C180.005 98.0397 182.033 98.0397 183.867 99L185 98.0863C182.437 96.6379 179.563 96.6379 177 98.0863L178.17 99Z" fill="#2B303F"/>
<path d="M177 99.7195L175.63 99C173.457 100.464 173.457 102.536 175.63 104L177 103.28C175.558 102.217 175.554 100.778 177 99.7195Z" fill="#2B303F"/>
<path d="M187 104.334L188.365 105C191.878 102.985 191.878 100.018 188.365 98L187 98.6665C189.762 100.304 189.762 102.677 187 104.334Z" fill="#2B303F"/>
<path d="M185.846 105C183.023 106.376 178.951 106.376 176.131 105L175 105.688C178.457 107.437 183.543 107.437 187 105.688L185.846 105Z" fill="#2B303F"/>
<path d="M176.154 98C178.977 96.6251 183.049 96.6212 185.869 98L187 97.3125C183.543 95.5605 178.457 95.5644 175 97.3125L176.154 98Z" fill="#2B303F"/>
<path d="M175 98.6668L173.635 98C170.122 100.016 170.122 102.984 173.635 105L175 104.333C172.22 102.687 172.22 100.313 175 98.6668Z" fill="#2B303F"/>
</g>
<defs>
<radialGradient id="paint0_radial" cx="0" cy="0" r="1" gradientUnits="userSpaceOnUse" gradientTransform="translate(141.5 119.685) rotate(-25.9003) scale(104.749 85.5823)">
<stop stop-color="#0F72CD"/>
<stop offset="1" stop-color="#EFF3F9"/>
<stop offset="1" stop-color="#F4F6FA"/>
</radialGradient>
<linearGradient id="paint1_linear" x1="156.003" y1="110.997" x2="203.998" y2="110.997" gradientUnits="userSpaceOnUse">
<stop stop-color="#0E6CC9"/>
<stop offset="1" stop-color="#1DB4FF"/>
</linearGradient>
<linearGradient id="paint2_linear" x1="66.003" y1="112.997" x2="113.998" y2="112.997" gradientUnits="userSpaceOnUse">
<stop stop-color="#0E6CC9"/>
<stop offset="1" stop-color="#1DB4FF"/>
</linearGradient>
<linearGradient id="paint3_linear" x1="109.003" y1="138.997" x2="156.998" y2="138.997" gradientUnits="userSpaceOnUse">
<stop stop-color="#0E6CC9"/>
<stop offset="1" stop-color="#1DB4FF"/>
</linearGradient>
<linearGradient id="paint4_linear" x1="157.003" y1="164.997" x2="204.998" y2="164.997" gradientUnits="userSpaceOnUse">
<stop stop-color="#0E6CC9"/>
<stop offset="1" stop-color="#1DB4FF"/>
</linearGradient>
</defs>
</svg>
