<svg width="285" height="209" viewBox="0 0 285 209" fill="none" xmlns="http://www.w3.org/2000/svg">
<mask id="mask0" mask-type="alpha" maskUnits="userSpaceOnUse" x="0" y="0" width="285" height="209">
<rect width="285" height="209" fill="#C4C4C4"/>
</mask>
<g mask="url(#mask0)">
<path opacity="0.42148" fill-rule="evenodd" clip-rule="evenodd" d="M141.454 207L-2 124.024L141.566 41L285 123.976L141.454 207ZM141.454 206.404L151.958 200.326L141.459 194.258L130.959 200.331L141.454 206.404ZM140.961 193.974L130.456 200.052L119.961 193.974L130.466 187.901L140.961 193.974ZM119.459 193.696L129.964 187.623L119.469 181.55L108.964 187.623L119.459 193.696ZM118.966 181.271L108.466 187.344L97.9665 181.271L108.471 175.193L118.966 181.271ZM97.469 180.978L107.969 174.92L97.4739 168.842L86.974 174.92L97.469 180.978ZM96.9765 168.568L86.457 174.622L75.9766 168.568L86.457 162.476L96.9765 168.568ZM75.4743 168.26L85.9791 162.217L75.484 156.114L64.9987 162.187L75.4743 168.26ZM74.9817 155.865L64.4769 161.899L53.9818 155.826L64.511 149.753L74.9817 155.865ZM53.4844 155.538L63.9843 149.514L53.4892 143.392L42.9844 149.47L53.4844 155.538ZM52.9869 143.162L42.487 149.177L31.987 143.108L42.4919 137.03L52.9869 143.162ZM31.4896 142.815L41.9895 136.811L31.4945 130.674L20.9945 136.747L31.4896 142.815ZM30.997 130.459L20.4922 136.537L9.99715 130.464L20.502 124.391L30.997 130.459ZM9.49483 130.185L19.9996 124.107L9.50458 118.039L-1.00024 124.112L9.49483 130.185ZM162.961 193.974L152.456 200.048L141.961 193.974L152.466 187.901L162.961 193.974ZM141.459 193.696L151.963 187.623L141.468 181.545L130.963 187.623L141.459 193.696ZM140.966 181.271L130.466 187.344L119.966 181.271L130.471 175.193L140.966 181.271ZM119.469 180.978L129.969 174.92L119.474 168.847L108.974 174.92L119.469 180.978ZM118.976 168.568L108.471 174.646L97.9762 168.568L108.476 162.495L118.976 168.568ZM97.4739 168.29L107.979 162.217L97.4836 156.144L86.9788 162.217L97.4739 168.29ZM96.9813 155.865L86.457 161.894L75.9814 155.826L86.4863 149.748L96.9813 155.865ZM75.484 155.533L85.9839 149.514L75.5035 143.387L64.9987 149.465L75.484 155.533ZM74.9866 143.162L64.511 149.172L53.9916 143.103L64.511 137.03L74.9866 143.162ZM53.4892 142.815L63.994 136.811L53.4941 130.669L42.9942 136.742L53.4892 142.815ZM52.9967 130.459L42.4919 136.454L31.9968 130.381L42.5016 124.308L52.9967 130.459ZM31.4945 130.093L41.9993 124.107L31.5042 117.946L20.9994 124.02L31.4945 130.093ZM31.0019 117.756L20.502 123.829L10.002 117.761L20.5068 111.683L31.0019 117.756ZM163.463 193.691L173.963 187.623L163.468 181.545L152.963 187.623L163.463 193.691ZM162.966 181.271L152.466 187.349L141.971 181.271L152.471 175.198L162.966 181.271ZM141.468 180.973L151.973 174.92L141.473 168.847L130.973 174.92L141.468 180.973ZM140.976 168.568L130.471 174.641L119.976 168.568L130.481 162.495L140.976 168.568ZM119.474 168.251L129.978 162.217L119.483 156.105L108.978 162.183L119.474 168.251ZM118.981 155.865L108.476 161.938L97.9811 155.87L108.486 149.792L118.981 155.865ZM97.4836 155.587L107.984 149.514L97.4885 143.441L86.9837 149.519L97.4836 155.587ZM96.9862 143.162L86.4863 149.172L75.9912 143.099L86.4911 137.026L96.9862 143.162ZM75.4889 142.81L85.9937 136.811L75.4986 130.664L64.9987 136.737L75.4889 142.81ZM74.9963 130.459L64.511 136.449L53.9964 130.376L64.511 124.303L74.9963 130.459ZM53.4941 130.088L64.0233 124.015L53.5039 117.942L42.9991 124.02L53.4941 130.088ZM53.0259 117.663L42.5016 123.726L32.0017 117.658L42.5065 111.58L53.0259 117.663ZM31.5042 117.37L42.0285 111.312L31.5091 105.224L21.0092 111.297L31.5042 117.37ZM184.97 181.271L174.465 187.33L163.97 181.271L174.47 175.198L184.97 181.271ZM163.473 180.993L173.978 174.92L163.473 168.847L152.973 174.92L163.473 180.993ZM162.98 168.568L152.475 174.641L141.98 168.573L152.485 162.495L162.98 168.568ZM141.478 168.29L151.983 162.217L141.488 156.144L130.983 162.222L141.478 168.29ZM140.985 155.865L130.486 161.938L119.981 155.816L130.486 149.743L140.985 155.865ZM119.488 155.592L129.988 149.514L119.493 143.445L108.988 149.519L119.488 155.592ZM118.991 143.162L108.491 149.24L97.9957 143.167L108.496 137.094L118.991 143.162ZM97.4934 142.884L107.998 136.811L97.4934 130.659L86.9935 136.732L97.4934 142.884ZM97.0008 130.459L86.496 136.532L75.9961 130.376L86.5009 124.298L97.0008 130.459ZM75.4938 130.083L86.0035 124.107L75.5035 117.937L64.9987 124.015L75.4938 130.083ZM75.0061 117.756L64.511 123.726L54.0013 117.653L64.511 111.58L75.0061 117.756ZM53.5039 117.365L64.0233 111.287L53.5087 105.219L43.0088 111.292L53.5039 117.365ZM53.0308 104.936L42.5065 111.004L32.0114 104.931L42.5114 98.8577L53.0308 104.936ZM185.458 180.964L195.972 174.891L185.458 168.817L174.973 174.92L185.458 180.964ZM184.975 168.539L174.47 174.612L164 168.534L174.504 162.456L184.975 168.539ZM163.473 168.26L173.978 162.187L163.483 156.1L152.978 162.173L163.473 168.26ZM162.98 155.836L152.48 161.914L141.98 155.841L152.485 149.768L162.98 155.836ZM141.483 155.523L151.983 149.484L141.488 143.377L130.988 149.45L141.483 155.523ZM140.99 143.133L130.486 149.206L119.99 143.133L130.49 137.06L140.99 143.133ZM119.488 142.854L129.993 136.781L119.498 130.708L108.993 136.786L119.488 142.854ZM118.996 130.43L108.491 136.503L97.9957 130.435L108.501 124.357L118.996 130.43ZM97.4934 130.156L107.998 124.078L97.5032 117.937L86.9983 124.01L97.4934 130.156ZM97.0008 117.727L86.5009 123.805L76.001 117.648L86.5058 111.575L97.0008 117.727ZM75.5035 117.36L86.0035 111.375L75.4986 105.214L64.9987 111.287L75.5035 117.36ZM75.0109 105.024L64.511 110.999L54.0111 104.931L64.511 98.8528L75.0109 105.024ZM53.5087 104.638L64.0233 98.5645L53.5185 92.4915L43.0137 98.5694L53.5087 104.638ZM206.975 168.524L196.47 174.597L185.975 168.529L196.48 162.451L206.975 168.524ZM185.458 168.241L195.977 162.173L185.482 156.095L174.977 162.168L185.458 168.241ZM184.98 155.821L174.48 161.899L164 155.807L174.504 149.734L184.98 155.821ZM163.483 155.543L173.987 149.47L163.512 143.372L152.988 149.47L163.483 155.543ZM162.99 143.118L152.485 149.191L141.99 143.123L152.49 137.045L162.99 143.118ZM141.488 142.84L151.993 136.767L141.498 130.694L130.993 136.771L141.488 142.84ZM140.995 130.415L130.49 136.493L119.995 130.42L130.5 124.347L140.995 130.415ZM119.498 130.141L129.998 124.064L119.503 117.995L108.998 124.068L119.498 130.141ZM119 117.712L108.501 123.717L98.0055 117.644L108.505 111.571L119 117.712ZM97.5032 117.433L108.008 111.36L97.508 105.287L87.0081 111.365L97.5032 117.433ZM97.0106 105.009L86.5058 110.994L76.0107 104.926L86.5155 98.8479L97.0106 105.009ZM75.5084 104.633L86.0132 98.6573L75.5035 92.4866L64.9987 98.5645L75.5084 104.633ZM75.0158 92.3058L64.511 98.2763L54.0159 92.2032L64.511 86.1301L75.0158 92.3058ZM207.477 168.236L217.977 162.158L207.482 156.09L196.977 162.163L207.477 168.236ZM206.98 155.807L196.48 161.875L185.985 155.802L196.484 149.729L206.98 155.807ZM185.482 155.528L195.987 149.455L185.487 143.382L174.987 149.46L185.482 155.528ZM184.99 143.103L174.485 149.152L164 143.084L174.504 137.006L184.99 143.103ZM163.512 142.796L173.992 136.752L163.512 130.65L153.017 136.723L163.512 142.796ZM162.995 130.4L152.49 136.434L141.995 130.361L152.5 124.288L162.995 130.4ZM141.498 130.127L151.997 124.049L141.502 117.981L130.998 124.054L141.498 130.127ZM141 117.697L130.5 123.77L120.005 117.697L130.505 111.624L141 117.697ZM119.503 117.419L130.008 111.346L119.508 105.273L109.008 111.351L119.503 117.419ZM119.01 104.994L108.505 111.067L98.0103 104.999L108.515 98.9212L119.01 104.994ZM97.508 104.721L108.013 98.6427L97.5178 92.5745L87.013 98.6476L97.508 104.721ZM97.0155 92.2911L86.5155 98.3691L76.0156 92.1983L86.5204 86.1253L97.0155 92.2911ZM75.5181 91.9101L86.0181 85.9396L75.523 79.764L65.0231 85.837L75.5181 91.9101ZM228.979 155.797L218.479 161.87L207.984 155.802L218.484 149.724L228.979 155.797ZM207.482 155.518L217.987 149.445L207.487 143.372L196.987 149.45L207.482 155.518ZM206.989 143.094L196.484 149.172L185.989 143.099L196.494 137.026L206.989 143.094ZM185.487 142.82L195.992 136.742L185.497 130.674L174.992 136.747L185.487 142.82ZM184.995 130.391L174.495 136.469L164 130.356L174.504 124.283L184.995 130.391ZM163.512 130.068L173.997 124.039L163.512 117.922L153.017 123.995L163.512 130.068ZM163.005 117.688L152.5 123.761L142.005 117.639L152.505 111.561L163.005 117.688ZM141.502 117.409L152.007 111.336L141.512 105.263L131.007 111.341L141.502 117.409ZM141.01 104.984L130.505 111.062L120.01 104.916L130.515 98.843L141.01 104.984ZM119.508 104.711L130.012 98.6329L119.517 92.4817L109.013 98.5547L119.508 104.711ZM119.015 92.2814L108.515 98.3544L98.0152 92.1934L108.52 86.1204L119.015 92.2814ZM97.5178 92.0029L108.018 85.9298L97.5227 79.8568L87.0227 85.9347L97.5178 92.0029ZM97.0252 79.5783L86.5204 85.6513L76.0253 79.4757L86.5253 73.3978L97.0252 79.5783ZM229.482 155.504L239.986 149.431L229.486 143.362L218.986 149.435L229.482 155.504ZM228.989 143.079L218.484 149.157L207.989 143.074L218.494 137.001L228.989 143.079ZM207.487 142.805L217.992 136.728L207.496 130.64L196.992 136.713L207.487 142.805ZM206.994 130.376L196.494 136.449L185.994 130.352L196.499 124.278L206.994 130.376ZM185.497 130.097L195.997 124.024L185.502 117.951L175.002 124.029L185.497 130.097ZM185.004 117.673L174.499 123.746L164 117.634L174.499 111.556L185.004 117.673ZM163.512 117.346L174.007 111.321L163.512 105.199L153.017 111.272L163.512 117.346ZM163.024 104.906L152.519 110.984L142.024 104.911L152.529 98.8381L163.024 104.906ZM141.527 104.628L152.027 98.5547L141.532 92.4817L131.027 98.5547L141.527 104.628ZM141.029 92.2032L130.515 98.2616L120.015 92.1934L130.52 86.1155L141.029 92.2032ZM119.532 91.9247L130.032 85.8517L119.537 79.7786L109.037 85.8565L119.532 91.9247ZM119.039 79.5001L108.535 85.5732L98.0396 79.505L108.544 73.432L119.039 79.5001ZM97.5373 79.2265L108.042 73.1486L97.547 67.0804L87.0422 73.1535L97.5373 79.2265ZM250.989 143.064L240.484 149.142L229.989 143.069L240.494 136.996L250.989 143.064ZM229.486 142.786L239.991 136.713L229.496 130.64L218.991 136.713L229.486 142.786ZM228.994 130.361L218.494 136.42L207.994 130.352L218.499 124.274L228.994 130.361ZM207.496 130.083L217.996 124.01L207.501 117.937L197.001 124.015L207.496 130.083ZM207.004 117.658L196.499 123.736L186.004 117.663L196.504 111.59L207.004 117.658ZM185.502 117.385L196.007 111.307L185.511 105.239L175.007 111.312L185.502 117.385ZM185.009 104.955L174.504 111.028L164 104.906L174.504 98.8332L185.009 104.955ZM163.512 104.618L174.012 98.6036L163.512 92.4719L153.012 98.5499L163.512 104.618ZM163.014 92.2521L152.514 98.3251L142.019 92.2569L152.519 86.179L163.014 92.2521ZM141.517 91.8954L152.022 85.9005L141.522 79.7542L131.022 85.8272L141.517 91.8954ZM141.025 79.549L130.52 85.6269L120.025 79.5539L130.529 73.4808L141.025 79.549ZM119.522 79.1581L130.027 73.1974L119.532 67.012L109.027 73.0851L119.522 79.1581ZM119.03 66.8459L108.53 72.8066L98.0299 66.7335L108.535 60.6605L119.03 66.8459ZM251.491 142.776L261.991 136.703L251.496 130.63L240.991 136.708L251.491 142.776ZM250.993 130.352L240.494 136.425L229.998 130.356L240.498 124.278L250.993 130.352ZM229.496 130.058L240.001 124L229.501 117.912L219.001 123.985L229.496 130.058ZM229.004 117.648L218.499 123.726L208.004 117.653L218.509 111.58L229.004 117.648ZM207.501 117.336L218.006 111.297L207.511 105.19L197.006 111.263L207.501 117.336ZM207.009 104.945L196.504 111.018L186.009 104.906L196.514 98.8284L207.009 104.945ZM185.511 104.613L196.011 98.5938L185.516 92.467L175.012 98.545L185.511 104.613ZM185.014 92.2423L174.514 98.3153L164 92.1837L174.499 86.1106L185.014 92.2423ZM163.512 91.8954L174.022 85.8907L163.512 79.7493L153.017 85.8223L163.512 91.8954ZM163.024 79.5392L152.519 85.6171L142.024 79.5441L152.529 73.471L163.024 79.5392ZM141.522 79.1581L152.027 73.1877L141.532 67.0267L131.027 73.0997L141.522 79.1581ZM141.029 66.8361L130.529 72.8066L120.03 66.7384L130.534 60.6605L141.029 66.8361ZM119.532 66.455L130.032 60.4846L119.537 54.304L109.037 60.382L119.532 66.455ZM272.993 130.337L262.513 136.415L252.018 130.342L262.513 124.269L272.993 130.337ZM251.496 130.063L262.001 123.985L251.501 117.917L241.001 123.99L251.496 130.063ZM251.003 117.634L240.498 123.707L230.003 117.634L240.508 111.561L251.003 117.634ZM229.501 117.355L240.006 111.282L229.511 105.209L219.006 111.287L229.501 117.355ZM229.008 104.931L218.508 111.004L208.009 104.936L218.513 98.8577L229.008 104.931ZM207.511 104.652L218.011 98.5792L207.516 92.511L197.011 98.5841L207.511 104.652ZM207.019 92.2276L196.514 98.3056L186.019 92.2325L196.519 86.1595L207.019 92.2276ZM185.516 91.954L196.021 85.8761L185.526 79.7444L175.021 85.8175L185.516 91.954ZM185.024 79.5245L174.519 85.5097L164.024 79.4366L174.529 73.3636L185.024 79.5245ZM163.512 79.1581L174.026 73.173L163.512 67.0218L153.027 73.0997L163.512 79.1581ZM163.029 66.8215L152.529 72.8066L142.054 66.7384L152.558 60.6605L163.029 66.8215ZM141.532 66.455L152.032 60.4699L141.537 54.3089L131.037 60.382L141.532 66.455ZM141.039 54.1184L130.534 60.1035L120.039 54.0304L130.539 47.9574L141.039 54.1184ZM273.495 130.156L284 124.083L273.5 117.903L263 123.976L273.495 130.156ZM273.003 117.732L262.513 123.687L252.018 117.619L262.513 111.541L273.003 117.732ZM251.501 117.453L262.005 111.38L251.51 105.18L241.006 111.258L251.501 117.453ZM251.008 105.028L240.508 110.965L230.008 104.897L240.513 98.8235L251.008 105.028ZM229.511 104.755L240.011 98.6769L229.516 92.6087L219.016 98.6818L229.511 104.755ZM229.018 92.3253L218.513 98.4033L208.018 92.3302L218.518 86.2572L229.018 92.3253ZM207.516 92.0469L218.021 85.9738L207.526 79.9008L197.021 85.9738L207.516 92.0469ZM207.023 79.6223L196.519 85.5097L186.024 79.4415L196.528 73.3636L207.023 79.6223ZM185.526 79.1581L196.026 73.2707L185.531 67.012L175.026 73.0899L185.526 79.1581ZM185.029 66.9192L174.529 72.8066L164.029 66.7335L174.534 60.6605L185.029 66.9192ZM163.512 66.455L174.031 60.5676L163.517 54.3089L153.017 60.382L163.512 66.455ZM163.039 54.2161L152.534 60.1035L142.054 54.0109L152.558 47.9378L163.039 54.2161ZM141.537 53.9376L152.041 47.8646L141.566 41.5765L131.042 47.8694L141.537 53.9376Z" fill="url(#paint0_radial)"/>
<path opacity="0.4" d="M165.69 154.383L147.321 143.902C145.996 143.144 146.169 141.829 147.705 140.957L159.613 134.176L182.777 147.393L170.869 154.174C169.332 155.042 167.027 155.137 165.69 154.383Z" fill="#D6D8E5"/>
<path d="M167.353 153.424L148.976 142.958C147.654 142.2 147.823 140.885 149.36 140.013L161.268 133.232L184.439 146.434L172.531 153.215C170.991 154.083 168.678 154.178 167.353 153.424Z" fill="#B1B4C4"/>
<path d="M184.423 146.434V145.74L183.352 146.35L184.423 146.434Z" fill="#B1B4C4"/>
<path d="M148.086 141.711V141.006L149.185 141.457L148.086 141.711Z" fill="#B1B4C4"/>
<path d="M167.353 152.734L148.976 142.265C147.654 141.507 147.823 140.195 149.36 139.323L161.268 132.531L184.439 145.729L172.531 152.51C170.991 153.378 168.678 153.488 167.353 152.734Z" fill="#D6D8E5"/>
<path d="M161.315 132.572L158.445 123.187L181.866 136.442L184.421 145.74L161.315 132.572Z" fill="#9EA1AF"/>
<path d="M183.741 146.127L184.42 145.748L183.41 144.952L183.741 146.127Z" fill="#9EA1AF"/>
<path d="M160.577 132.925L157.711 123.54L181.132 136.795L183.744 146.127L160.577 132.925Z" fill="#B1B4C4"/>
<path d="M220.039 161.948L129.383 110.299C128.111 109.576 127.078 107.646 127.078 105.956V36.757C127.078 35.0854 128.108 34.3159 129.383 35.0399L220.039 86.6887C221.311 87.4127 222.344 89.342 222.344 91.0288V160.231C222.344 161.903 221.303 162.672 220.039 161.948Z" fill="#B1B4C4"/>
<path d="M220.496 162.661L221.503 162.089L221.068 159.151L220.496 162.661Z" fill="#B1B4C4"/>
<path d="M126.906 35.4686L127.897 34.9038L129.319 35.7036C129.319 35.7036 127.805 35.931 127.782 35.9234C127.759 35.9159 126.906 35.4686 126.906 35.4686Z" fill="#B1B4C4"/>
<path d="M219.203 162.422L128.547 110.774C127.276 110.05 126.242 108.12 126.242 106.43V37.2311C126.242 35.5595 127.276 34.79 128.547 35.514L219.203 87.1628C220.475 87.8868 221.508 89.8162 221.508 91.5029V160.705C221.504 162.377 220.475 163.146 219.203 162.422Z" fill="#E4E7F2"/>
<path d="M219.039 162.509L128.383 110.861C127.111 110.137 126.078 108.207 126.078 106.521V37.3219C126.078 35.6503 127.108 34.8809 128.383 35.6048L219.039 87.2537C220.311 87.9776 221.344 89.907 221.344 91.5937V160.792C221.344 162.475 220.311 163.233 219.039 162.509Z" fill="#D6D8E5"/>
<path d="M220.096 158.306L127.227 105.398L127.277 37.5985C127.277 36.9048 127.772 36.6243 128.379 36.9693L219.035 88.6181C219.689 89.0393 220.099 89.7439 220.138 90.5133L220.096 158.306Z" fill="white"/>
<path d="M214.348 99.3642L132.027 52.4686C131.449 52.0595 131.101 51.4043 131.09 50.7023V44.8384C131.09 44.16 131.509 43.8453 132.027 44.141L214.348 91.0366C214.927 91.4465 215.275 92.1034 215.285 92.8067V98.6668C215.285 99.3491 214.866 99.6599 214.348 99.3642Z" fill="#E9EAF2"/>
<path d="M210.052 115.061L190.703 104.038C190.125 103.629 189.777 102.974 189.766 102.272V89.9489C189.766 89.2666 190.184 88.9558 190.703 89.2514L210.052 100.274C210.631 100.682 210.979 101.338 210.989 102.04V114.363C210.974 115.042 210.555 115.356 210.052 115.061Z" fill="#E9EAF2"/>
<path d="M184.547 119.063L136.008 91.3927C135.717 91.1892 135.543 90.8609 135.539 90.5096V88.3907C135.539 88.0496 135.746 87.8904 136.008 88.0382L184.547 115.709C184.836 115.913 185.01 116.241 185.016 116.592V118.714C185.016 119.052 184.805 119.211 184.547 119.063Z" fill="#E9EAF2"/>
<path d="M179.771 121.36L136.148 96.5211C135.86 96.3159 135.686 95.9887 135.68 95.6379V94.5804C135.68 94.2392 135.891 94.0838 136.148 94.2317L179.771 119.082C180.06 119.287 180.234 119.614 180.24 119.965V121.019C180.24 121.349 180.028 121.508 179.771 121.36Z" fill="#E9EAF2"/>
<path d="M179.771 125.363L136.148 100.513C135.859 100.308 135.686 99.9805 135.68 99.6296V98.572C135.68 98.2347 135.891 98.0755 136.148 98.2233L179.771 123.074C180.06 123.278 180.234 123.606 180.24 123.957V125.014C180.24 125.355 180.028 125.511 179.771 125.363Z" fill="#E9EAF2"/>
<path d="M168.619 123.013L136.148 104.515C135.859 104.31 135.686 103.983 135.68 103.632V102.586C135.68 102.245 135.891 102.089 136.148 102.233L168.619 120.731C168.906 120.939 169.079 121.267 169.088 121.618V122.675C169.088 123.005 168.877 123.16 168.619 123.013Z" fill="#E9EAF2"/>
<path d="M210.505 120.185L190.219 108.628C189.928 108.424 189.754 108.096 189.75 107.745V106.687C189.75 106.346 189.957 106.191 190.219 106.339L210.505 117.896C210.794 118.101 210.968 118.428 210.974 118.779V119.836C210.974 120.178 210.762 120.333 210.505 120.185Z" fill="#E9EAF2"/>
<path d="M210.505 124.192L190.219 112.631C189.928 112.427 189.754 112.099 189.75 111.748V110.694C189.75 110.353 189.957 110.194 190.219 110.341L210.505 121.917C210.795 122.121 210.969 122.449 210.974 122.801V123.854C210.974 124.192 210.762 124.336 210.505 124.192Z" fill="#E9EAF2"/>
<path d="M205.192 125.166L190.211 116.634C189.921 116.43 189.746 116.102 189.742 115.75V114.716C189.742 114.375 189.95 114.219 190.211 114.367L205.192 122.895C205.482 123.1 205.655 123.428 205.661 123.779V124.836C205.661 125.158 205.442 125.329 205.192 125.166Z" fill="#E9EAF2"/>
<path d="M210.052 145.915L190.703 134.892C190.125 134.483 189.777 133.828 189.766 133.126V120.803C189.766 120.124 190.184 119.81 190.703 120.105L210.052 131.128C210.629 131.544 210.971 132.205 210.974 132.91V145.232C210.974 145.896 210.555 146.21 210.052 145.915Z" fill="#E9EAF2"/>
<path d="M210.505 151.04L190.219 139.482C189.928 139.279 189.754 138.951 189.75 138.599V137.545C189.75 137.204 189.957 137.045 190.219 137.193L210.505 148.75C210.792 148.958 210.965 149.286 210.974 149.637V150.691C210.974 151.032 210.762 151.187 210.505 151.04Z" fill="#E9EAF2"/>
<path d="M136.136 52.0729C136.84 51.672 136.839 50.3712 136.135 49.1674C135.431 47.9636 134.289 47.3127 133.585 47.7136C132.882 48.1145 132.882 49.4153 133.587 50.6191C134.291 51.8229 135.432 52.4738 136.136 52.0729Z" fill="#DADCE5"/>
<path d="M177.661 75.0482L170.539 70.9924C170.394 70.8894 170.307 70.725 170.305 70.5489V69.6089C170.305 69.4383 170.408 69.3587 170.539 69.4345L177.661 73.4903C177.806 73.5908 177.894 73.7547 177.895 73.93V74.8625C177.895 75.0444 177.784 75.124 177.661 75.0482Z" fill="#DADCE5"/>
<path d="M189.184 81.6171L182.062 77.5689C181.918 77.4671 181.831 77.3041 181.828 77.1292V76.1968C181.828 76.0262 181.936 75.9466 182.062 76.0224L189.184 80.0782C189.329 80.1812 189.416 80.3456 189.419 80.5217V81.4541C189.419 81.6095 189.307 81.6891 189.184 81.6171Z" fill="#DADCE5"/>
<path d="M200.524 88.076L193.402 84.0126C193.257 83.9121 193.169 83.7483 193.168 83.5729V82.6405C193.168 82.4699 193.272 82.3941 193.402 82.4661L200.524 86.5219C200.669 86.6249 200.756 86.7893 200.759 86.9654V87.8978C200.759 88.0722 200.655 88.148 200.524 88.076Z" fill="#DADCE5"/>
<path d="M212.048 94.6259L204.93 90.5701C204.785 90.4671 204.698 90.3027 204.695 90.1266V89.1942C204.695 89.0236 204.799 88.9478 204.93 89.0198L212.048 93.1097C212.193 93.2103 212.281 93.3741 212.282 93.5494V94.4819C212.282 94.6259 212.178 94.7169 212.048 94.6259Z" fill="#DADCE5"/>
<path d="M128.57 80.9647V74.1853L131.092 73.5776L128.57 80.9647Z" fill="#232733"/>
<path d="M159.442 117.846L117.5 93.2253C116.992 92.8547 116.688 92.261 116.68 91.6255V69.8102C116.68 69.194 117.056 68.9108 117.5 69.1787L159.442 93.7993C159.951 94.1675 160.257 94.7602 160.266 95.3953V117.23C160.266 117.831 159.897 118.114 159.442 117.846Z" fill="#E9EAF2"/>
<path d="M148.293 84.0191L148.289 76.0556L145.831 74.3608V84.0191L143.098 85.4681L147.06 87.5688L151.022 85.4681L148.293 84.0191Z" fill="#353C4C"/>
<path d="M151.023 92.852L150.893 85.4819L148.117 86.9332L151.023 92.852Z" fill="#232733"/>
<path d="M142.728 96.1881L122.441 84.631C122.151 84.4274 121.977 84.0992 121.973 83.7478V82.6903C121.973 82.3491 122.18 82.1937 122.441 82.3415L142.728 93.8986C143.016 94.1034 143.19 94.4309 143.196 94.7818V95.8394C143.196 96.1805 142.985 96.3359 142.728 96.1881Z" fill="url(#paint1_linear)"/>
<path d="M142.728 100.195L122.441 88.6338C122.151 88.4302 121.977 88.102 121.973 87.7506V86.6968C121.973 86.3557 122.18 86.1965 122.441 86.3443L142.728 97.9204C143.017 98.1244 143.191 98.4523 143.196 98.8036V99.8573C143.196 100.195 142.985 100.339 142.728 100.195Z" fill="url(#paint2_linear)"/>
<path d="M137.415 101.169L122.433 92.6365C122.143 92.433 121.969 92.1048 121.965 91.7534V90.7186C121.965 90.3774 122.172 90.222 122.433 90.3698L137.415 98.8984C137.704 99.1028 137.878 99.4305 137.883 99.7816V100.839C137.883 101.161 137.665 101.332 137.415 101.169Z" fill="url(#paint3_linear)"/>
<path d="M154.029 93.7756C153 95.7453 150.394 97.3428 148.22 97.3428C146.046 97.3428 145.132 95.7453 146.161 93.7756C147.19 91.8059 149.803 90.2104 151.977 90.2104C154.151 90.2104 155.065 91.8059 154.029 93.7756Z" fill="url(#paint4_linear)"/>
<path fill-rule="evenodd" clip-rule="evenodd" d="M151.469 91.0029L151.134 91.6484C151.587 91.6742 151.932 91.87 152.08 92.1927L151.69 92.4272C151.611 92.2939 151.501 92.1842 151.371 92.1089C151.241 92.0335 151.094 91.995 150.946 91.9969L149.526 94.7617C149.948 94.7299 150.356 94.5815 150.708 94.3313L150.852 94.5745C150.401 94.8837 149.882 95.0652 149.345 95.1016L149.01 95.7578H148.647L148.992 95.0844C148.183 94.9596 147.876 94.2238 148.323 93.3632C148.587 92.9081 148.941 92.52 149.362 92.226C149.782 91.9319 150.259 91.7392 150.757 91.6613L151.104 91.0029H151.469ZM148.692 93.3675C148.345 94.0409 148.57 94.6089 149.179 94.7401L150.576 92.0163C150.19 92.0866 149.822 92.2435 149.497 92.4765C149.172 92.7094 148.898 93.0132 148.692 93.3675Z" fill="white"/>
<path d="M153.904 91.0029L154.979 92.8152C155.37 93.4617 155.349 94.3647 154.823 95.3637C153.787 97.3282 151.19 98.9277 149.021 98.9277C147.956 98.9277 147.192 98.544 146.813 97.9184L145.738 96.1082C146.117 96.7338 146.881 97.1155 147.946 97.1155C150.115 97.1155 152.712 95.5242 153.748 93.5702C154.274 92.5524 154.297 91.6494 153.904 91.0029Z" fill="#0E6CC9"/>
<path d="M143.098 85.4681L145.958 90.2471L149.702 92.852L147.503 87.2497L144.418 84.9272L143.098 85.4681Z" fill="#2B303F"/>
<path d="M127.405 63.2118L126.019 62.4736V72.1292L123.285 73.5777L127.248 75.6816L131.21 73.5777L128.476 72.1329L127.405 63.2118Z" fill="#353C4C"/>
<path d="M128.569 80.9646V74.9346L126.242 75.2536L128.569 80.9646Z" fill="#232733"/>
<path d="M124.825 78.3569L128.568 80.9647L126.519 75.2786L123.285 73.5776L124.825 78.3569Z" fill="#2B303F"/>
<path opacity="0.4" d="M102.983 118.082L79.8433 104.739L51.9609 120.738L76.9067 135.118L104.793 119.119V117.046L102.983 118.082Z" fill="#D6D8E5"/>
<path d="M79.6977 100.777L53.7572 116.216L51.9609 115.146V117.285L79.6977 133.797L107.435 117.285V114.645L105.287 115.785L79.6977 100.777Z" fill="#B1B4C4"/>
<path d="M79.6977 131.155L51.9609 114.645L79.6977 98.1353L107.435 114.645L79.6977 131.155Z" fill="#E7E9F2"/>
<path d="M78.3789 108.702L81.0205 107.663V30.7744L78.3789 31.8132V108.702Z" fill="#B1B4C4"/>
<path d="M79.6992 63.7944L92.41 83.6064L94.228 82.8612L81.02 61.7725L79.6992 63.4184V63.7944Z" fill="#B1B4C4"/>
<path d="M79.6992 67.4798L92.9072 87.5688V83.8112L79.6992 63.7944V67.4798Z" fill="#D6D8E5"/>
<path d="M78.3789 107.663L81.0205 108.702V31.8132L78.3789 30.7744V107.663Z" fill="#D6D8E5"/>
<path d="M91.5859 116.908L94.2275 117.947V41.0588L91.5859 40.02V116.908Z" fill="#D6D8E5"/>
<path d="M94.2266 117.947L96.8682 116.908V40.02L94.2266 41.0588V117.947Z" fill="#B1B4C4"/>
<path d="M79.6992 103.418L92.9072 88.5033V84.9272L79.6992 99.8649V103.418Z" fill="#D6D8E5"/>
<path d="M81.5157 102.522L92.9072 90.1373V88.5034L79.6992 103.419L81.5157 102.522Z" fill="#B1B4C4"/>
<path d="M79.6992 63.7944L92.9072 48.8793V45.3032L79.6992 60.2409V63.7944Z" fill="#D6D8E5"/>
<path d="M79.6992 62.4736L81.5157 61.5739L92.9072 49.1923V47.9448L79.6992 62.4736Z" fill="#B1B4C4"/>
<path d="M65.1719 117.947L67.8135 116.908V40.02L65.1719 41.0588V117.947Z" fill="#B1B4C4"/>
<path d="M65.1719 71.7192L78.3799 92.1625L79.7007 90.7898L66.8444 70.3984L65.1719 71.3435V71.7192Z" fill="#B1B4C4"/>
<path d="M65.1719 75.4084L78.3799 95.4936V91.7398L65.1719 71.7192V75.4084Z" fill="#D6D8E5"/>
<path d="M62.5273 116.908L65.1689 117.947V41.0588L62.5273 40.02V116.908Z" fill="#D6D8E5"/>
<path d="M78.3789 123.512L81.0205 124.551V47.6666L78.3789 46.624V123.512Z" fill="#D6D8E5"/>
<path d="M78.3789 124.551L81.0205 123.512V46.624L78.3789 47.6666V124.551Z" fill="#B1B4C4"/>
<path d="M65.1719 111.343L78.3799 96.4311V92.8521L65.1719 107.79V111.343Z" fill="#D6D8E5"/>
<path d="M66.9883 110.444L78.3799 98.0651L78.838 95.8218L65.1719 111.343L66.9883 110.444Z" fill="#B1B4C4"/>
<path d="M65.1719 71.7192L78.3799 56.8071V53.228L65.1719 68.1626V71.7192Z" fill="#D6D8E5"/>
<path d="M66.9883 70.8197L78.3799 58.4376V56.8071L65.1719 71.7193L66.9883 70.8197Z" fill="#B1B4C4"/>
<path d="M80.3586 51.9072L61.207 41.3389L80.3586 30.7744L99.5102 41.3389L80.3586 51.9072Z" fill="#F7DC6B"/>
<path d="M78.3774 21.0947L56.8134 33.416L50.6406 29.8878L72.2046 17.5664L78.3774 21.0947Z" fill="#353C4C"/>
<path d="M50.6406 36.1687V30.7744L57.2446 34.6257V40.02L50.6406 36.1687Z" fill="#2B303F"/>
<path d="M57.2461 40.02L79.6997 26.8221V21.5288L57.2461 34.7267V39.5048" fill="#232733"/>
<path d="M78.3774 15.8115L56.8134 28.1328L50.6406 24.6045L72.2046 12.2832L78.3774 15.8115Z" fill="#353C4C"/>
<path d="M50.6406 30.8871V25.4912L57.2446 29.3409V34.7368L50.6406 30.8871Z" fill="#2B303F"/>
<path d="M57.2461 34.7368L79.6997 21.5417V16.2456L57.2461 29.4407V34.2217" fill="#232733"/>
<path d="M62.5288 32.0952L48 24.352V21.5288L62.5288 29.2233V32.0952Z" fill="#D6D8E5"/>
<path d="M82.4334 41.3408L48 21.6763L50.549 20.208L84.9824 39.8725L82.4334 41.3408Z" fill="#E7E9F2"/>
<path d="M77.0571 28.1328L59.8867 17.8795V14.9248L77.0571 24.4228V28.1328Z" fill="#D6D8E5"/>
<path d="M59.8867 15.0276L62.2889 13.604L91.5859 30.6716L89.1837 32.0952L59.8867 15.0276Z" fill="#E7E9F2"/>
<path d="M69.1328 20.208V22.9993L70.1963 31.0364L71.7744 32.0952L69.1328 20.208Z" fill="#D6D8E5"/>
<path d="M74.416 33.416L72.1058 21.8641L69.1328 20.208L70.9352 31.5916L74.416 33.416Z" fill="#E7E9F2"/>
<path d="M79.6982 28.5516L61.207 17.5664L80.3586 7L99.5102 17.5664L80.3586 28.1328L79.6982 28.5516Z" fill="#E7E9F2"/>
<path d="M61.207 51.4884V17.5664L79.6982 28.5517V62.4736L61.207 51.4884Z" fill="#D6D8E5"/>
<path d="M98.1904 17.5664V51.4884L79.6992 62.4736V28.5478L98.1904 17.5664Z" fill="#B1B4C4"/>
<path d="M70.0267 33.8265L66.4922 22.8496L79.7002 30.7744V39.2952L70.0267 33.8265Z" fill="url(#paint5_linear)"/>
<path d="M98.1904 30.528L79.6992 39.2952V30.7744L98.1904 21.5288V30.528Z" fill="url(#paint6_linear)"/>
<path d="M82.3398 42.9302V41.4993L83.6273 40.7754L162.909 87.2999V90.2103L82.3398 42.9302Z" fill="#D6D8E5"/>
<path d="M163.065 87.5688L82.3398 41.4399L84.8246 40.02L165.55 86.1489L163.065 87.5688Z" fill="#E7E9F2"/>
<path d="M94.2266 36.3263V34.9692L95.4948 34.1602L174.795 80.696V83.6063L94.2266 36.3263Z" fill="#D6D8E5"/>
<path d="M174.952 80.9648L94.2266 34.8358L96.7113 33.416L177.437 79.5451L174.952 80.9648Z" fill="#E7E9F2"/>
<path d="M177.439 82.4171L162.91 90.2104V87.4337L177.439 79.644V82.4171Z" fill="#B1B4C4"/>
<path d="M177.439 79.533L163.654 87.5688L161.59 86.3591L175.375 78.3232L177.439 79.533Z" fill="#E7E9F2"/>
<path d="M162.908 78.6692L153.308 80.9648L148.379 78.38L162.484 75.6816L162.908 75.9086V78.6692Z" fill="#B1B4C4"/>
<path d="M162.908 75.6837L150.949 78.3232L148.379 77.0317L160.428 74.3608L162.908 75.6837Z" fill="#E7E9F2"/>
<path d="M144.418 63.7944V66.5866L145.481 74.6262L147.06 75.6816L144.418 63.7944Z" fill="#D6D8E5"/>
<path d="M149.701 78.3232L147.391 66.7714L144.418 65.1152L146.224 76.4989L149.701 78.3232Z" fill="#E7E9F2"/>
<path d="M143.099 66.782L133.501 69.0776L128.57 66.4928L142.68 63.7944L143.099 64.0214V66.782Z" fill="#B1B4C4"/>
<path d="M129.126 67.1568L127.406 65.1152L140.622 62.4736L143.098 63.7965L129.126 67.1568Z" fill="#E7E9F2"/>
<path d="M123.285 51.9072V54.6986L124.345 62.7356L125.927 63.7944L123.285 51.9072Z" fill="#D6D8E5"/>
<path d="M128.568 66.436L126.258 54.8842L123.285 53.228L125.088 64.6117L128.568 66.436Z" fill="#E7E9F2"/>
<path d="M113.688 57.1906L108.758 54.6058L121.931 52.4863L123.287 53.2282V54.895L113.688 57.1906Z" fill="#B1B4C4"/>
<path d="M123.287 53.2301L111.328 55.8696L108.758 54.5812L120.81 51.9072L123.287 53.2301Z" fill="#E7E9F2"/>
<path d="M103.473 40.02V42.8122L104.533 50.8518L106.114 51.9072L103.473 40.02Z" fill="#D6D8E5"/>
<path d="M108.756 54.5488L106.448 42.997L103.473 41.3408L105.276 52.7244L108.756 54.5488Z" fill="#E7E9F2"/>
<path d="M93.8757 45.3032L88.9453 42.7184L103.474 41.3408V43.0076L93.8757 45.3032Z" fill="#B1B4C4"/>
<path d="M90.1951 43.9822L87.625 42.6938L100.525 39.8291L103.475 41.3406L90.1951 43.9822Z" fill="#E7E9F2"/>
<path opacity="0.4" d="M59.9631 138.606L50.0733 132.422C48.9641 131.72 49.0898 130.494 50.3875 129.686L55.4156 126.533C56.7133 125.745 58.6728 125.638 59.7968 126.34L69.7014 132.524C70.8105 133.222 70.6811 134.447 69.3871 135.259L64.359 138.413C63.0465 139.221 61.0834 139.307 59.9631 138.606Z" fill="#D6D8E5"/>
<path d="M73.0937 132.778V118.999L51.9609 116.626V130.493C51.9692 130.977 52.2553 131.414 52.6996 131.623L62.6049 137.322C63.7129 137.969 65.6888 137.889 66.9814 137.141L72.0042 134.235C72.7429 133.813 73.1122 133.272 73.0753 132.781L73.0937 132.778Z" fill="#D6D8E5"/>
<path d="M73.0907 119.097V117.464H71.4642L62.4371 111.816C61.3281 111.114 59.3504 111.205 58.0566 112.013L53.0293 115.169C52.9385 115.224 52.8509 115.284 52.7668 115.35L51.9609 114.889C51.9609 114.889 51.9609 116.612 51.9609 116.671C51.9723 117.195 52.2579 117.667 52.7003 117.894L62.6145 124.078C63.7235 124.78 65.7012 124.69 66.995 123.881L72.0224 120.726C72.7617 120.256 73.1314 119.649 73.0907 119.081V119.097Z" fill="#EDF0F9"/>
<path d="M62.615 122.758L52.7139 116.574C51.6048 115.872 51.7305 114.647 53.0282 113.839L58.0564 110.686C59.3504 109.897 61.3136 109.787 62.4376 110.489L72.3423 116.672C73.4515 117.374 73.3221 118.6 72.0244 119.408L66.9962 122.561C65.7207 123.369 63.739 123.459 62.615 122.758Z" fill="#E2E5F2"/>
<path d="M58.5669 115.306C59.2964 115.306 59.8877 114.714 59.8877 113.985C59.8877 113.255 59.2964 112.664 58.5669 112.664C57.8374 112.664 57.2461 113.255 57.2461 113.985C57.2461 114.714 57.8374 115.306 58.5669 115.306Z" fill="url(#paint7_linear)"/>
<path d="M65.1685 119.268C65.8979 119.268 66.4893 118.677 66.4893 117.947C66.4893 117.218 65.8979 116.626 65.1685 116.626C64.439 116.626 63.8477 117.218 63.8477 117.947C63.8477 118.677 64.439 119.268 65.1685 119.268Z" fill="url(#paint8_linear)"/>
</g>
<defs>
<radialGradient id="paint0_radial" cx="0" cy="0" r="1" gradientUnits="userSpaceOnUse" gradientTransform="translate(141.5 120.685) rotate(-25.9003) scale(104.749 85.5823)">
<stop stop-color="#0F72CD"/>
<stop offset="1" stop-color="#EFF3F9"/>
<stop offset="1" stop-color="#F4F6FA"/>
</radialGradient>
<linearGradient id="paint1_linear" x1="121.974" y1="96.2413" x2="143.196" y2="96.2413" gradientUnits="userSpaceOnUse">
<stop stop-color="#0E6CC9"/>
<stop offset="1" stop-color="#1DB4FF"/>
</linearGradient>
<linearGradient id="paint2_linear" x1="121.974" y1="100.248" x2="143.196" y2="100.248" gradientUnits="userSpaceOnUse">
<stop stop-color="#0E6CC9"/>
<stop offset="1" stop-color="#1DB4FF"/>
</linearGradient>
<linearGradient id="paint3_linear" x1="121.966" y1="101.229" x2="137.883" y2="101.229" gradientUnits="userSpaceOnUse">
<stop stop-color="#0E6CC9"/>
<stop offset="1" stop-color="#1DB4FF"/>
</linearGradient>
<linearGradient id="paint4_linear" x1="145.739" y1="97.3414" x2="154.455" y2="97.3414" gradientUnits="userSpaceOnUse">
<stop stop-color="#0E6CC9"/>
<stop offset="1" stop-color="#1DB4FF"/>
</linearGradient>
<linearGradient id="paint5_linear" x1="66.493" y1="39.292" x2="79.6998" y2="39.292" gradientUnits="userSpaceOnUse">
<stop stop-color="#0E6CC9"/>
<stop offset="1" stop-color="#1DB4FF"/>
</linearGradient>
<linearGradient id="paint6_linear" x1="79.7004" y1="39.2918" x2="98.1898" y2="39.2918" gradientUnits="userSpaceOnUse">
<stop stop-color="#0E6CC9"/>
<stop offset="1" stop-color="#1DB4FF"/>
</linearGradient>
<linearGradient id="paint7_linear" x1="57.2463" y1="115.305" x2="59.8876" y2="115.305" gradientUnits="userSpaceOnUse">
<stop stop-color="#0E6CC9"/>
<stop offset="1" stop-color="#1DB4FF"/>
</linearGradient>
<linearGradient id="paint8_linear" x1="63.8478" y1="119.268" x2="66.4892" y2="119.268" gradientUnits="userSpaceOnUse">
<stop stop-color="#0E6CC9"/>
<stop offset="1" stop-color="#1DB4FF"/>
</linearGradient>
</defs>
</svg>
