<svg width="403" height="543" viewBox="0 0 403 543" fill="none" xmlns="http://www.w3.org/2000/svg">
<path fill-rule="evenodd" clip-rule="evenodd" d="M201.5 403C312.785 403 403 312.785 403 201.5C403 90.2146 312.785 0 201.5 0C90.2146 0 0 90.2146 0 201.5C0 312.785 90.2146 403 201.5 403Z" fill="#2567F2"/>
<path fill-rule="evenodd" clip-rule="evenodd" d="M301.5 543C326.629 543 347 522.629 347 497.5C347 472.371 326.629 452 301.5 452C276.371 452 256 472.371 256 497.5C256 522.629 276.371 543 301.5 543Z" fill="#02DDC1"/>
<path fill-rule="evenodd" clip-rule="evenodd" d="M32.5 403C44.3741 403 54 393.374 54 381.5C54 369.626 44.3741 360 32.5 360C20.6259 360 11 369.626 11 381.5C11 393.374 20.6259 403 32.5 403Z" fill="#02DDC1"/>
</svg>
