<svg width="30" height="30" viewBox="0 0 30 30" fill="none" xmlns="http://www.w3.org/2000/svg">
<path fill-rule="evenodd" clip-rule="evenodd" d="M15 30C23.2843 30 30 23.2843 30 15C30 6.71573 23.2843 0 15 0C6.71573 0 0 6.71573 0 15C0 23.2843 6.71573 30 15 30Z" fill="#FFF5E2"/>
<path fill-rule="evenodd" clip-rule="evenodd" d="M9.16667 9H20.8333C21.4774 9 22 9.52322 22 10.1681V17.9556C22 18.6005 21.4774 19.1237 20.8333 19.1237H16.1667L16.5556 20.2919H18.3056C18.6288 20.2919 18.8889 20.5523 18.8889 20.8759C18.8889 21.1996 18.6288 21.46 18.3056 21.46H11.6944C11.3712 21.46 11.1111 21.1996 11.1111 20.8759C11.1111 20.5523 11.3712 20.2919 11.6944 20.2919H13.4444L13.8333 19.1237H9.16667C8.52257 19.1237 8 18.6005 8 17.9556V10.1681C8 9.52322 8.52257 9 9.16667 9ZM9.54 17.54H20.46V10.54H9.54V17.54Z" fill="#FFAF15"/>
</svg>
