<svg width="30" height="30" viewBox="0 0 30 30" fill="none" xmlns="http://www.w3.org/2000/svg">
<path fill-rule="evenodd" clip-rule="evenodd" d="M15 30C23.2843 30 30 23.2843 30 15C30 6.71573 23.2843 0 15 0C6.71573 0 0 6.71573 0 15C0 23.2843 6.71573 30 15 30Z" fill="#FFF5E2"/>
<path fill-rule="evenodd" clip-rule="evenodd" d="M12.2188 9H17.9062C18.5791 9 19.125 9.5459 19.125 10.2188V20.7812C19.125 21.4541 18.5791 22 17.9062 22H12.2188C11.5459 22 11 21.4541 11 20.7812V10.2188C11 9.5459 11.5459 9 12.2188 9ZM14.25 20.375C14.25 20.8244 14.6131 21.1875 15.0625 21.1875C15.5119 21.1875 15.875 20.8244 15.875 20.375C15.875 19.9256 15.5119 19.5625 15.0625 19.5625C14.6131 19.5625 14.25 19.9256 14.25 20.375Z" fill="#FFAF15"/>
</svg>
