<svg width="30" height="30" viewBox="0 0 30 30" fill="none" xmlns="http://www.w3.org/2000/svg">
<path fill-rule="evenodd" clip-rule="evenodd" d="M15 30C23.2843 30 30 23.2843 30 15C30 6.71573 23.2843 0 15 0C6.71573 0 0 6.71573 0 15C0 23.2843 6.71573 30 15 30Z" fill="#FFF5E2"/>
<path fill-rule="evenodd" clip-rule="evenodd" d="M15 8C11.1343 8 8 11.1354 8 15C8 18.8669 11.1343 22 15 22C18.8657 22 22 18.8669 22 15C22 11.1354 18.8657 8 15 8ZM15 11.2308C15.5948 11.2308 16.0769 11.7129 16.0769 12.3077C16.0769 12.9025 15.5948 13.3846 15 13.3846C14.4052 13.3846 13.9231 12.9025 13.9231 12.3077C13.9231 11.7129 14.4052 11.2308 15 11.2308ZM16.2692 18.7692C16.4604 18.7692 16.6154 18.6246 16.6154 18.4462V17.8C16.6154 17.6216 16.4604 17.4769 16.2692 17.4769H15.9231V14.7846C15.9231 14.6062 15.7681 14.4615 15.5769 14.4615H13.7308C13.5396 14.4615 13.3846 14.6062 13.3846 14.7846V15.4308C13.3846 15.6092 13.5396 15.7538 13.7308 15.7538H14.0769V17.4769H13.7308C13.5396 17.4769 13.3846 17.6216 13.3846 17.8V18.4462C13.3846 18.6246 13.5396 18.7692 13.7308 18.7692H16.2692Z" fill="#FFAF15"/>
</svg>
