<svg width="30" height="30" viewBox="0 0 30 30" fill="none" xmlns="http://www.w3.org/2000/svg">
<path fill-rule="evenodd" clip-rule="evenodd" d="M15 30C23.2843 30 30 23.2843 30 15C30 6.71573 23.2843 0 15 0C6.71573 0 0 6.71573 0 15C0 23.2843 6.71573 30 15 30Z" fill="#FFF5E2"/>
<path fill-rule="evenodd" clip-rule="evenodd" d="M16.8333 11.7188V8H11.625C11.2786 8 11 8.29258 11 8.65625V21.3438C11 21.7074 11.2786 22 11.625 22H20.375C20.7214 22 21 21.7074 21 21.3438V12.375H17.4583C17.1146 12.375 16.8333 12.0797 16.8333 11.7188ZM18.0921 14.379L16.4942 16.8395L18.0921 19.3C18.2276 19.5105 18.0761 19.7868 17.8235 19.7868H16.8957C16.7787 19.7868 16.6697 19.7237 16.6138 19.6211C16.0927 18.6684 15.6434 17.8132 15.6434 17.8132C15.5233 18.0881 15.4403 18.2372 15.153 18.7528L15.153 18.7528L15.153 18.7529C15.0334 18.9677 14.8783 19.2461 14.6704 19.6237C14.6145 19.7263 14.5082 19.7895 14.3912 19.7895H13.4633C13.2107 19.7895 13.0592 19.5132 13.1948 19.3026L14.798 16.8421L13.1948 14.3816C13.0565 14.1711 13.2107 13.8948 13.4633 13.8948H14.3885C14.5055 13.8948 14.6145 13.9579 14.6704 14.0605C14.9695 14.6142 15.1095 14.8548 15.2074 15.023L15.2074 15.023C15.3366 15.2449 15.3924 15.3407 15.6434 15.8632C15.6434 15.8632 15.8056 15.5553 16.6165 14.0605C16.6723 13.9579 16.7813 13.8948 16.8983 13.8948H17.8235C18.0761 13.8921 18.2276 14.1684 18.0921 14.379ZM21 11.6842V11.5086C21 11.3273 20.9302 11.1517 20.8047 11.0222L18.0731 8.20148C17.9475 8.07196 17.7773 8 17.5988 8H17.4286V11.6842H21Z" fill="#FFAF15"/>
</svg>
