<svg width="1920" height="1524" viewBox="0 0 1920 1524" fill="none" xmlns="http://www.w3.org/2000/svg">
<path fill-rule="evenodd" clip-rule="evenodd" d="M223.5 880C260.227 880 290 850.227 290 813.5C290 776.773 260.227 747 223.5 747C186.773 747 157 776.773 157 813.5C157 850.227 186.773 880 223.5 880Z" fill="#2567F2"/>
<path fill-rule="evenodd" clip-rule="evenodd" d="M1697.5 1108C1735.33 1108 1766 1077.33 1766 1039.5C1766 1001.67 1735.33 971 1697.5 971C1659.67 971 1629 1001.67 1629 1039.5C1629 1077.33 1659.67 1108 1697.5 1108Z" fill="#2567F2"/>
<path d="M1236.75 75C1236.75 109.656 1208.66 137.75 1174 137.75C1139.34 137.75 1111.25 109.656 1111.25 75C1111.25 40.3441 1139.34 12.25 1174 12.25C1208.66 12.25 1236.75 40.3441 1236.75 75Z" stroke="#D5D5D5" stroke-width="0.5"/>
<path fill-rule="evenodd" clip-rule="evenodd" d="M993 135C1008.46 135 1021 122.464 1021 107C1021 91.536 1008.46 79 993 79C977.536 79 965 91.536 965 107C965 122.464 977.536 135 993 135Z" fill="#2567F2"/>
</svg>
