<svg width="30" height="30" viewBox="0 0 30 30" fill="none" xmlns="http://www.w3.org/2000/svg">
<path fill-rule="evenodd" clip-rule="evenodd" d="M15 30C23.2843 30 30 23.2843 30 15C30 6.71573 23.2843 0 15 0C6.71573 0 0 6.71573 0 15C0 23.2843 6.71573 30 15 30Z" fill="#FFF5E2"/>
<path fill-rule="evenodd" clip-rule="evenodd" d="M20.0286 17.9571V9.82192C20.0286 9.36643 19.6596 9 19.2067 9H11.0816C10.6261 9 10.2571 9.36897 10.2571 9.82192V17.9571H20.0286ZM22.4714 16.3286H20.8429V17.9571H21.4129C21.5477 17.9571 21.6571 18.0487 21.6571 18.1607V18.5679C21.6571 18.6798 21.5477 18.7714 21.4129 18.7714H8.87286C8.73799 18.7714 8.62857 18.6798 8.62857 18.5679V18.1607C8.62857 18.0487 8.73799 17.9571 8.87286 17.9571H9.44286V16.3286H7.81429C7.36388 16.3286 7 16.6925 7 17.1429V19.5857C7 20.0361 7.36388 20.4 7.81429 20.4H22.4714C22.9218 20.4 23.2857 20.0361 23.2857 19.5857V17.1429C23.2857 16.6925 22.9218 16.3286 22.4714 16.3286ZM13.0232 12.6821L12.3743 13.3259C12.2674 13.4328 12.2649 13.6058 12.3743 13.7127L14.2599 15.6135C14.3667 15.7229 14.5398 15.7229 14.6467 15.6161L17.9114 12.3793C18.0208 12.2724 18.0208 12.0994 17.914 11.9925L17.2702 11.3436C17.1633 11.2342 16.9903 11.2342 16.8834 11.3411L14.4609 13.7432L13.41 12.6846C13.3031 12.5752 13.13 12.5752 13.0232 12.6821Z" fill="#FFAF15"/>
</svg>
