<svg width="30" height="30" viewBox="0 0 30 30" fill="none" xmlns="http://www.w3.org/2000/svg">
<path fill-rule="evenodd" clip-rule="evenodd" d="M15 30C23.2843 30 30 23.2843 30 15C30 6.71573 23.2843 0 15 0C6.71573 0 0 6.71573 0 15C0 23.2843 6.71573 30 15 30Z" fill="#FFF5E2"/>
<path fill-rule="evenodd" clip-rule="evenodd" d="M21.4 10.2188C21.4 9.54844 20.86 9 20.2 9H9.8C9.14 9 8.6 9.54844 8.6 10.2188V18.75H21.4V10.2188ZM22.6 19.5625H16.5385C16.52 20.0655 16.1708 20.375 15.72 20.375H14.2C13.7327 20.375 13.3745 19.9314 13.3808 19.5625H7.4C7.18 19.5625 7 19.7453 7 19.9688V20.375C7 21.2688 7.72 22 8.6 22H21.4C22.28 22 23 21.2688 23 20.375V19.9688C23 19.7453 22.82 19.5625 22.6 19.5625ZM10.2 17.125H19.8V10.625H10.2V17.125Z" fill="#FFAF15"/>
</svg>
